<svg version="1.1" xmlns="http://www.w3.org/2000/svg" xmlns:xlink="http://www.w3.org/1999/xlink" width="1014"
     height="383" viewBox="0 0 1014 383">
  <defs/>
  <g transform="matrix(1,0,0,1,0,0)">
    <g>
      <g>
        <g>
          <path fill="none" stroke="#d3d3d3" paint-order="fill stroke markers" d=" M 0 0 L 1200 0"
                stroke-miterlimit="10" stroke-opacity="0.8" stroke-dasharray="5"/>
        </g>
        <g>
          <path fill="none" stroke="#d3d3d3" paint-order="fill stroke markers" d=" M 0 0 L 0 800" stroke-miterlimit="10"
                stroke-opacity="0.8" stroke-dasharray="5"/>
        </g>
      </g>
      <g id="EndEvent_2" bpmn2nodeid="EndEvent_2" transform="matrix(1,0,0,1,908,275)">
        <g>
          <path fill="none" stroke="none"/>
        </g>
        <g transform="matrix(0.125,0,0,0.125,0,0)">
          <g transform="matrix(1,0,0,1,0,0)">
            <path fill="#fce7e7" stroke="none" id="EndEvent_2?shapeType=BACKGROUND" paint-order="stroke fill markers"
                  d=" M 0 0 M 444 224 C 444 263.9 434.2 300.8 414.4 334.5 C 394.7 368.2 368 394.9 334.4 414.5 C 300.79999999999995 434.1 263.9 444 224 444 C 184.10000000000002 444 147.2 434.2 113.5 414.4 C 79.8 394.7 53.1 368 33.5 334.4 C 13.899999999999999 300.79999999999995 4 263.9 4 224 C 4 184.10000000000002 13.8 147.2 33.6 113.5 C 53.400000000000006 79.80000000000001 80.1 53.1 113.6 33.5 C 147.1 13.899999999999999 184.1 4 224 4 C 263.9 4 300.8 13.8 334.5 33.6 C 368.2 53.400000000000006 394.9 80.1 414.5 113.6 C 434.1 147.1 444 184.1 444 224 Z"/>
          </g>
          <g>
            <g transform="matrix(1,0,0,1,0,0)">
              <g transform="matrix(1,0,0,1,0,0)">
                <path fill="#a30000" stroke="none" id="EndEvent_2?shapeType=BORDER&amp;renderType=FILL"
                      paint-order="stroke fill markers"
                      d=" M 0 0 M 224 0 C 100.3 0 0 100.3 0 224 C 0 347.7 100.3 448 224 448 C 347.7 448 448 347.7 448 224 C 448 100.30000000000001 347.7 0 224 0 Z M 0 0 M 224 400 C 126.8 400 48 321.2 48 224 C 48 126.80000000000001 126.8 48 224 48 C 321.2 48 400 126.8 400 224 C 400 321.2 321.2 400 224 400 Z"/>
              </g>
            </g>
          </g>
          <g>
            <g transform="matrix(1,0,0,1,0,0)">
              <g transform="matrix(1,0,0,1,0,0)">
                <path fill="#a30000" stroke="none" id="EndEvent_2undefined" paint-order="stroke fill markers"
                      d=" M 0 0 M 336.2 189.4 L 336.2 288.7 C 336.2 294.2 334.3 298.9 330.3 302.8 C 326.40000000000003 306.7 321.7 308.7 316.2 308.7 L 132.2 308.7 C 126.69999999999999 308.7 121.99999999999999 306.7 118.1 302.8 C 114.19999999999999 298.90000000000003 112.19999999999999 294.2 112.19999999999999 288.7 L 112.19999999999999 189.39999999999998 C 115.89999999999999 193.49999999999997 120.1 197.09999999999997 124.79999999999998 200.29999999999998 C 154.99999999999997 220.79999999999998 175.7 235.2 186.89999999999998 243.39999999999998 C 191.7 246.89999999999998 195.49999999999997 249.59999999999997 198.49999999999997 251.59999999999997 C 201.39999999999998 253.49999999999997 205.39999999999998 255.49999999999997 210.29999999999998 257.59999999999997 C 215.2 259.7 219.79999999999998 260.7 224.1 260.7 L 224.29999999999998 260.7 C 228.49999999999997 260.7 233.1 259.7 238.1 257.59999999999997 C 243 255.49999999999997 247 253.49999999999997 249.9 251.59999999999997 C 252.8 249.69999999999996 256.7 246.89999999999998 261.5 243.39999999999998 C 275.6 233.2 296.4 218.79999999999998 323.7 200.29999999999998 C 328.5 197.1 332.6 193.4 336.2 189.4 Z M 0 0 M 336.2 152.7 C 336.2 159.29999999999998 334.2 165.6 330.09999999999997 171.6 C 326.09999999999997 177.6 320.99999999999994 182.7 314.9 187 C 283.5 208.8 264 222.3 256.4 227.6 C 255.59999999999997 228.2 253.79999999999998 229.4 251.09999999999997 231.4 C 248.39999999999995 233.4 246.19999999999996 235 244.29999999999995 236.20000000000002 C 242.39999999999995 237.40000000000003 240.39999999999995 238.8 237.79999999999995 240.3 C 235.19999999999996 241.8 232.89999999999995 242.9 230.59999999999997 243.70000000000002 C 228.29999999999998 244.50000000000003 226.19999999999996 244.8 224.39999999999998 244.8 L 224.2 244.8 C 222.29999999999998 244.8 220.2 244.4 218 243.70000000000002 C 215.8 243.00000000000003 213.3 241.8 210.8 240.3 C 208.20000000000002 238.8 206.10000000000002 237.4 204.3 236.20000000000002 C 202.5 235.00000000000003 200.20000000000002 233.4 197.5 231.4 C 194.79999999999998 229.4 193 228.20000000000002 192.2 227.6 C 184.6 222.29999999999998 173.7 214.7 159.39999999999998 204.79999999999998 C 145.09999999999997 194.89999999999998 136.59999999999997 188.99999999999997 133.79999999999998 186.99999999999997 C 128.6 183.49999999999997 123.69999999999999 178.69999999999996 119.19999999999999 172.59999999999997 C 114.69999999999999 166.49999999999997 112.29999999999998 160.79999999999995 112.29999999999998 155.49999999999997 C 112.29999999999998 148.99999999999997 114.09999999999998 143.59999999999997 117.49999999999999 139.29999999999998 C 120.89999999999999 134.99999999999997 125.89999999999999 132.79999999999998 132.29999999999998 132.79999999999998 L 316.29999999999995 132.79999999999998 C 321.69999999999993 132.79999999999998 326.4 134.7 330.4 138.7 C 334.2 142.6 336.2 147.2 336.2 152.7 Z"/>
              </g>
            </g>
          </g>
        </g>
        <g transform="matrix(1,0,0,1,-19.2578125,61)">
          <text fill="#000000" stroke="none" font-family="Open Sans" font-size="12pt" font-style="normal"
                font-weight="normal" text-decoration="normal" x="47.2578125" y="12" text-anchor="middle"
                dominant-baseline="alphabetic">Visa rejected
          </text>
        </g>
      </g>
      <g id="ExclusiveGateway_3" bpmn2nodeid="ExclusiveGateway_3" transform="matrix(1,0,0,1,748,275)">
        <g>
          <path fill="none" stroke="none"/>
        </g>
        <g transform="matrix(0.125,0,0,0.125,0,0)">
          <g transform="matrix(1,0,0,1,0,0)">
            <path fill="#fef4ea" stroke="none" id="ExclusiveGateway_3?shapeType=BACKGROUND"
                  paint-order="stroke fill markers"
                  d=" M 0 0 M 224.4 4.3 C 216.4 4.3 208.4 7.3 202.3 13.399999999999999 L 13.5 202.2 C 1.3000000000000007 214.39999999999998 1.3000000000000007 234.2 13.5 246.39999999999998 L 202.2 435.09999999999997 C 208.29999999999998 441.2 216.39999999999998 444.2 224.29999999999998 444.2 C 232.2 444.2 240.29999999999998 441.2 246.39999999999998 435.09999999999997 L 435.09999999999997 246.39999999999998 C 447.29999999999995 234.2 447.29999999999995 214.39999999999998 435.09999999999997 202.2 L 246.5 13.4 C 240.4 7.3 232.4 4.3 224.4 4.3 L 224.4 4.3 Z"/>
          </g>
          <g>
            <g transform="matrix(1,0,0,1,0,0)">
              <g transform="matrix(1,0,0,1,0,0)">
                <path fill="#ec7a08" stroke="none" id="ExclusiveGateway_3?shapeType=BORDER&amp;renderType=FILL"
                      paint-order="stroke fill markers"
                      d=" M 0 0 M 20.8 212.7 L 213.3 20.2 C 219.60000000000002 13.899999999999999 229.70000000000002 13.899999999999999 235.9 20.2 L 428.4 212.7 C 434.7 219 434.7 229.1 428.4 235.29999999999998 L 235.9 427.8 C 229.6 434.1 219.5 434.1 213.3 427.8 L 20.8 235.3 C 14.5 229.1 14.5 218.9 20.8 212.7 L 20.8 212.7 Z M 0 0 M 0 224 C 0 232.1 3.1 240.3 9.3 246.5 L 201.5 438.7 C 213.9 451.09999999999997 234.1 451.09999999999997 246.5 438.7 L 438.7 246.5 C 444.9 240.3 448 232.1 448 224 C 448 215.9 444.9 207.7 438.7 201.5 L 246.5 9.3 C 234.1 -3.0999999999999996 213.9 -3.0999999999999996 201.5 9.3 L 9.3 201.5 C 3.1 207.7 0 215.9 0 224 L 0 224 Z"/>
              </g>
            </g>
          </g>
          <g>
            <g transform="matrix(1,0,0,1,0,0)">
              <g transform="matrix(1,0,0,1,0,0)">
                <path fill="#ec7a08" stroke="none" id="ExclusiveGateway_3undefined" paint-order="stroke fill markers"
                      d=" M 0 0 M 298.2 269.2 C 298.2 272.59999999999997 297.09999999999997 275.3 294.7 277.7 L 277.7 294.7 C 275.3 297.09999999999997 272.59999999999997 298.2 269.2 298.2 C 265.8 298.2 263.09999999999997 297.09999999999997 260.7 294.7 L 224 258 L 187.2 294.8 C 184.79999999999998 297.2 182.1 298.3 178.7 298.3 C 175.29999999999998 298.3 172.6 297.2 170.2 294.8 L 153.2 277.8 C 150.79999999999998 275.40000000000003 149.7 272.7 149.7 269.3 C 149.7 265.90000000000003 150.79999999999998 263.2 153.2 260.8 L 190 224 L 153.2 187.2 C 150.79999999999998 184.79999999999998 149.7 182 149.7 178.7 C 149.7 175.29999999999998 150.79999999999998 172.5 153.2 170.2 L 170.2 153.2 C 172.6 150.79999999999998 175.29999999999998 149.7 178.7 149.7 C 182.1 149.7 184.79999999999998 150.79999999999998 187.2 153.2 L 224 190 L 260.8 153.2 C 263.2 150.79999999999998 265.90000000000003 149.7 269.3 149.7 C 272.7 149.7 275.40000000000003 150.79999999999998 277.8 153.2 L 294.8 170.2 C 297.2 172.5 298.3 175.29999999999998 298.3 178.7 C 298.3 182 297.2 184.79999999999998 294.8 187.2 L 258 224 L 294.8 260.8 C 297.1 263.1 298.2 265.9 298.2 269.2 Z"/>
              </g>
            </g>
          </g>
        </g>
        <g transform="matrix(1,0,0,1,-46.9609375,61)">
          <text fill="#000000" stroke="none" font-family="Open Sans" font-size="12pt" font-style="normal"
                font-weight="normal" text-decoration="normal" x="74.9609375" y="12" text-anchor="middle"
                dominant-baseline="alphabetic">Manually approved?
          </text>
        </g>
      </g>
      <g id="ExclusiveGateway_2" bpmn2nodeid="ExclusiveGateway_2" transform="matrix(1,0,0,1,748,130)">
        <g>
          <path fill="none" stroke="none"/>
        </g>
        <g transform="matrix(0.125,0,0,0.125,0,0)">
          <g transform="matrix(1,0,0,1,0,0)">
            <path fill="#fef4ea" stroke="none" id="ExclusiveGateway_2?shapeType=BACKGROUND"
                  paint-order="stroke fill markers"
                  d=" M 0 0 M 224.4 4.3 C 216.4 4.3 208.4 7.3 202.3 13.399999999999999 L 13.5 202.2 C 1.3000000000000007 214.39999999999998 1.3000000000000007 234.2 13.5 246.39999999999998 L 202.2 435.09999999999997 C 208.29999999999998 441.2 216.39999999999998 444.2 224.29999999999998 444.2 C 232.2 444.2 240.29999999999998 441.2 246.39999999999998 435.09999999999997 L 435.09999999999997 246.39999999999998 C 447.29999999999995 234.2 447.29999999999995 214.39999999999998 435.09999999999997 202.2 L 246.5 13.4 C 240.4 7.3 232.4 4.3 224.4 4.3 L 224.4 4.3 Z"/>
          </g>
          <g>
            <g transform="matrix(1,0,0,1,0,0)">
              <g transform="matrix(1,0,0,1,0,0)">
                <path fill="#ec7a08" stroke="none" id="ExclusiveGateway_2?shapeType=BORDER&amp;renderType=FILL"
                      paint-order="stroke fill markers"
                      d=" M 0 0 M 20.8 212.7 L 213.3 20.2 C 219.60000000000002 13.899999999999999 229.70000000000002 13.899999999999999 235.9 20.2 L 428.4 212.7 C 434.7 219 434.7 229.1 428.4 235.29999999999998 L 235.9 427.8 C 229.6 434.1 219.5 434.1 213.3 427.8 L 20.8 235.3 C 14.5 229.1 14.5 218.9 20.8 212.7 L 20.8 212.7 Z M 0 0 M 0 224 C 0 232.1 3.1 240.3 9.3 246.5 L 201.5 438.7 C 213.9 451.09999999999997 234.1 451.09999999999997 246.5 438.7 L 438.7 246.5 C 444.9 240.3 448 232.1 448 224 C 448 215.9 444.9 207.7 438.7 201.5 L 246.5 9.3 C 234.1 -3.0999999999999996 213.9 -3.0999999999999996 201.5 9.3 L 9.3 201.5 C 3.1 207.7 0 215.9 0 224 L 0 224 Z"/>
              </g>
            </g>
          </g>
          <g>
            <g transform="matrix(1,0,0,1,0,0)">
              <g transform="matrix(1,0,0,1,0,0)">
                <path fill="#ec7a08" stroke="none" id="ExclusiveGateway_2undefined" paint-order="stroke fill markers"
                      d=" M 0 0 M 298.2 269.2 C 298.2 272.59999999999997 297.09999999999997 275.3 294.7 277.7 L 277.7 294.7 C 275.3 297.09999999999997 272.59999999999997 298.2 269.2 298.2 C 265.8 298.2 263.09999999999997 297.09999999999997 260.7 294.7 L 224 258 L 187.2 294.8 C 184.79999999999998 297.2 182.1 298.3 178.7 298.3 C 175.29999999999998 298.3 172.6 297.2 170.2 294.8 L 153.2 277.8 C 150.79999999999998 275.40000000000003 149.7 272.7 149.7 269.3 C 149.7 265.90000000000003 150.79999999999998 263.2 153.2 260.8 L 190 224 L 153.2 187.2 C 150.79999999999998 184.79999999999998 149.7 182 149.7 178.7 C 149.7 175.29999999999998 150.79999999999998 172.5 153.2 170.2 L 170.2 153.2 C 172.6 150.79999999999998 175.29999999999998 149.7 178.7 149.7 C 182.1 149.7 184.79999999999998 150.79999999999998 187.2 153.2 L 224 190 L 260.8 153.2 C 263.2 150.79999999999998 265.90000000000003 149.7 269.3 149.7 C 272.7 149.7 275.40000000000003 150.79999999999998 277.8 153.2 L 294.8 170.2 C 297.2 172.5 298.3 175.29999999999998 298.3 178.7 C 298.3 182 297.2 184.79999999999998 294.8 187.2 L 258 224 L 294.8 260.8 C 297.1 263.1 298.2 265.9 298.2 269.2 Z"/>
              </g>
            </g>
          </g>
        </g>
        <g transform="matrix(1,0,0,1,28,61)"/>
      </g>
      <g id="UserTask_1" bpmn2nodeid="UserTask_1" transform="matrix(1,0,0,1,552,272)">
        <g>
          <path fill="none" stroke="none"/>
        </g>
        <g transform="matrix(1,0,0,1,0,0)">
          <path fill="#ffffff" stroke="none" id="UserTask_1?shapeType=BACKGROUND" paint-order="stroke fill markers"
                d=" M 2 0 L 144 0 L 144 0 A 2 2 0 0 1 146 2 L 146 59 L 146 59 A 2 2 0 0 1 144 61 L 2 61 L 2 61 A 2 2 0 0 1 0 59 L 0 2 L 0 2.0000000000000004 A 2 2 0 0 1 1.9999999999999996 0 Z"/>
        </g>
        <g transform="matrix(1,0,0,1,0,0)">
          <path fill="none" stroke="#000000" id="UserTask_1?shapeType=BORDER&amp;renderType=STROKE"
                paint-order="fill stroke markers"
                d=" M 2 0 L 144 0 L 144 0 A 2 2 0 0 1 146 2 L 146 59 L 146 59 A 2 2 0 0 1 144 61 L 2 61 L 2 61 A 2 2 0 0 1 0 59 L 0 2 L 0 2.0000000000000004 A 2 2 0 0 1 1.9999999999999996 0 Z"
                stroke-miterlimit="10" stroke-width="1.5" stroke-dasharray=""/>
        </g>
        <g>
          <g transform="matrix(0.06,0,0,0.06,9.4,9.4)">
            <g transform="matrix(1,0,0,1,0,0)">
              <path fill="#393f44" stroke="none" id="UserTask_1undefined" paint-order="stroke fill markers"
                    d=" M 0 0 M 16 445.2101 C 16 440.86867 18.784312 431.12906000000004 22.001325 424.21728 C 35.767643 394.6402 77.282944 359.28049 129 333.08362 C 144.51625 325.22398 157.34689 319.96394 167.80739 317.17416 C 171.93153 316.07426 175.72913 314.41389999999996 176.5251 313.36265 C 178.89361 310.23449999999997 180.91404 302.90781 181.72673 294.5 L 182.5 286.5 L 178.50715 283.45457 C 166.30327 274.14645 154.2837 251.67767 148.03953 226.5 C 145.61086 216.70715 145.05603000000002 215.46246 142.98364 215.1579 C 141.70332000000002 214.96974 138.08302 212.24302 134.93852 209.09852 C 123.23314 197.39314000000002 116.89146000000001 177.37556 121.43982000000001 166.48978 C 123.00204000000001 162.75088 128.15457 159.00970999999998 131.75 159.00374 C 134.44781 158.99974 134.47062 158.60296 132.91375 138.78796 C 130.92658 113.4962 134.27903 92.26542699999999 143.13217 74.075676 C 152.23162 55.379835 167.56889 42.88208 189.04934 36.659507000000005 C 210.20334 30.531504000000005 237.79666 30.531504000000005 258.95065999999997 36.659507000000005 C 300.04166 48.562968000000005 318.95842 83.80634 314.95504999999997 141 C 314.31982999999997 150.075 313.62402 157.78816 313.4088 158.14035 C 313.19359 158.49254000000002 314.57532 159.07295000000002 316.47931 159.43014000000002 C 328.92867 161.76565000000002 330.98619 177.01772000000003 321.49638 196.62092 C 316.90319 206.10912000000002 309.35724 214.50797 304.81732 215.18517000000003 C 303.02259 215.45289000000002 302.2931 217.14618000000002 299.94277999999997 226.50000000000003 C 296.65948 239.56693 294.47402 245.30522000000002 287.94764 257.99534000000006 C 282.49071999999995 268.60596000000004 273.03466 281.10922000000005 268.10756999999995 284.2288300000001 L 264.87062 286.27832000000006 L 265.51815999999997 292.88916000000006 C 266.34490999999997 301.32961000000006 268.63948999999997 309.8706000000001 270.87735999999995 312.83742000000007 C 272.06735 314.4150200000001 275.00244999999995 315.78963000000005 280.0630699999999 317.13941000000005 C 291.06929999999994 320.0750300000001 303.61700999999994 325.27420000000006 320.99999999999994 334.10171 C 369.81470999999993 358.89104000000003 410.84810999999996 393.75797 425.03216 422.5 C 429.06985999999995 430.68183 432 440.23198 432 445.2101 L 432 448 L 224 448 L 16 448 L 16 445.2101 Z"/>
            </g>
          </g>
        </g>
        <g transform="matrix(1,0,0,1,0.03999999999999204,-27.32)">
          <g transform="matrix(0.04,0,0,0.04,63.36,69.12)">
            <g transform="matrix(1,0,0,1,0,0)">
              <path fill="none" stroke="none"/>
            </g>
            <g transform="matrix(1,0,0,1,0,0)">
              <path fill="none" stroke="none"/>
            </g>
          </g>
        </g>
        <g transform="matrix(1,0,0,1,35,15.5)">
          <text fill="#000000" stroke="none" font-family="Open Sans" font-size="12pt" font-style="normal"
                font-weight="normal" text-decoration="normal" x="46.41796875" y="12" text-anchor="middle"
                dominant-baseline="alphabetic">Manual visa
          </text>
          <text fill="#000000" stroke="none" font-family="Open Sans" font-size="12pt" font-style="normal"
                font-weight="normal" text-decoration="normal" x="46.41796875" y="27" text-anchor="middle"
                dominant-baseline="alphabetic">approval
          </text>
        </g>
      </g>
      <g id="EndEvent_1" bpmn2nodeid="EndEvent_1" transform="matrix(1,0,0,1,908,130)">
        <g>
          <path fill="none" stroke="none"/>
        </g>
        <g transform="matrix(0.125,0,0,0.125,0,0)">
          <g transform="matrix(1,0,0,1,0,0)">
            <path fill="#fce7e7" stroke="none" id="EndEvent_1?shapeType=BACKGROUND" paint-order="stroke fill markers"
                  d=" M 0 0 M 444 224 C 444 263.9 434.2 300.8 414.4 334.5 C 394.7 368.2 368 394.9 334.4 414.5 C 300.79999999999995 434.1 263.9 444 224 444 C 184.10000000000002 444 147.2 434.2 113.5 414.4 C 79.8 394.7 53.1 368 33.5 334.4 C 13.899999999999999 300.79999999999995 4 263.9 4 224 C 4 184.10000000000002 13.8 147.2 33.6 113.5 C 53.400000000000006 79.80000000000001 80.1 53.1 113.6 33.5 C 147.1 13.899999999999999 184.1 4 224 4 C 263.9 4 300.8 13.8 334.5 33.6 C 368.2 53.400000000000006 394.9 80.1 414.5 113.6 C 434.1 147.1 444 184.1 444 224 Z"/>
          </g>
          <g>
            <g transform="matrix(1,0,0,1,0,0)">
              <g transform="matrix(1,0,0,1,0,0)">
                <path fill="#a30000" stroke="none" id="EndEvent_1?shapeType=BORDER&amp;renderType=FILL"
                      paint-order="stroke fill markers"
                      d=" M 0 0 M 224 0 C 100.3 0 0 100.3 0 224 C 0 347.7 100.3 448 224 448 C 347.7 448 448 347.7 448 224 C 448 100.30000000000001 347.7 0 224 0 Z M 0 0 M 224 400 C 126.8 400 48 321.2 48 224 C 48 126.80000000000001 126.8 48 224 48 C 321.2 48 400 126.8 400 224 C 400 321.2 321.2 400 224 400 Z"/>
              </g>
            </g>
          </g>
          <g>
            <g transform="matrix(1,0,0,1,0,0)">
              <g transform="matrix(1,0,0,1,0,0)">
                <path fill="#a30000" stroke="none" id="EndEvent_1undefined" paint-order="stroke fill markers"
                      d=" M 0 0 M 336.2 189.4 L 336.2 288.7 C 336.2 294.2 334.3 298.9 330.3 302.8 C 326.40000000000003 306.7 321.7 308.7 316.2 308.7 L 132.2 308.7 C 126.69999999999999 308.7 121.99999999999999 306.7 118.1 302.8 C 114.19999999999999 298.90000000000003 112.19999999999999 294.2 112.19999999999999 288.7 L 112.19999999999999 189.39999999999998 C 115.89999999999999 193.49999999999997 120.1 197.09999999999997 124.79999999999998 200.29999999999998 C 154.99999999999997 220.79999999999998 175.7 235.2 186.89999999999998 243.39999999999998 C 191.7 246.89999999999998 195.49999999999997 249.59999999999997 198.49999999999997 251.59999999999997 C 201.39999999999998 253.49999999999997 205.39999999999998 255.49999999999997 210.29999999999998 257.59999999999997 C 215.2 259.7 219.79999999999998 260.7 224.1 260.7 L 224.29999999999998 260.7 C 228.49999999999997 260.7 233.1 259.7 238.1 257.59999999999997 C 243 255.49999999999997 247 253.49999999999997 249.9 251.59999999999997 C 252.8 249.69999999999996 256.7 246.89999999999998 261.5 243.39999999999998 C 275.6 233.2 296.4 218.79999999999998 323.7 200.29999999999998 C 328.5 197.1 332.6 193.4 336.2 189.4 Z M 0 0 M 336.2 152.7 C 336.2 159.29999999999998 334.2 165.6 330.09999999999997 171.6 C 326.09999999999997 177.6 320.99999999999994 182.7 314.9 187 C 283.5 208.8 264 222.3 256.4 227.6 C 255.59999999999997 228.2 253.79999999999998 229.4 251.09999999999997 231.4 C 248.39999999999995 233.4 246.19999999999996 235 244.29999999999995 236.20000000000002 C 242.39999999999995 237.40000000000003 240.39999999999995 238.8 237.79999999999995 240.3 C 235.19999999999996 241.8 232.89999999999995 242.9 230.59999999999997 243.70000000000002 C 228.29999999999998 244.50000000000003 226.19999999999996 244.8 224.39999999999998 244.8 L 224.2 244.8 C 222.29999999999998 244.8 220.2 244.4 218 243.70000000000002 C 215.8 243.00000000000003 213.3 241.8 210.8 240.3 C 208.20000000000002 238.8 206.10000000000002 237.4 204.3 236.20000000000002 C 202.5 235.00000000000003 200.20000000000002 233.4 197.5 231.4 C 194.79999999999998 229.4 193 228.20000000000002 192.2 227.6 C 184.6 222.29999999999998 173.7 214.7 159.39999999999998 204.79999999999998 C 145.09999999999997 194.89999999999998 136.59999999999997 188.99999999999997 133.79999999999998 186.99999999999997 C 128.6 183.49999999999997 123.69999999999999 178.69999999999996 119.19999999999999 172.59999999999997 C 114.69999999999999 166.49999999999997 112.29999999999998 160.79999999999995 112.29999999999998 155.49999999999997 C 112.29999999999998 148.99999999999997 114.09999999999998 143.59999999999997 117.49999999999999 139.29999999999998 C 120.89999999999999 134.99999999999997 125.89999999999999 132.79999999999998 132.29999999999998 132.79999999999998 L 316.29999999999995 132.79999999999998 C 321.69999999999993 132.79999999999998 326.4 134.7 330.4 138.7 C 334.2 142.6 336.2 147.2 336.2 152.7 Z"/>
              </g>
            </g>
          </g>
        </g>
        <g transform="matrix(1,0,0,1,-24.55859375,61)">
          <text fill="#000000" stroke="none" font-family="Open Sans" font-size="12pt" font-style="normal"
                font-weight="normal" text-decoration="normal" x="52.55859375" y="12" text-anchor="middle"
                dominant-baseline="alphabetic">Visa approved
          </text>
        </g>
      </g>
      <g id="ExclusiveGateway_1" bpmn2nodeid="ExclusiveGateway_1" transform="matrix(1,0,0,1,463,130)">
        <g>
          <path fill="none" stroke="none"/>
        </g>
        <g transform="matrix(0.125,0,0,0.125,0,0)">
          <g transform="matrix(1,0,0,1,0,0)">
            <path fill="#fef4ea" stroke="none" id="ExclusiveGateway_1?shapeType=BACKGROUND"
                  paint-order="stroke fill markers"
                  d=" M 0 0 M 224.4 4.3 C 216.4 4.3 208.4 7.3 202.3 13.399999999999999 L 13.5 202.2 C 1.3000000000000007 214.39999999999998 1.3000000000000007 234.2 13.5 246.39999999999998 L 202.2 435.09999999999997 C 208.29999999999998 441.2 216.39999999999998 444.2 224.29999999999998 444.2 C 232.2 444.2 240.29999999999998 441.2 246.39999999999998 435.09999999999997 L 435.09999999999997 246.39999999999998 C 447.29999999999995 234.2 447.29999999999995 214.39999999999998 435.09999999999997 202.2 L 246.5 13.4 C 240.4 7.3 232.4 4.3 224.4 4.3 L 224.4 4.3 Z"/>
          </g>
          <g>
            <g transform="matrix(1,0,0,1,0,0)">
              <g transform="matrix(1,0,0,1,0,0)">
                <path fill="#ec7a08" stroke="none" id="ExclusiveGateway_1?shapeType=BORDER&amp;renderType=FILL"
                      paint-order="stroke fill markers"
                      d=" M 0 0 M 20.8 212.7 L 213.3 20.2 C 219.60000000000002 13.899999999999999 229.70000000000002 13.899999999999999 235.9 20.2 L 428.4 212.7 C 434.7 219 434.7 229.1 428.4 235.29999999999998 L 235.9 427.8 C 229.6 434.1 219.5 434.1 213.3 427.8 L 20.8 235.3 C 14.5 229.1 14.5 218.9 20.8 212.7 L 20.8 212.7 Z M 0 0 M 0 224 C 0 232.1 3.1 240.3 9.3 246.5 L 201.5 438.7 C 213.9 451.09999999999997 234.1 451.09999999999997 246.5 438.7 L 438.7 246.5 C 444.9 240.3 448 232.1 448 224 C 448 215.9 444.9 207.7 438.7 201.5 L 246.5 9.3 C 234.1 -3.0999999999999996 213.9 -3.0999999999999996 201.5 9.3 L 9.3 201.5 C 3.1 207.7 0 215.9 0 224 L 0 224 Z"/>
              </g>
            </g>
          </g>
          <g>
            <g transform="matrix(1,0,0,1,0,0)">
              <g transform="matrix(1,0,0,1,0,0)">
                <path fill="#ec7a08" stroke="none" id="ExclusiveGateway_1undefined" paint-order="stroke fill markers"
                      d=" M 0 0 M 298.2 269.2 C 298.2 272.59999999999997 297.09999999999997 275.3 294.7 277.7 L 277.7 294.7 C 275.3 297.09999999999997 272.59999999999997 298.2 269.2 298.2 C 265.8 298.2 263.09999999999997 297.09999999999997 260.7 294.7 L 224 258 L 187.2 294.8 C 184.79999999999998 297.2 182.1 298.3 178.7 298.3 C 175.29999999999998 298.3 172.6 297.2 170.2 294.8 L 153.2 277.8 C 150.79999999999998 275.40000000000003 149.7 272.7 149.7 269.3 C 149.7 265.90000000000003 150.79999999999998 263.2 153.2 260.8 L 190 224 L 153.2 187.2 C 150.79999999999998 184.79999999999998 149.7 182 149.7 178.7 C 149.7 175.29999999999998 150.79999999999998 172.5 153.2 170.2 L 170.2 153.2 C 172.6 150.79999999999998 175.29999999999998 149.7 178.7 149.7 C 182.1 149.7 184.79999999999998 150.79999999999998 187.2 153.2 L 224 190 L 260.8 153.2 C 263.2 150.79999999999998 265.90000000000003 149.7 269.3 149.7 C 272.7 149.7 275.40000000000003 150.79999999999998 277.8 153.2 L 294.8 170.2 C 297.2 172.5 298.3 175.29999999999998 298.3 178.7 C 298.3 182 297.2 184.79999999999998 294.8 187.2 L 258 224 L 294.8 260.8 C 297.1 263.1 298.2 265.9 298.2 269.2 Z"/>
              </g>
            </g>
          </g>
        </g>
        <g transform="matrix(1,0,0,1,-27.9921875,61)">
          <text fill="#000000" stroke="none" font-family="Open Sans" font-size="12pt" font-style="normal"
                font-weight="normal" text-decoration="normal" x="55.9921875" y="12" text-anchor="middle"
                dominant-baseline="alphabetic">Visa approved?
          </text>
        </g>
      </g>
      <g id="BusinessRuleTask_1" bpmn2nodeid="BusinessRuleTask_1" transform="matrix(1,0,0,1,221,123)">
        <g>
          <path fill="none" stroke="none"/>
        </g>
        <g transform="matrix(1,0,0,1,0,0)">
          <path fill="#ffffff" stroke="none" id="BusinessRuleTask_1?shapeType=BACKGROUND"
                paint-order="stroke fill markers"
                d=" M 2 0 L 154 0 L 154 0 A 2 2 0 0 1 156 2 L 156 67 L 156 67 A 2 2 0 0 1 154 69 L 2 69 L 2 69 A 2 2 0 0 1 0 67 L 0 2 L 0 2.0000000000000004 A 2 2 0 0 1 1.9999999999999996 0 Z"/>
        </g>
        <g transform="matrix(1,0,0,1,0,0)">
          <path fill="none" stroke="#000000" id="BusinessRuleTask_1?shapeType=BORDER&amp;renderType=STROKE"
                paint-order="fill stroke markers"
                d=" M 2 0 L 154 0 L 154 0 A 2 2 0 0 1 156 2 L 156 67 L 156 67 A 2 2 0 0 1 154 69 L 2 69 L 2 69 A 2 2 0 0 1 0 67 L 0 2 L 0 2.0000000000000004 A 2 2 0 0 1 1.9999999999999996 0 Z"
                stroke-miterlimit="10" stroke-width="1.5" stroke-dasharray=""/>
        </g>
        <g>
          <g transform="matrix(0.06,0,0,0.06,9.4,9.4)">
            <g transform="matrix(1,0,0,1,0,0)">
              <path fill="#393f44" stroke="none" id="BusinessRuleTask_1undefined" paint-order="stroke fill markers"
                    d=" M 0 0 M 128 344 L 128 296 C 128 293.7 127.2 291.8 125.8 290.2 C 124.39999999999999 288.59999999999997 122.39999999999999 288 120 288 L 40 288 C 37.7 288 35.8 288.8 34.2 290.2 C 32.60000000000001 291.59999999999997 32 293.7 32 296 L 32 344 C 32 346.3 32.8 348.2 34.2 349.8 C 35.60000000000001 351.40000000000003 37.6 352 40 352 L 120 352 C 122.3 352 124.2 351.2 125.8 349.8 C 127.39999999999999 348.40000000000003 128 346.3 128 344 Z M 0 0 M 128 248 L 128 200 C 128 197.7 127.2 195.8 125.8 194.2 C 124.39999999999999 192.59999999999997 122.39999999999999 192 120 192 L 40 192 C 37.7 192 35.8 192.8 34.2 194.2 C 32.60000000000001 195.59999999999997 32 197.7 32 200 L 32 248 C 32 250.3 32.8 252.2 34.2 253.8 C 35.60000000000001 255.40000000000003 37.6 256 40 256 L 120 256 C 122.3 256 124.2 255.2 125.8 253.8 C 127.39999999999999 252.40000000000003 128 250.3 128 248 Z M 0 0 M 376 352 C 378.3 352 380.2 351.2 381.8 349.8 C 383.40000000000003 348.40000000000003 384 346.40000000000003 384 344 L 384 296 C 384 293.7 383.2 291.8 381.8 290.2 C 380.40000000000003 288.59999999999997 378.40000000000003 288 376 288 L 168 288 C 165.7 288 163.8 288.8 162.2 290.2 C 160.59999999999997 291.59999999999997 160 293.59999999999997 160 296 L 160 344 C 160 346.3 160.8 348.2 162.2 349.8 C 163.59999999999997 351.40000000000003 165.6 352 168 352 L 376 352 Z M 0 0 M 128 152 L 128 104 C 128 101.7 127.2 99.8 125.8 98.2 C 124.39999999999999 96.60000000000001 122.3 96 120 96 L 40 96 C 37.7 96 35.8 96.8 34.2 98.2 C 32.60000000000001 99.60000000000001 32 101.7 32 104 L 32 152 C 32 154.3 32.8 156.2 34.2 157.8 C 35.60000000000001 159.40000000000003 37.6 160 40 160 L 120 160 C 122.3 160 124.2 159.2 125.8 157.8 C 127.39999999999999 156.40000000000003 128 154.3 128 152 Z M 0 0 M 376 256 C 378.3 256 380.2 255.2 381.8 253.8 C 383.40000000000003 252.40000000000003 384 250.4 384 248 L 384 200 C 384 197.7 383.2 195.8 381.8 194.2 C 380.40000000000003 192.59999999999997 378.40000000000003 192 376 192 L 168 192 C 165.7 192 163.8 192.8 162.2 194.2 C 160.59999999999997 195.59999999999997 160 197.6 160 200 L 160 248 C 160 250.3 160.8 252.2 162.2 253.8 C 163.59999999999997 255.40000000000003 165.6 256 168 256 L 376 256 Z M 0 0 M 376 160 C 378.3 160 380.2 159.2 381.8 157.8 C 383.40000000000003 156.40000000000003 384 154.4 384 152 L 384 104 C 384 101.7 383.2 99.8 381.8 98.2 C 380.40000000000003 96.60000000000001 378.3 96 376 96 L 168 96 C 165.7 96 163.8 96.8 162.2 98.2 C 160.59999999999997 99.60000000000001 160 101.60000000000001 160 104 L 160 152 C 160 154.3 160.8 156.2 162.2 157.8 C 163.59999999999997 159.40000000000003 165.6 160 168 160 L 376 160 Z M 0 0 M 416 72 L 416 344 C 416 355 412.1 364.4 404.2 372.2 C 396.29999999999995 380 387 384 376 384 L 40 384 C 29 384 19.6 380.1 11.8 372.2 C 4 364.29999999999995 0 355 0 344 L 0 72 C 0 61 3.9 51.6 11.8 43.8 C 19.700000000000003 35.99999999999999 29 32 40 32 L 376 32 C 387 32 396.4 35.9 404.2 43.8 C 412 51.699999999999996 416 61 416 72 Z"/>
            </g>
          </g>
        </g>
        <g transform="matrix(1,0,0,1,35,19.5)">
          <text fill="#000000" stroke="none" font-family="Open Sans" font-size="12pt" font-style="normal"
                font-weight="normal" text-decoration="normal" x="56.62890625" y="12" text-anchor="middle"
                dominant-baseline="alphabetic">Automatic visa
          </text>
          <text fill="#000000" stroke="none" font-family="Open Sans" font-size="12pt" font-style="normal"
                font-weight="normal" text-decoration="normal" x="56.62890625" y="27" text-anchor="middle"
                dominant-baseline="alphabetic">approvals
          </text>
        </g>
      </g>
      <g id="StartEvent_1" bpmn2nodeid="StartEvent_1" transform="matrix(1,0,0,1,95,130)">
        <g>
          <path fill="none" stroke="none"/>
        </g>
        <g transform="matrix(0.125,0,0,0.125,0,0)">
          <g transform="matrix(1,0,0,1,0,0)">
            <path fill="#e8fae6" stroke="none" id="StartEvent_1?shapeType=BACKGROUND" paint-order="stroke fill markers"
                  d=" M 0 0 M 444 224 C 444 263.9 434.2 300.8 414.4 334.5 C 394.7 368.2 368 394.9 334.4 414.5 C 300.79999999999995 434.1 263.9 444 224 444 C 184.10000000000002 444 147.2 434.2 113.5 414.4 C 79.8 394.7 53.1 368 33.5 334.4 C 13.899999999999999 300.79999999999995 4 263.9 4 224 C 4 184.10000000000002 13.8 147.2 33.6 113.5 C 53.400000000000006 79.80000000000001 80.1 53.1 113.6 33.5 C 147.1 13.899999999999999 184.1 4 224 4 C 263.9 4 300.8 13.8 334.5 33.6 C 368.2 53.400000000000006 394.9 80.1 414.5 113.6 C 434.1 147.1 444 184.1 444 224 Z"/>
          </g>
          <g>
            <g transform="matrix(1,0,0,1,0,0)">
              <g transform="matrix(1,0,0,1,0,0)">
                <path fill="#4aa241" stroke="none" id="StartEvent_1?shapeType=BORDER&amp;renderType=FILL"
                      paint-order="stroke fill markers"
                      d=" M 0 0 M 224 0 C 100.3 0 0 100.3 0 224 C 0 347.7 100.3 448 224 448 C 347.7 448 448 347.7 448 224 C 448 100.30000000000001 347.7 0 224 0 Z M 0 0 M 224 432 C 109.1 432 16 338.9 16 224 C 16 109.10000000000002 109.1 16 224 16 C 338.9 16 432 109.1 432 224 C 432 338.9 338.9 432 224 432 Z"/>
              </g>
            </g>
          </g>
          <g>
            <g transform="matrix(1,0,0,1,0,0)">
              <g transform="matrix(1,0,0,1,0,0)">
                <path fill="#4aa241" stroke="none" id="StartEvent_1undefined" paint-order="stroke fill markers"
                      d=" M 0 0 M 320.2 288.7 L 320.2 192.7 C 317.59999999999997 195.7 314.7 198.5 311.59999999999997 200.89999999999998 C 289.2 218.09999999999997 271.49999999999994 232.09999999999997 258.4 243.09999999999997 C 254.2 246.69999999999996 250.7 249.49999999999997 247.99999999999997 251.49999999999997 C 245.29999999999995 253.49999999999997 241.79999999999998 255.49999999999997 237.19999999999996 257.59999999999997 C 232.59999999999997 259.7 228.39999999999995 260.7 224.39999999999995 260.7 L 224.19999999999996 260.7 C 220.19999999999996 260.7 215.99999999999997 259.7 211.39999999999995 257.59999999999997 C 206.79999999999995 255.49999999999997 203.19999999999996 253.49999999999997 200.59999999999994 251.49999999999997 C 197.89999999999995 249.49999999999997 194.49999999999994 246.69999999999996 190.19999999999993 243.09999999999997 C 177.09999999999994 232.09999999999997 159.29999999999993 217.99999999999997 136.99999999999994 200.89999999999998 C 133.89999999999995 198.39999999999998 131.09999999999994 195.7 128.39999999999995 192.7 L 128.39999999999995 288.7 C 128.39999999999995 289.8 128.79999999999995 290.7 129.59999999999994 291.5 C 130.39999999999992 292.3 131.39999999999995 292.7 132.39999999999995 292.7 L 316.4 292.7 C 317.5 292.7 318.4 292.3 319.2 291.5 C 319.9 290.7 320.2 289.8 320.2 288.7 Z M 0 0 M 320.2 152.7 C 320.2 151.6 319.8 150.7 319 149.89999999999998 C 318.2 149.09999999999997 317.3 148.7 316.2 148.7 L 316.2 148.7 L 132.2 148.7 C 131.1 148.7 130.2 149.1 129.39999999999998 149.89999999999998 C 128.59999999999997 150.7 128.2 151.59999999999997 128.2 152.7 C 128.2 166.7 134.29999999999998 178.5 146.6 188.2 C 162.7 200.89999999999998 179.39999999999998 214.1 196.7 227.79999999999998 C 197.2 228.2 198.6 229.49999999999997 201.1 231.49999999999997 C 203.6 233.59999999999997 205.5 235.09999999999997 206.9 236.19999999999996 C 208.3 237.29999999999995 210.1 238.59999999999997 212.5 240.09999999999997 C 214.9 241.59999999999997 216.9 242.79999999999995 218.8 243.49999999999997 C 220.70000000000002 244.29999999999998 222.5 244.59999999999997 224.20000000000002 244.59999999999997 L 224.4 244.59999999999997 C 226 244.59999999999997 227.8 244.19999999999996 229.8 243.49999999999997 C 231.8 242.79999999999998 233.8 241.59999999999997 236.10000000000002 240.09999999999997 C 238.40000000000003 238.59999999999997 240.3 237.19999999999996 241.70000000000002 236.19999999999996 C 243.10000000000002 235.09999999999997 245.10000000000002 233.59999999999997 247.50000000000003 231.49999999999997 C 249.90000000000003 229.39999999999998 251.40000000000003 228.29999999999998 251.90000000000003 227.79999999999998 C 269.3 213.99999999999997 285.90000000000003 200.89999999999998 302.00000000000006 188.2 C 306.50000000000006 184.6 310.70000000000005 179.79999999999998 314.6000000000001 173.7 C 318.50000000000006 167.7 320.4000000000001 162.2 320.4000000000001 157.29999999999998 L 320.4000000000001 154.2 L 320.4000000000001 152.7 Z M 0 0 M 336.2 152.7 L 336.2 288.7 C 336.2 294.2 334.3 298.9 330.3 302.8 C 326.40000000000003 306.7 321.7 308.7 316.2 308.7 L 132.2 308.7 C 126.69999999999999 308.7 121.99999999999999 306.7 118.1 302.8 C 114.19999999999999 298.90000000000003 112.19999999999999 294.2 112.19999999999999 288.7 L 112.19999999999999 152.7 C 112.19999999999999 147.2 114.19999999999999 142.5 118.1 138.6 C 122 134.7 126.69999999999999 132.7 132.2 132.7 L 316.2 132.7 C 321.7 132.7 326.4 134.6 330.3 138.6 C 334.2 142.6 336.2 147.2 336.2 152.7 Z"/>
              </g>
            </g>
          </g>
        </g>
        <g transform="matrix(1,0,0,1,-18.4375,61)">
          <text fill="#000000" stroke="none" font-family="Open Sans" font-size="12pt" font-style="normal"
                font-weight="normal" text-decoration="normal" x="46.4375" y="12" text-anchor="middle"
                dominant-baseline="alphabetic">StartProcess
          </text>
        </g>
      </g>
      <g id="SequenceFlow_1" bpmn2nodeid="SequenceFlow_1">
        <g>
          <path fill="none" stroke="#000000" paint-order="fill stroke markers"
                d=" M 151 157.85714285714286 L 206.00019522734226 157.57652961618703" stroke-miterlimit="10"
                stroke-dasharray=""/>
        </g>
        <g transform="matrix(1,0,0,1,151,157.85714285714286)"/>
        <g transform="matrix(0.005101974412468843,0.9999869848438501,-0.9999869848438501,0.005101974412468843,220.97449012793766,152.50006507578075)">
          <path fill="#000000" stroke="#000000" paint-order="fill stroke markers" d=" M 10 15 L 0 15 L 5 0 Z"
                stroke-miterlimit="10" stroke-dasharray=""/>
        </g>
        <g transform="matrix(1,0,0,1,151.0510197441247,147.67870158013295)"/>
      </g>
      <g id="SequenceFlow_2" bpmn2nodeid="SequenceFlow_2">
        <g>
          <path fill="none" stroke="#000000" paint-order="fill stroke markers"
                d=" M 377 157.5 L 448.00025350898693 157.91279217156386" stroke-miterlimit="10" stroke-dasharray=""/>
        </g>
        <g transform="matrix(1,0,0,1,377,157.5)"/>
        <g transform="matrix(-0.005813855229075554,0.9999830994008726,-0.9999830994008726,-0.005813855229075554,463.0290692761454,153.00008450299563)">
          <path fill="#000000" stroke="#000000" paint-order="fill stroke markers" d=" M 10 15 L 0 15 L 5 0 Z"
                stroke-miterlimit="10" stroke-dasharray=""/>
        </g>
        <g transform="matrix(1,0,0,1,377.05813855229076,147.75016900599127)"/>
      </g>
      <g id="SequenceFlow_4" bpmn2nodeid="SequenceFlow_4">
        <g>
          <path fill="none" stroke="#000000" paint-order="fill stroke markers" d=" M 491 186 L 491 302.5 L 537 302.5"
                stroke-miterlimit="10" stroke-dasharray=""/>
        </g>
        <g transform="matrix(1,0,0,1,491,186)"/>
        <g transform="matrix(6.123233995736766e-17,1,-1,6.123233995736766e-17,552,297.5)">
          <path fill="#000000" stroke="#000000" paint-order="fill stroke markers" d=" M 10 15 L 0 15 L 5 0 Z"
                stroke-miterlimit="10" stroke-dasharray=""/>
        </g>
        <g transform="matrix(1,0,0,1,501,233.25)">
          <text fill="#000000" stroke="none" font-family="Open Sans" font-size="10pt" font-style="normal"
                font-weight="normal" text-decoration="normal" x="0" y="8.8" text-anchor="start"
                dominant-baseline="alphabetic">No
          </text>
        </g>
      </g>
      <g id="SequenceFlow_7" bpmn2nodeid="SequenceFlow_7">
        <g>
          <path fill="none" stroke="#000000" paint-order="fill stroke markers"
                d=" M 698 302.5 L 733.0007499437547 302.85000749943754" stroke-miterlimit="10" stroke-dasharray=""/>
        </g>
        <g transform="matrix(1,0,0,1,698,302.5)"/>
        <g transform="matrix(-0.009999500037497317,0.9999500037496876,-0.9999500037496876,-0.009999500037497317,748.0499975001875,298.00024998125156)">
          <path fill="#000000" stroke="#000000" paint-order="fill stroke markers" d=" M 10 15 L 0 15 L 5 0 Z"
                stroke-miterlimit="10" stroke-dasharray=""/>
        </g>
        <g transform="matrix(1,0,0,1,698.099995000375,292.7504999625031)"/>
      </g>
      <g id="SequenceFlow_9" bpmn2nodeid="SequenceFlow_9">
        <g>
          <path fill="none" stroke="#000000" paint-order="fill stroke markers" d=" M 776 275 L 776 201"
                stroke-miterlimit="10" stroke-dasharray=""/>
        </g>
        <g transform="matrix(1,0,0,1,776,275)"/>
        <g transform="matrix(1,0,0,1,771,186)">
          <path fill="#000000" stroke="#000000" paint-order="fill stroke markers" d=" M 10 15 L 0 15 L 5 0 Z"
                stroke-miterlimit="10" stroke-dasharray=""/>
        </g>
        <g transform="matrix(1,0,0,1,786,219.5)">
          <text fill="#000000" stroke="none" font-family="Open Sans" font-size="10pt" font-style="normal"
                font-weight="normal" text-decoration="normal" x="0" y="8.8" text-anchor="start"
                dominant-baseline="alphabetic">Yes
          </text>
        </g>
      </g>
      <g id="SequenceFlow_6" bpmn2nodeid="SequenceFlow_6">
        <g>
          <path fill="none" stroke="#000000" paint-order="fill stroke markers" d=" M 804 158 L 893 158"
                stroke-miterlimit="10" stroke-dasharray=""/>
        </g>
        <g transform="matrix(1,0,0,1,804,158)"/>
        <g transform="matrix(6.123233995736766e-17,1,-1,6.123233995736766e-17,908,153)">
          <path fill="#000000" stroke="#000000" paint-order="fill stroke markers" d=" M 10 15 L 0 15 L 5 0 Z"
                stroke-miterlimit="10" stroke-dasharray=""/>
        </g>
        <g transform="matrix(1,0,0,1,804,148)"/>
      </g>
      <g id="SequenceFlow_8" bpmn2nodeid="SequenceFlow_8">
        <g>
          <path fill="none" stroke="#000000" paint-order="fill stroke markers" d=" M 804 303 L 893 303"
                stroke-miterlimit="10" stroke-dasharray=""/>
        </g>
        <g transform="matrix(1,0,0,1,804,303)"/>
        <g transform="matrix(6.123233995736766e-17,1,-1,6.123233995736766e-17,908,298)">
          <path fill="#000000" stroke="#000000" paint-order="fill stroke markers" d=" M 10 15 L 0 15 L 5 0 Z"
                stroke-miterlimit="10" stroke-dasharray=""/>
        </g>
        <g transform="matrix(1,0,0,1,804,282)">
          <text fill="#000000" stroke="none" font-family="Open Sans" font-size="10pt" font-style="normal"
                font-weight="normal" text-decoration="normal" x="0" y="8.8" text-anchor="start"
                dominant-baseline="alphabetic">No
          </text>
        </g>
      </g>
      <g id="SequenceFlow_3" bpmn2nodeid="SequenceFlow_3">
        <g>
          <path fill="none" stroke="#000000" paint-order="fill stroke markers" d=" M 519 158 L 733 158"
                stroke-miterlimit="10" stroke-dasharray=""/>
        </g>
        <g transform="matrix(1,0,0,1,519,158)"/>
        <g transform="matrix(6.123233995736766e-17,1,-1,6.123233995736766e-17,748,153)">
          <path fill="#000000" stroke="#000000" paint-order="fill stroke markers" d=" M 10 15 L 0 15 L 5 0 Z"
                stroke-miterlimit="10" stroke-dasharray=""/>
        </g>
        <g transform="matrix(1,0,0,1,533.5,137)">
          <text fill="#000000" stroke="none" font-family="Open Sans" font-size="10pt" font-style="normal"
                font-weight="normal" text-decoration="normal" x="0" y="8.8" text-anchor="start"
                dominant-baseline="alphabetic">Yes
          </text>
        </g>
      </g>
      <g transform="matrix(1,0,0,1,908,275)"/>
      <g transform="matrix(1,0,0,1,748,275)"/>
      <g transform="matrix(1,0,0,1,748,130)"/>
      <g transform="matrix(1,0,0,1,552,272)"/>
      <g transform="matrix(1,0,0,1,908,130)"/>
      <g transform="matrix(1,0,0,1,463,130)"/>
      <g transform="matrix(1,0,0,1,221,123)"/>
      <g transform="matrix(1,0,0,1,95,130)"/>
    </g>
  </g>
</svg>