<?xml version="1.0" encoding="UTF-8" standalone="no"?><svg xmlns="http://www.w3.org/2000/svg" xmlns:xlink="http://www.w3.org/1999/xlink" contentScriptType="application/ecmascript" contentStyleType="text/css" height="733px" preserveAspectRatio="none" style="width:846px;height:733px;" version="1.1" viewBox="0 0 846 733" width="846px" zoomAndPan="magnify"><defs><filter height="300%" id="f3sm5nq" width="300%" x="-1" y="-1"><feGaussianBlur result="blurOut" stdDeviation="2.0"/><feColorMatrix in="blurOut" result="blurOut2" type="matrix" values="0 0 0 0 0 0 0 0 0 0 0 0 0 0 0 0 0 0 .4 0"/><feOffset dx="4.0" dy="4.0" in="blurOut2" result="blurOut3"/><feBlend in="SourceGraphic" in2="blurOut3" mode="normal"/></filter></defs><g><rect fill="#FFFFFF" filter="url(#f3sm5nq)" height="644.2969" rx="12.5" ry="12.5" style="stroke: #000000; stroke-width: 1.5;" width="833" x="6" y="8"/><rect fill="#FFFFFF" height="612" rx="12.5" ry="12.5" style="stroke: #FFFFFF; stroke-width: 1.0;" width="827" x="9" y="37.2969"/><line style="stroke: #000000; stroke-width: 1.5;" x1="6" x2="839" y1="34.2969" y2="34.2969"/><text fill="#000000" font-family="sans-serif" font-size="14" lengthAdjust="spacingAndGlyphs" textLength="308" x="268.5" y="25.9951">Order Fulfilment Workflow Saga example v1.0</text><rect fill="#F8F8FF" filter="url(#f3sm5nq)" height="78.2031" rx="12.5" ry="12.5" style="stroke: #BADA55; stroke-width: 1.5;" width="157" x="192" y="161.2969"/><line style="stroke: #BADA55; stroke-width: 1.5;" x1="192" x2="349" y1="187.5938" y2="187.5938"/><text fill="#000000" font-family="sans-serif" font-size="14" lengthAdjust="spacingAndGlyphs" textLength="91" x="225" y="179.292">reserveStock</text><text fill="#000000" font-family="sans-serif" font-size="12" lengthAdjust="spacingAndGlyphs" textLength="137" x="197" y="203.7324">Type: Operation State</text><text fill="#000000" font-family="sans-serif" font-size="12" lengthAdjust="spacingAndGlyphs" textLength="108" x="197" y="217.7012">Action mode: null</text><text fill="#000000" font-family="sans-serif" font-size="12" lengthAdjust="spacingAndGlyphs" textLength="114" x="197" y="231.6699">Num. of actions: 1</text><rect fill="#F8F8FF" filter="url(#f3sm5nq)" height="78.2031" rx="12.5" ry="12.5" style="stroke: #BADA55; stroke-width: 1.5;" width="157" x="192" y="275.2969"/><line style="stroke: #BADA55; stroke-width: 1.5;" x1="192" x2="349" y1="301.5938" y2="301.5938"/><text fill="#000000" font-family="sans-serif" font-size="14" lengthAdjust="spacingAndGlyphs" textLength="116" x="212.5" y="293.292">processPayment</text><text fill="#000000" font-family="sans-serif" font-size="12" lengthAdjust="spacingAndGlyphs" textLength="137" x="197" y="317.7324">Type: Operation State</text><text fill="#000000" font-family="sans-serif" font-size="12" lengthAdjust="spacingAndGlyphs" textLength="108" x="197" y="331.7012">Action mode: null</text><text fill="#000000" font-family="sans-serif" font-size="12" lengthAdjust="spacingAndGlyphs" textLength="114" x="197" y="345.6699">Num. of actions: 1</text><rect fill="#F8F8FF" filter="url(#f3sm5nq)" height="78.2031" rx="12.5" ry="12.5" style="stroke: #BADA55; stroke-width: 1.5;" width="157" x="192" y="389.2969"/><line style="stroke: #BADA55; stroke-width: 1.5;" x1="192" x2="349" y1="415.5938" y2="415.5938"/><text fill="#000000" font-family="sans-serif" font-size="14" lengthAdjust="spacingAndGlyphs" textLength="124" x="208.5" y="407.292">scheduleShipping</text><text fill="#000000" font-family="sans-serif" font-size="12" lengthAdjust="spacingAndGlyphs" textLength="137" x="197" y="431.7324">Type: Operation State</text><text fill="#000000" font-family="sans-serif" font-size="12" lengthAdjust="spacingAndGlyphs" textLength="108" x="197" y="445.7012">Action mode: null</text><text fill="#000000" font-family="sans-serif" font-size="12" lengthAdjust="spacingAndGlyphs" textLength="114" x="197" y="459.6699">Num. of actions: 1</text><rect fill="#F8F8FF" filter="url(#f3sm5nq)" height="50.2656" rx="12.5" ry="12.5" style="stroke: #1E5F74; stroke-width: 1.5;" width="129" x="31" y="403.2969"/><line style="stroke: #1E5F74; stroke-width: 1.5;" x1="31" x2="160" y1="429.5938" y2="429.5938"/><text fill="#000000" font-family="sans-serif" font-size="14" lengthAdjust="spacingAndGlyphs" textLength="83" x="54" y="421.292">ServiceError</text><text fill="#000000" font-family="sans-serif" font-size="12" lengthAdjust="spacingAndGlyphs" textLength="109" x="36" y="445.7324">Type: Inject State</text><rect fill="#F8F8FF" filter="url(#f3sm5nq)" height="78.2031" rx="12.5" ry="12.5" style="stroke: #BADA55; stroke-width: 1.5;" width="157" x="299" y="47.2969"/><line style="stroke: #BADA55; stroke-width: 1.5;" x1="299" x2="456" y1="73.5938" y2="73.5938"/><text fill="#000000" font-family="sans-serif" font-size="14" lengthAdjust="spacingAndGlyphs" textLength="86" x="334.5" y="65.292">CancelStock</text><text fill="#000000" font-family="sans-serif" font-size="12" lengthAdjust="spacingAndGlyphs" textLength="137" x="304" y="89.7324">Type: Operation State</text><text fill="#000000" font-family="sans-serif" font-size="12" lengthAdjust="spacingAndGlyphs" textLength="108" x="304" y="103.7012">Action mode: null</text><text fill="#000000" font-family="sans-serif" font-size="12" lengthAdjust="spacingAndGlyphs" textLength="114" x="304" y="117.6699">Num. of actions: 1</text><rect fill="#F8F8FF" filter="url(#f3sm5nq)" height="78.2031" rx="12.5" ry="12.5" style="stroke: #BADA55; stroke-width: 1.5;" width="157" x="474" y="47.2969"/><line style="stroke: #BADA55; stroke-width: 1.5;" x1="474" x2="631" y1="73.5938" y2="73.5938"/><text fill="#000000" font-family="sans-serif" font-size="14" lengthAdjust="spacingAndGlyphs" textLength="107" x="499" y="65.292">CancelPayment</text><text fill="#000000" font-family="sans-serif" font-size="12" lengthAdjust="spacingAndGlyphs" textLength="137" x="479" y="89.7324">Type: Operation State</text><text fill="#000000" font-family="sans-serif" font-size="12" lengthAdjust="spacingAndGlyphs" textLength="108" x="479" y="103.7012">Action mode: null</text><text fill="#000000" font-family="sans-serif" font-size="12" lengthAdjust="spacingAndGlyphs" textLength="114" x="479" y="117.6699">Num. of actions: 1</text><rect fill="#F8F8FF" filter="url(#f3sm5nq)" height="78.2031" rx="12.5" ry="12.5" style="stroke: #BADA55; stroke-width: 1.5;" width="157" x="649" y="47.2969"/><line style="stroke: #BADA55; stroke-width: 1.5;" x1="649" x2="806" y1="73.5938" y2="73.5938"/><text fill="#000000" font-family="sans-serif" font-size="14" lengthAdjust="spacingAndGlyphs" textLength="107" x="674" y="65.292">CancelShipping</text><text fill="#000000" font-family="sans-serif" font-size="12" lengthAdjust="spacingAndGlyphs" textLength="137" x="654" y="89.7324">Type: Operation State</text><text fill="#000000" font-family="sans-serif" font-size="12" lengthAdjust="spacingAndGlyphs" textLength="108" x="654" y="103.7012">Action mode: null</text><text fill="#000000" font-family="sans-serif" font-size="12" lengthAdjust="spacingAndGlyphs" textLength="114" x="654" y="117.6699">Num. of actions: 1</text><rect fill="#F8F8FF" filter="url(#f3sm5nq)" height="78.2031" rx="12.5" ry="12.5" style="stroke: #BADA55; stroke-width: 1.5;" width="157" x="17" y="503.2969"/><line style="stroke: #BADA55; stroke-width: 1.5;" x1="17" x2="174" y1="529.5938" y2="529.5938"/><text fill="#000000" font-family="sans-serif" font-size="14" lengthAdjust="spacingAndGlyphs" textLength="79" x="56" y="521.292">FailedOrder</text><text fill="#000000" font-family="sans-serif" font-size="12" lengthAdjust="spacingAndGlyphs" textLength="137" x="22" y="545.7324">Type: Operation State</text><text fill="#000000" font-family="sans-serif" font-size="12" lengthAdjust="spacingAndGlyphs" textLength="108" x="22" y="559.7012">Action mode: null</text><text fill="#000000" font-family="sans-serif" font-size="12" lengthAdjust="spacingAndGlyphs" textLength="114" x="22" y="573.6699">Num. of actions: 1</text><rect fill="#F8F8FF" filter="url(#f3sm5nq)" height="78.2031" rx="12.5" ry="12.5" style="stroke: #BADA55; stroke-width: 1.5;" width="157" x="192" y="503.2969"/><line style="stroke: #BADA55; stroke-width: 1.5;" x1="192" x2="349" y1="529.5938" y2="529.5938"/><text fill="#000000" font-family="sans-serif" font-size="14" lengthAdjust="spacingAndGlyphs" textLength="106" x="217.5" y="521.292">CompleteOrder</text><text fill="#000000" font-family="sans-serif" font-size="12" lengthAdjust="spacingAndGlyphs" textLength="137" x="197" y="545.7324">Type: Operation State</text><text fill="#000000" font-family="sans-serif" font-size="12" lengthAdjust="spacingAndGlyphs" textLength="108" x="197" y="559.7012">Action mode: null</text><text fill="#000000" font-family="sans-serif" font-size="12" lengthAdjust="spacingAndGlyphs" textLength="114" x="197" y="573.6699">Num. of actions: 1</text><ellipse cx="270.5" cy="86.2969" fill="#008000" filter="url(#f3sm5nq)" rx="10" ry="10" style="stroke: none; stroke-width: 1.0;"/><ellipse cx="182.5" cy="627.2969" fill="none" filter="url(#f3sm5nq)" rx="10" ry="10" style="stroke: #FFA500; stroke-width: 1.0;"/><ellipse cx="183" cy="627.7969" fill="#FFA500" rx="6" ry="6" style="stroke: none; stroke-width: 1.0;"/><path d="M270.5,96.4669 C270.5,109.4769 270.5,134.1569 270.5,156.0769 " fill="none" style="stroke: #000000; stroke-width: 1.0;"/><polygon fill="#000000" points="270.5,161.2869,274.5,152.2869,270.5,156.2869,266.5,152.2869,270.5,161.2869" style="stroke: #000000; stroke-width: 1.0;"/><path d="M270.5,239.5269 C270.5,249.3469 270.5,259.9869 270.5,270.0369 " fill="none" style="stroke: #000000; stroke-width: 1.0;"/><polygon fill="#000000" points="270.5,275.2369,274.5,266.2369,270.5,270.2369,266.5,266.2369,270.5,275.2369" style="stroke: #000000; stroke-width: 1.0;"/><path d="M270.5,353.5269 C270.5,363.3469 270.5,373.9869 270.5,384.0369 " fill="none" style="stroke: #000000; stroke-width: 1.0;"/><polygon fill="#000000" points="270.5,389.2369,274.5,380.2369,270.5,384.2369,266.5,380.2369,270.5,389.2369" style="stroke: #000000; stroke-width: 1.0;"/><path d="M270.5,467.5269 C270.5,477.3469 270.5,487.9869 270.5,498.0369 " fill="none" style="stroke: #000000; stroke-width: 1.0;"/><polygon fill="#000000" points="270.5,503.2369,274.5,494.2369,270.5,498.2369,266.5,494.2369,270.5,503.2369" style="stroke: #000000; stroke-width: 1.0;"/><path d="M95.5,453.3269 C95.5,466.3769 95.5,482.9069 95.5,498.1169 " fill="none" style="stroke: #000000; stroke-width: 1.0;"/><polygon fill="#000000" points="95.5,503.2069,99.5,494.2069,95.5,498.2069,91.5,494.2069,95.5,503.2069" style="stroke: #000000; stroke-width: 1.0;"/><path d="M135.44,581.3969 C148.88,594.2269 162.78,607.4869 171.96,616.2369 " fill="none" style="stroke: #000000; stroke-width: 1.0;"/><polygon fill="#000000" points="175.59,619.6969,171.8511,610.5853,171.9768,616.2408,166.3213,616.3664,175.59,619.6969" style="stroke: #000000; stroke-width: 1.0;"/><path d="M230.11,581.3969 C216.51,594.2269 202.44,607.4869 193.16,616.2369 " fill="none" style="stroke: #000000; stroke-width: 1.0;"/><polygon fill="#000000" points="189.49,619.6969,198.7853,616.4414,193.131,616.2701,193.3023,610.6158,189.49,619.6969" style="stroke: #000000; stroke-width: 1.0;"/><rect fill="#FFFFFF" height="62.8906" rx="5" ry="5" style="stroke: #FFFFFF; stroke-width: 1.0;" width="615" x="120.5" y="670"/><text fill="#000000" font-family="sans-serif" font-size="14" lengthAdjust="spacingAndGlyphs" textLength="216" x="126.5" y="687.9951">State Types and Border Colors:</text><text fill="#000000" font-family="sans-serif" font-size="14" font-weight="bold" lengthAdjust="spacingAndGlyphs" textLength="44" x="131.5" y="706.292">Event</text><text fill="#000000" font-family="sans-serif" font-size="14" font-weight="bold" lengthAdjust="spacingAndGlyphs" textLength="78" x="185.5" y="706.292">Operation</text><text fill="#000000" font-family="sans-serif" font-size="14" font-weight="bold" lengthAdjust="spacingAndGlyphs" textLength="53" x="273.5" y="706.292">Switch</text><text fill="#000000" font-family="sans-serif" font-size="14" font-weight="bold" lengthAdjust="spacingAndGlyphs" textLength="43" x="336.5" y="706.292">Delay</text><text fill="#000000" font-family="sans-serif" font-size="14" font-weight="bold" lengthAdjust="spacingAndGlyphs" textLength="57" x="389.5" y="706.292">Parallel</text><text fill="#000000" font-family="sans-serif" font-size="14" font-weight="bold" lengthAdjust="spacingAndGlyphs" textLength="67" x="456.5" y="706.292">SubFlow</text><text fill="#000000" font-family="sans-serif" font-size="14" font-weight="bold" lengthAdjust="spacingAndGlyphs" textLength="43" x="533.5" y="706.292">Inject</text><text fill="#000000" font-family="sans-serif" font-size="14" font-weight="bold" lengthAdjust="spacingAndGlyphs" textLength="63" x="586.5" y="706.292">ForEach</text><text fill="#000000" font-family="sans-serif" font-size="14" font-weight="bold" lengthAdjust="spacingAndGlyphs" textLength="65" x="659.5" y="706.292">CallBack</text><rect fill="#7FE5F0" height="16.2969" style="stroke: none; stroke-width: 1.0;" width="54" x="126.5" y="709.5938"/><text fill="#000000" font-family="sans-serif" font-size="14" lengthAdjust="spacingAndGlyphs" textLength="0" x="130.5" y="722.5889"/><rect fill="#BADA55" height="16.2969" style="stroke: none; stroke-width: 1.0;" width="88" x="180.5" y="709.5938"/><text fill="#000000" font-family="sans-serif" font-size="14" lengthAdjust="spacingAndGlyphs" textLength="0" x="184.5" y="722.5889"/><rect fill="#92A0F2" height="16.2969" style="stroke: none; stroke-width: 1.0;" width="63" x="268.5" y="709.5938"/><text fill="#000000" font-family="sans-serif" font-size="14" lengthAdjust="spacingAndGlyphs" textLength="0" x="272.5" y="722.5889"/><rect fill="#B83B5E" height="16.2969" style="stroke: none; stroke-width: 1.0;" width="53" x="331.5" y="709.5938"/><text fill="#000000" font-family="sans-serif" font-size="14" lengthAdjust="spacingAndGlyphs" textLength="0" x="335.5" y="722.5889"/><rect fill="#6A2C70" height="16.2969" style="stroke: none; stroke-width: 1.0;" width="67" x="384.5" y="709.5938"/><text fill="#000000" font-family="sans-serif" font-size="14" lengthAdjust="spacingAndGlyphs" textLength="0" x="388.5" y="722.5889"/><rect fill="#87753C" height="16.2969" style="stroke: none; stroke-width: 1.0;" width="77" x="451.5" y="709.5938"/><text fill="#000000" font-family="sans-serif" font-size="14" lengthAdjust="spacingAndGlyphs" textLength="0" x="455.5" y="722.5889"/><rect fill="#1E5F74" height="16.2969" style="stroke: none; stroke-width: 1.0;" width="53" x="528.5" y="709.5938"/><text fill="#000000" font-family="sans-serif" font-size="14" lengthAdjust="spacingAndGlyphs" textLength="0" x="532.5" y="722.5889"/><rect fill="#931A25" height="16.2969" style="stroke: none; stroke-width: 1.0;" width="73" x="581.5" y="709.5938"/><text fill="#000000" font-family="sans-serif" font-size="14" lengthAdjust="spacingAndGlyphs" textLength="0" x="585.5" y="722.5889"/><rect fill="#FFCB8E" height="16.2969" style="stroke: none; stroke-width: 1.0;" width="75" x="654.5" y="709.5938"/><text fill="#000000" font-family="sans-serif" font-size="14" lengthAdjust="spacingAndGlyphs" textLength="0" x="658.5" y="722.5889"/><line style="stroke: #000000; stroke-width: 1.0;" x1="126.5" x2="729.5" y1="693.2969" y2="693.2969"/><line style="stroke: #000000; stroke-width: 1.0;" x1="126.5" x2="729.5" y1="709.5938" y2="709.5938"/><line style="stroke: #000000; stroke-width: 1.0;" x1="126.5" x2="729.5" y1="725.8906" y2="725.8906"/><line style="stroke: #000000; stroke-width: 1.0;" x1="126.5" x2="126.5" y1="693.2969" y2="725.8906"/><line style="stroke: #000000; stroke-width: 1.0;" x1="180.5" x2="180.5" y1="693.2969" y2="725.8906"/><line style="stroke: #000000; stroke-width: 1.0;" x1="268.5" x2="268.5" y1="693.2969" y2="725.8906"/><line style="stroke: #000000; stroke-width: 1.0;" x1="331.5" x2="331.5" y1="693.2969" y2="725.8906"/><line style="stroke: #000000; stroke-width: 1.0;" x1="384.5" x2="384.5" y1="693.2969" y2="725.8906"/><line style="stroke: #000000; stroke-width: 1.0;" x1="451.5" x2="451.5" y1="693.2969" y2="725.8906"/><line style="stroke: #000000; stroke-width: 1.0;" x1="528.5" x2="528.5" y1="693.2969" y2="725.8906"/><line style="stroke: #000000; stroke-width: 1.0;" x1="581.5" x2="581.5" y1="693.2969" y2="725.8906"/><line style="stroke: #000000; stroke-width: 1.0;" x1="654.5" x2="654.5" y1="693.2969" y2="725.8906"/><line style="stroke: #000000; stroke-width: 1.0;" x1="729.5" x2="729.5" y1="693.2969" y2="725.8906"/></g></svg>