<?xml version="1.0" encoding="UTF-8" standalone="no"?><svg xmlns="http://www.w3.org/2000/svg" xmlns:xlink="http://www.w3.org/1999/xlink" contentScriptType="application/ecmascript" contentStyleType="text/css" height="553px" preserveAspectRatio="none" style="width:624px;height:553px;" version="1.1" viewBox="0 0 624 553" width="624px" zoomAndPan="magnify"><defs><filter height="300%" id="f2fu8lx" width="300%" x="-1" y="-1"><feGaussianBlur result="blurOut" stdDeviation="2.0"/><feColorMatrix in="blurOut" result="blurOut2" type="matrix" values="0 0 0 0 0 0 0 0 0 0 0 0 0 0 0 0 0 0 .4 0"/><feOffset dx="4.0" dy="4.0" in="blurOut2" result="blurOut3"/><feBlend in="SourceGraphic" in2="blurOut3" mode="normal"/></filter></defs><g><rect fill="#FFFFFF" filter="url(#f2fu8lx)" height="464.2969" rx="12.5" ry="12.5" style="stroke: #000000; stroke-width: 1.5;" width="367" x="126.5" y="8"/><rect fill="#FFFFFF" height="432" rx="12.5" ry="12.5" style="stroke: #FFFFFF; stroke-width: 1.0;" width="361" x="129.5" y="37.2969"/><line style="stroke: #000000; stroke-width: 1.5;" x1="126.5" x2="493.5" y1="34.2969" y2="34.2969"/><text fill="#000000" font-family="sans-serif" font-size="14" lengthAdjust="spacingAndGlyphs" textLength="142" x="239" y="25.9951">HandleBackend v1.0</text><rect fill="#F8F8FF" filter="url(#f2fu8lx)" height="78.2031" rx="12.5" ry="12.5" style="stroke: #92A0F2; stroke-width: 1.5;" width="190" x="228.5" y="104.2969"/><line style="stroke: #92A0F2; stroke-width: 1.5;" x1="228.5" x2="418.5" y1="130.5938" y2="130.5938"/><text fill="#000000" font-family="sans-serif" font-size="14" lengthAdjust="spacingAndGlyphs" textLength="105" x="271" y="122.292">CheckBackend</text><text fill="#000000" font-family="sans-serif" font-size="12" lengthAdjust="spacingAndGlyphs" textLength="115" x="233.5" y="146.7324">Type: Switch State</text><text fill="#000000" font-family="sans-serif" font-size="12" lengthAdjust="spacingAndGlyphs" textLength="170" x="233.5" y="160.7012">Condition type: data-based</text><text fill="#000000" font-family="sans-serif" font-size="12" lengthAdjust="spacingAndGlyphs" textLength="133" x="233.5" y="174.6699">Num. of conditions: 2</text><rect fill="#F8F8FF" filter="url(#f2fu8lx)" height="50.2656" rx="12.5" ry="12.5" style="stroke: #1E5F74; stroke-width: 1.5;" width="150" x="137.5" y="235.2969"/><line style="stroke: #1E5F74; stroke-width: 1.5;" x1="137.5" x2="287.5" y1="261.5938" y2="261.5938"/><text fill="#000000" font-family="sans-serif" font-size="14" lengthAdjust="spacingAndGlyphs" textLength="130" x="147.5" y="253.292">InjectBackendData</text><text fill="#000000" font-family="sans-serif" font-size="12" lengthAdjust="spacingAndGlyphs" textLength="109" x="142.5" y="277.7324">Type: Inject State</text><rect fill="#F8F8FF" filter="url(#f2fu8lx)" height="78.2031" rx="12.5" ry="12.5" style="stroke: #BADA55; stroke-width: 1.5;" width="157" x="251" y="322.2969"/><line style="stroke: #BADA55; stroke-width: 1.5;" x1="251" x2="408" y1="348.5938" y2="348.5938"/><text fill="#000000" font-family="sans-serif" font-size="14" lengthAdjust="spacingAndGlyphs" textLength="109" x="275" y="340.292">HandleBackend</text><text fill="#000000" font-family="sans-serif" font-size="12" lengthAdjust="spacingAndGlyphs" textLength="137" x="256" y="364.7324">Type: Operation State</text><text fill="#000000" font-family="sans-serif" font-size="12" lengthAdjust="spacingAndGlyphs" textLength="108" x="256" y="378.7012">Action mode: null</text><text fill="#000000" font-family="sans-serif" font-size="12" lengthAdjust="spacingAndGlyphs" textLength="114" x="256" y="392.6699">Num. of actions: 2</text><ellipse cx="323.5" cy="57.2969" fill="#008000" filter="url(#f2fu8lx)" rx="10" ry="10" style="stroke: none; stroke-width: 1.0;"/><ellipse cx="401.5" cy="447.2969" fill="none" filter="url(#f2fu8lx)" rx="10" ry="10" style="stroke: #FFA500; stroke-width: 1.0;"/><ellipse cx="402" cy="447.7969" fill="#FFA500" rx="6" ry="6" style="stroke: none; stroke-width: 1.0;"/><path d="M323.5,67.6069 C323.5,75.3769 323.5,87.0669 323.5,98.8969 " fill="none" style="stroke: #000000; stroke-width: 1.0;"/><polygon fill="#000000" points="323.5,103.9669,327.5,94.9669,323.5,98.9669,319.5,94.9669,323.5,103.9669" style="stroke: #000000; stroke-width: 1.0;"/><path d="M228.4,169.3769 C214.59,177.0869 202.15,187.1569 193.5,200.2969 C187.55,209.3369 189.21,220.3869 193.42,230.4669 " fill="none" style="stroke: #000000; stroke-width: 1.0;"/><polygon fill="#000000" points="195.51,235.0169,195.39,225.1687,193.4238,230.4729,188.1196,228.5067,195.51,235.0169" style="stroke: #000000; stroke-width: 1.0;"/><text fill="#000000" font-family="sans-serif" font-size="13" lengthAdjust="spacingAndGlyphs" textLength="246" x="194.5" y="213.3638">Produced Events: BackendNewChange</text><path d="M418.54,176.5069 C427.57,183.0569 435.56,190.9069 441.5,200.2969 C490.41,277.6469 431.2,395.0969 409.14,433.5969 " fill="none" style="stroke: #000000; stroke-width: 1.0;"/><polygon fill="#000000" points="406.4,438.2869,414.3876,432.5251,408.9176,433.9669,407.4757,428.4969,406.4,438.2869" style="stroke: #000000; stroke-width: 1.0;"/><path d="M241.12,285.5169 C252.89,295.4769 266.87,307.3069 280.2,318.5769 " fill="none" style="stroke: #000000; stroke-width: 1.0;"/><polygon fill="#000000" points="284.31,322.0569,280.0084,313.197,280.4877,318.8336,274.8511,319.3128,284.31,322.0569" style="stroke: #000000; stroke-width: 1.0;"/><path d="M362.13,400.3669 C373,413.0469 384.29,426.2169 391.97,435.1769 " fill="none" style="stroke: #000000; stroke-width: 1.0;"/><polygon fill="#000000" points="395.44,439.2269,392.6023,429.7957,392.179,435.4367,386.538,435.0133,395.44,439.2269" style="stroke: #000000; stroke-width: 1.0;"/><rect fill="#FFFFFF" height="62.8906" rx="5" ry="5" style="stroke: #FFFFFF; stroke-width: 1.0;" width="615" x="8" y="490"/><text fill="#000000" font-family="sans-serif" font-size="14" lengthAdjust="spacingAndGlyphs" textLength="216" x="14" y="507.9951">State Types and Border Colors:</text><text fill="#000000" font-family="sans-serif" font-size="14" font-weight="bold" lengthAdjust="spacingAndGlyphs" textLength="44" x="19" y="526.292">Event</text><text fill="#000000" font-family="sans-serif" font-size="14" font-weight="bold" lengthAdjust="spacingAndGlyphs" textLength="78" x="73" y="526.292">Operation</text><text fill="#000000" font-family="sans-serif" font-size="14" font-weight="bold" lengthAdjust="spacingAndGlyphs" textLength="53" x="161" y="526.292">Switch</text><text fill="#000000" font-family="sans-serif" font-size="14" font-weight="bold" lengthAdjust="spacingAndGlyphs" textLength="43" x="224" y="526.292">Delay</text><text fill="#000000" font-family="sans-serif" font-size="14" font-weight="bold" lengthAdjust="spacingAndGlyphs" textLength="57" x="277" y="526.292">Parallel</text><text fill="#000000" font-family="sans-serif" font-size="14" font-weight="bold" lengthAdjust="spacingAndGlyphs" textLength="67" x="344" y="526.292">SubFlow</text><text fill="#000000" font-family="sans-serif" font-size="14" font-weight="bold" lengthAdjust="spacingAndGlyphs" textLength="43" x="421" y="526.292">Inject</text><text fill="#000000" font-family="sans-serif" font-size="14" font-weight="bold" lengthAdjust="spacingAndGlyphs" textLength="63" x="474" y="526.292">ForEach</text><text fill="#000000" font-family="sans-serif" font-size="14" font-weight="bold" lengthAdjust="spacingAndGlyphs" textLength="65" x="547" y="526.292">CallBack</text><rect fill="#7FE5F0" height="16.2969" style="stroke: none; stroke-width: 1.0;" width="54" x="14" y="529.5938"/><text fill="#000000" font-family="sans-serif" font-size="14" lengthAdjust="spacingAndGlyphs" textLength="0" x="18" y="542.5889"/><rect fill="#BADA55" height="16.2969" style="stroke: none; stroke-width: 1.0;" width="88" x="68" y="529.5938"/><text fill="#000000" font-family="sans-serif" font-size="14" lengthAdjust="spacingAndGlyphs" textLength="0" x="72" y="542.5889"/><rect fill="#92A0F2" height="16.2969" style="stroke: none; stroke-width: 1.0;" width="63" x="156" y="529.5938"/><text fill="#000000" font-family="sans-serif" font-size="14" lengthAdjust="spacingAndGlyphs" textLength="0" x="160" y="542.5889"/><rect fill="#B83B5E" height="16.2969" style="stroke: none; stroke-width: 1.0;" width="53" x="219" y="529.5938"/><text fill="#000000" font-family="sans-serif" font-size="14" lengthAdjust="spacingAndGlyphs" textLength="0" x="223" y="542.5889"/><rect fill="#6A2C70" height="16.2969" style="stroke: none; stroke-width: 1.0;" width="67" x="272" y="529.5938"/><text fill="#000000" font-family="sans-serif" font-size="14" lengthAdjust="spacingAndGlyphs" textLength="0" x="276" y="542.5889"/><rect fill="#87753C" height="16.2969" style="stroke: none; stroke-width: 1.0;" width="77" x="339" y="529.5938"/><text fill="#000000" font-family="sans-serif" font-size="14" lengthAdjust="spacingAndGlyphs" textLength="0" x="343" y="542.5889"/><rect fill="#1E5F74" height="16.2969" style="stroke: none; stroke-width: 1.0;" width="53" x="416" y="529.5938"/><text fill="#000000" font-family="sans-serif" font-size="14" lengthAdjust="spacingAndGlyphs" textLength="0" x="420" y="542.5889"/><rect fill="#931A25" height="16.2969" style="stroke: none; stroke-width: 1.0;" width="73" x="469" y="529.5938"/><text fill="#000000" font-family="sans-serif" font-size="14" lengthAdjust="spacingAndGlyphs" textLength="0" x="473" y="542.5889"/><rect fill="#FFCB8E" height="16.2969" style="stroke: none; stroke-width: 1.0;" width="75" x="542" y="529.5938"/><text fill="#000000" font-family="sans-serif" font-size="14" lengthAdjust="spacingAndGlyphs" textLength="0" x="546" y="542.5889"/><line style="stroke: #000000; stroke-width: 1.0;" x1="14" x2="617" y1="513.2969" y2="513.2969"/><line style="stroke: #000000; stroke-width: 1.0;" x1="14" x2="617" y1="529.5938" y2="529.5938"/><line style="stroke: #000000; stroke-width: 1.0;" x1="14" x2="617" y1="545.8906" y2="545.8906"/><line style="stroke: #000000; stroke-width: 1.0;" x1="14" x2="14" y1="513.2969" y2="545.8906"/><line style="stroke: #000000; stroke-width: 1.0;" x1="68" x2="68" y1="513.2969" y2="545.8906"/><line style="stroke: #000000; stroke-width: 1.0;" x1="156" x2="156" y1="513.2969" y2="545.8906"/><line style="stroke: #000000; stroke-width: 1.0;" x1="219" x2="219" y1="513.2969" y2="545.8906"/><line style="stroke: #000000; stroke-width: 1.0;" x1="272" x2="272" y1="513.2969" y2="545.8906"/><line style="stroke: #000000; stroke-width: 1.0;" x1="339" x2="339" y1="513.2969" y2="545.8906"/><line style="stroke: #000000; stroke-width: 1.0;" x1="416" x2="416" y1="513.2969" y2="545.8906"/><line style="stroke: #000000; stroke-width: 1.0;" x1="469" x2="469" y1="513.2969" y2="545.8906"/><line style="stroke: #000000; stroke-width: 1.0;" x1="542" x2="542" y1="513.2969" y2="545.8906"/><line style="stroke: #000000; stroke-width: 1.0;" x1="617" x2="617" y1="513.2969" y2="545.8906"/></g></svg>