<?xml version="1.0" encoding="UTF-8" standalone="no"?><svg xmlns="http://www.w3.org/2000/svg" xmlns:xlink="http://www.w3.org/1999/xlink" contentScriptType="application/ecmascript" contentStyleType="text/css" height="553px" preserveAspectRatio="none" style="width:624px;height:553px;" version="1.1" viewBox="0 0 624 553" width="624px" zoomAndPan="magnify"><defs><filter height="300%" id="fx1m04x" width="300%" x="-1" y="-1"><feGaussianBlur result="blurOut" stdDeviation="2.0"/><feColorMatrix in="blurOut" result="blurOut2" type="matrix" values="0 0 0 0 0 0 0 0 0 0 0 0 0 0 0 0 0 0 .4 0"/><feOffset dx="4.0" dy="4.0" in="blurOut2" result="blurOut3"/><feBlend in="SourceGraphic" in2="blurOut3" mode="normal"/></filter></defs><g><rect fill="#FFFFFF" filter="url(#fx1m04x)" height="464.2969" rx="12.5" ry="12.5" style="stroke: #000000; stroke-width: 1.5;" width="370" x="125" y="8"/><rect fill="#FFFFFF" height="432" rx="12.5" ry="12.5" style="stroke: #FFFFFF; stroke-width: 1.0;" width="364" x="128" y="37.2969"/><line style="stroke: #000000; stroke-width: 1.5;" x1="125" x2="495" y1="34.2969" y2="34.2969"/><text fill="#000000" font-family="sans-serif" font-size="14" lengthAdjust="spacingAndGlyphs" textLength="144" x="238" y="25.9951">HandleFrontend v1.0</text><rect fill="#F8F8FF" filter="url(#fx1m04x)" height="78.2031" rx="12.5" ry="12.5" style="stroke: #92A0F2; stroke-width: 1.5;" width="190" x="229" y="104.2969"/><line style="stroke: #92A0F2; stroke-width: 1.5;" x1="229" x2="419" y1="130.5938" y2="130.5938"/><text fill="#000000" font-family="sans-serif" font-size="14" lengthAdjust="spacingAndGlyphs" textLength="107" x="270.5" y="122.292">CheckFrontend</text><text fill="#000000" font-family="sans-serif" font-size="12" lengthAdjust="spacingAndGlyphs" textLength="115" x="234" y="146.7324">Type: Switch State</text><text fill="#000000" font-family="sans-serif" font-size="12" lengthAdjust="spacingAndGlyphs" textLength="170" x="234" y="160.7012">Condition type: data-based</text><text fill="#000000" font-family="sans-serif" font-size="12" lengthAdjust="spacingAndGlyphs" textLength="133" x="234" y="174.6699">Num. of conditions: 2</text><rect fill="#F8F8FF" filter="url(#fx1m04x)" height="50.2656" rx="12.5" ry="12.5" style="stroke: #1E5F74; stroke-width: 1.5;" width="152" x="136" y="235.2969"/><line style="stroke: #1E5F74; stroke-width: 1.5;" x1="136" x2="288" y1="261.5938" y2="261.5938"/><text fill="#000000" font-family="sans-serif" font-size="14" lengthAdjust="spacingAndGlyphs" textLength="132" x="146" y="253.292">InjectFrontendData</text><text fill="#000000" font-family="sans-serif" font-size="12" lengthAdjust="spacingAndGlyphs" textLength="109" x="141" y="277.7324">Type: Inject State</text><rect fill="#F8F8FF" filter="url(#fx1m04x)" height="78.2031" rx="12.5" ry="12.5" style="stroke: #BADA55; stroke-width: 1.5;" width="157" x="251.5" y="322.2969"/><line style="stroke: #BADA55; stroke-width: 1.5;" x1="251.5" x2="408.5" y1="348.5938" y2="348.5938"/><text fill="#000000" font-family="sans-serif" font-size="14" lengthAdjust="spacingAndGlyphs" textLength="111" x="274.5" y="340.292">HandleFrontend</text><text fill="#000000" font-family="sans-serif" font-size="12" lengthAdjust="spacingAndGlyphs" textLength="137" x="256.5" y="364.7324">Type: Operation State</text><text fill="#000000" font-family="sans-serif" font-size="12" lengthAdjust="spacingAndGlyphs" textLength="108" x="256.5" y="378.7012">Action mode: null</text><text fill="#000000" font-family="sans-serif" font-size="12" lengthAdjust="spacingAndGlyphs" textLength="114" x="256.5" y="392.6699">Num. of actions: 2</text><ellipse cx="324" cy="57.2969" fill="#008000" filter="url(#fx1m04x)" rx="10" ry="10" style="stroke: none; stroke-width: 1.0;"/><ellipse cx="403" cy="447.2969" fill="none" filter="url(#fx1m04x)" rx="10" ry="10" style="stroke: #FFA500; stroke-width: 1.0;"/><ellipse cx="403.5" cy="447.7969" fill="#FFA500" rx="6" ry="6" style="stroke: none; stroke-width: 1.0;"/><path d="M324,67.6069 C324,75.3769 324,87.0669 324,98.8969 " fill="none" style="stroke: #000000; stroke-width: 1.0;"/><polygon fill="#000000" points="324,103.9669,328,94.9669,324,98.9669,320,94.9669,324,103.9669" style="stroke: #000000; stroke-width: 1.0;"/><path d="M228.84,168.8969 C214.66,176.6669 201.86,186.8769 193,200.2969 C187.04,209.3269 188.69,220.3769 192.9,230.4569 " fill="none" style="stroke: #000000; stroke-width: 1.0;"/><polygon fill="#000000" points="195,235.0069,194.88,225.1587,192.9138,230.4629,187.6096,228.4967,195,235.0069" style="stroke: #000000; stroke-width: 1.0;"/><text fill="#000000" font-family="sans-serif" font-size="13" lengthAdjust="spacingAndGlyphs" textLength="248" x="194" y="213.3638">Produced Events: FrontendNewChange</text><path d="M419.27,175.9969 C428.62,182.6469 436.88,190.6569 443,200.2969 C492.04,277.5669 432.74,395.0769 410.65,433.5869 " fill="none" style="stroke: #000000; stroke-width: 1.0;"/><polygon fill="#000000" points="407.91,438.2869,415.8976,432.5251,410.4276,433.9669,408.9857,428.4969,407.91,438.2869" style="stroke: #000000; stroke-width: 1.0;"/><path d="M240.87,285.5169 C252.74,295.4769 266.84,307.3069 280.27,318.5769 " fill="none" style="stroke: #000000; stroke-width: 1.0;"/><polygon fill="#000000" points="284.42,322.0569,280.0797,313.216,280.5836,318.8503,274.9492,319.3542,284.42,322.0569" style="stroke: #000000; stroke-width: 1.0;"/><path d="M363.08,400.3669 C374.11,413.0469 385.55,426.2169 393.34,435.1769 " fill="none" style="stroke: #000000; stroke-width: 1.0;"/><polygon fill="#000000" points="396.85,439.2269,393.9919,429.8018,393.5808,435.4437,387.9389,435.0326,396.85,439.2269" style="stroke: #000000; stroke-width: 1.0;"/><rect fill="#FFFFFF" height="62.8906" rx="5" ry="5" style="stroke: #FFFFFF; stroke-width: 1.0;" width="615" x="8" y="490"/><text fill="#000000" font-family="sans-serif" font-size="14" lengthAdjust="spacingAndGlyphs" textLength="216" x="14" y="507.9951">State Types and Border Colors:</text><text fill="#000000" font-family="sans-serif" font-size="14" font-weight="bold" lengthAdjust="spacingAndGlyphs" textLength="44" x="19" y="526.292">Event</text><text fill="#000000" font-family="sans-serif" font-size="14" font-weight="bold" lengthAdjust="spacingAndGlyphs" textLength="78" x="73" y="526.292">Operation</text><text fill="#000000" font-family="sans-serif" font-size="14" font-weight="bold" lengthAdjust="spacingAndGlyphs" textLength="53" x="161" y="526.292">Switch</text><text fill="#000000" font-family="sans-serif" font-size="14" font-weight="bold" lengthAdjust="spacingAndGlyphs" textLength="43" x="224" y="526.292">Delay</text><text fill="#000000" font-family="sans-serif" font-size="14" font-weight="bold" lengthAdjust="spacingAndGlyphs" textLength="57" x="277" y="526.292">Parallel</text><text fill="#000000" font-family="sans-serif" font-size="14" font-weight="bold" lengthAdjust="spacingAndGlyphs" textLength="67" x="344" y="526.292">SubFlow</text><text fill="#000000" font-family="sans-serif" font-size="14" font-weight="bold" lengthAdjust="spacingAndGlyphs" textLength="43" x="421" y="526.292">Inject</text><text fill="#000000" font-family="sans-serif" font-size="14" font-weight="bold" lengthAdjust="spacingAndGlyphs" textLength="63" x="474" y="526.292">ForEach</text><text fill="#000000" font-family="sans-serif" font-size="14" font-weight="bold" lengthAdjust="spacingAndGlyphs" textLength="65" x="547" y="526.292">CallBack</text><rect fill="#7FE5F0" height="16.2969" style="stroke: none; stroke-width: 1.0;" width="54" x="14" y="529.5938"/><text fill="#000000" font-family="sans-serif" font-size="14" lengthAdjust="spacingAndGlyphs" textLength="0" x="18" y="542.5889"/><rect fill="#BADA55" height="16.2969" style="stroke: none; stroke-width: 1.0;" width="88" x="68" y="529.5938"/><text fill="#000000" font-family="sans-serif" font-size="14" lengthAdjust="spacingAndGlyphs" textLength="0" x="72" y="542.5889"/><rect fill="#92A0F2" height="16.2969" style="stroke: none; stroke-width: 1.0;" width="63" x="156" y="529.5938"/><text fill="#000000" font-family="sans-serif" font-size="14" lengthAdjust="spacingAndGlyphs" textLength="0" x="160" y="542.5889"/><rect fill="#B83B5E" height="16.2969" style="stroke: none; stroke-width: 1.0;" width="53" x="219" y="529.5938"/><text fill="#000000" font-family="sans-serif" font-size="14" lengthAdjust="spacingAndGlyphs" textLength="0" x="223" y="542.5889"/><rect fill="#6A2C70" height="16.2969" style="stroke: none; stroke-width: 1.0;" width="67" x="272" y="529.5938"/><text fill="#000000" font-family="sans-serif" font-size="14" lengthAdjust="spacingAndGlyphs" textLength="0" x="276" y="542.5889"/><rect fill="#87753C" height="16.2969" style="stroke: none; stroke-width: 1.0;" width="77" x="339" y="529.5938"/><text fill="#000000" font-family="sans-serif" font-size="14" lengthAdjust="spacingAndGlyphs" textLength="0" x="343" y="542.5889"/><rect fill="#1E5F74" height="16.2969" style="stroke: none; stroke-width: 1.0;" width="53" x="416" y="529.5938"/><text fill="#000000" font-family="sans-serif" font-size="14" lengthAdjust="spacingAndGlyphs" textLength="0" x="420" y="542.5889"/><rect fill="#931A25" height="16.2969" style="stroke: none; stroke-width: 1.0;" width="73" x="469" y="529.5938"/><text fill="#000000" font-family="sans-serif" font-size="14" lengthAdjust="spacingAndGlyphs" textLength="0" x="473" y="542.5889"/><rect fill="#FFCB8E" height="16.2969" style="stroke: none; stroke-width: 1.0;" width="75" x="542" y="529.5938"/><text fill="#000000" font-family="sans-serif" font-size="14" lengthAdjust="spacingAndGlyphs" textLength="0" x="546" y="542.5889"/><line style="stroke: #000000; stroke-width: 1.0;" x1="14" x2="617" y1="513.2969" y2="513.2969"/><line style="stroke: #000000; stroke-width: 1.0;" x1="14" x2="617" y1="529.5938" y2="529.5938"/><line style="stroke: #000000; stroke-width: 1.0;" x1="14" x2="617" y1="545.8906" y2="545.8906"/><line style="stroke: #000000; stroke-width: 1.0;" x1="14" x2="14" y1="513.2969" y2="545.8906"/><line style="stroke: #000000; stroke-width: 1.0;" x1="68" x2="68" y1="513.2969" y2="545.8906"/><line style="stroke: #000000; stroke-width: 1.0;" x1="156" x2="156" y1="513.2969" y2="545.8906"/><line style="stroke: #000000; stroke-width: 1.0;" x1="219" x2="219" y1="513.2969" y2="545.8906"/><line style="stroke: #000000; stroke-width: 1.0;" x1="272" x2="272" y1="513.2969" y2="545.8906"/><line style="stroke: #000000; stroke-width: 1.0;" x1="339" x2="339" y1="513.2969" y2="545.8906"/><line style="stroke: #000000; stroke-width: 1.0;" x1="416" x2="416" y1="513.2969" y2="545.8906"/><line style="stroke: #000000; stroke-width: 1.0;" x1="469" x2="469" y1="513.2969" y2="545.8906"/><line style="stroke: #000000; stroke-width: 1.0;" x1="542" x2="542" y1="513.2969" y2="545.8906"/><line style="stroke: #000000; stroke-width: 1.0;" x1="617" x2="617" y1="513.2969" y2="545.8906"/></g></svg>