<svg version="1.1" xmlns="http://www.w3.org/2000/svg" xmlns:xlink="http://www.w3.org/1999/xlink" width="1551" height="522" viewBox="0 0 1551 522"><defs/><g transform="matrix(1,0,0,1,0,0)"><g><g><g><path fill="none" stroke="#d3d3d3" paint-order="fill stroke markers" d=" M 0 0 L 1200 0" stroke-miterlimit="10" stroke-opacity="0.8" stroke-dasharray="5"/></g><g><path fill="none" stroke="#d3d3d3" paint-order="fill stroke markers" d=" M 0 0 L 0 800" stroke-miterlimit="10" stroke-opacity="0.8" stroke-dasharray="5"/></g></g><g id="_905F0834-19CC-423B-B90E-B38C6D80329F" bpmn2nodeid="_905F0834-19CC-423B-B90E-B38C6D80329F" transform="matrix(1,0,0,1,79,227)"><g><path fill="none" stroke="none"/></g><g transform="matrix(0.125,0,0,0.125,0,0)"><g transform="matrix(1,0,0,1,0,0)"><path fill="#e8fae6" stroke="black" id="_905F0834-19CC-423B-B90E-B38C6D80329F?shapeType=BACKGROUND" paint-order="fill stroke markers" d=" M 0 0 M 444 224 C 444 263.9 434.2 300.8 414.4 334.5 C 394.7 368.2 368 394.9 334.4 414.5 C 300.79999999999995 434.1 263.9 444 224 444 C 184.10000000000002 444 147.2 434.2 113.5 414.4 C 79.8 394.7 53.1 368 33.5 334.4 C 13.899999999999999 300.79999999999995 4 263.9 4 224 C 4 184.10000000000002 13.8 147.2 33.6 113.5 C 53.400000000000006 79.80000000000001 80.1 53.1 113.6 33.5 C 147.1 13.899999999999999 184.1 4 224 4 C 263.9 4 300.8 13.8 334.5 33.6 C 368.2 53.400000000000006 394.9 80.1 414.5 113.6 C 434.1 147.1 444 184.1 444 224 Z" stroke-miterlimit="10" stroke-dasharray=""/></g><g><g transform="matrix(1,0,0,1,0,0)"><g transform="matrix(1,0,0,1,0,0)"><path fill="#4aa241" stroke="black" id="_905F0834-19CC-423B-B90E-B38C6D80329F?shapeType=BORDER&amp;renderType=FILL" paint-order="fill stroke markers" d=" M 0 0 M 224 0 C 100.3 0 0 100.3 0 224 C 0 347.7 100.3 448 224 448 C 347.7 448 448 347.7 448 224 C 448 100.30000000000001 347.7 0 224 0 Z M 0 0 M 224 432 C 109.1 432 16 338.9 16 224 C 16 109.10000000000002 109.1 16 224 16 C 338.9 16 432 109.1 432 224 C 432 338.9 338.9 432 224 432 Z" stroke-miterlimit="10" stroke-dasharray=""/></g></g></g></g><g transform="matrix(1,0,0,1,28,61)"/></g><g transform="matrix(1,0,0,1,79,227)"/><g id="_B076DF7E-91A5-47C7-B3FC-2C2EC06E5941" bpmn2nodeid="_B076DF7E-91A5-47C7-B3FC-2C2EC06E5941" transform="matrix(1,0,0,1,801,204)"><g><path fill="none" stroke="none"/></g><g transform="matrix(1,0,0,1,0,0)"><path fill="#ffffff" stroke="none" id="_B076DF7E-91A5-47C7-B3FC-2C2EC06E5941?shapeType=BACKGROUND" paint-order="stroke fill markers" d=" M 2 0 L 214 0 L 214 0 A 2 2 0 0 1 216 2 L 216 96 L 216 96 A 2 2 0 0 1 214 98 L 2 98 L 2 98 A 2 2 0 0 1 0 96 L 0 2 L 0 2.0000000000000004 A 2 2 0 0 1 1.9999999999999996 0 Z"/></g><g transform="matrix(1,0,0,1,0,0)"><path fill="none" stroke="#000000" id="_B076DF7E-91A5-47C7-B3FC-2C2EC06E5941?shapeType=BORDER&amp;renderType=STROKE" paint-order="fill stroke markers" d=" M 2 0 L 214 0 L 214 0 A 2 2 0 0 1 216 2 L 216 96 L 216 96 A 2 2 0 0 1 214 98 L 2 98 L 2 98 A 2 2 0 0 1 0 96 L 0 2 L 0 2.0000000000000004 A 2 2 0 0 1 1.9999999999999996 0 Z" stroke-miterlimit="10" stroke-width="1.5" stroke-dasharray=""/></g><g><g transform="matrix(0.06,0,0,0.06,9.4,9.4)"><g transform="matrix(1,0,0,1,0,0)"><path fill="#393f44" stroke="black" id="_B076DF7E-91A5-47C7-B3FC-2C2EC06E5941_task__zfWh__CXCH" paint-order="fill stroke markers" d=" M 0 0 M 128 344 L 128 296 C 128 293.7 127.2 291.8 125.8 290.2 C 124.39999999999999 288.59999999999997 122.39999999999999 288 120 288 L 40 288 C 37.7 288 35.8 288.8 34.2 290.2 C 32.60000000000001 291.59999999999997 32 293.7 32 296 L 32 344 C 32 346.3 32.8 348.2 34.2 349.8 C 35.60000000000001 351.40000000000003 37.6 352 40 352 L 120 352 C 122.3 352 124.2 351.2 125.8 349.8 C 127.39999999999999 348.40000000000003 128 346.3 128 344 Z M 0 0 M 128 248 L 128 200 C 128 197.7 127.2 195.8 125.8 194.2 C 124.39999999999999 192.59999999999997 122.39999999999999 192 120 192 L 40 192 C 37.7 192 35.8 192.8 34.2 194.2 C 32.60000000000001 195.59999999999997 32 197.7 32 200 L 32 248 C 32 250.3 32.8 252.2 34.2 253.8 C 35.60000000000001 255.40000000000003 37.6 256 40 256 L 120 256 C 122.3 256 124.2 255.2 125.8 253.8 C 127.39999999999999 252.40000000000003 128 250.3 128 248 Z M 0 0 M 376 352 C 378.3 352 380.2 351.2 381.8 349.8 C 383.40000000000003 348.40000000000003 384 346.40000000000003 384 344 L 384 296 C 384 293.7 383.2 291.8 381.8 290.2 C 380.40000000000003 288.59999999999997 378.40000000000003 288 376 288 L 168 288 C 165.7 288 163.8 288.8 162.2 290.2 C 160.59999999999997 291.59999999999997 160 293.59999999999997 160 296 L 160 344 C 160 346.3 160.8 348.2 162.2 349.8 C 163.59999999999997 351.40000000000003 165.6 352 168 352 L 376 352 Z M 0 0 M 128 152 L 128 104 C 128 101.7 127.2 99.8 125.8 98.2 C 124.39999999999999 96.60000000000001 122.3 96 120 96 L 40 96 C 37.7 96 35.8 96.8 34.2 98.2 C 32.60000000000001 99.60000000000001 32 101.7 32 104 L 32 152 C 32 154.3 32.8 156.2 34.2 157.8 C 35.60000000000001 159.40000000000003 37.6 160 40 160 L 120 160 C 122.3 160 124.2 159.2 125.8 157.8 C 127.39999999999999 156.40000000000003 128 154.3 128 152 Z M 0 0 M 376 256 C 378.3 256 380.2 255.2 381.8 253.8 C 383.40000000000003 252.40000000000003 384 250.4 384 248 L 384 200 C 384 197.7 383.2 195.8 381.8 194.2 C 380.40000000000003 192.59999999999997 378.40000000000003 192 376 192 L 168 192 C 165.7 192 163.8 192.8 162.2 194.2 C 160.59999999999997 195.59999999999997 160 197.6 160 200 L 160 248 C 160 250.3 160.8 252.2 162.2 253.8 C 163.59999999999997 255.40000000000003 165.6 256 168 256 L 376 256 Z M 0 0 M 376 160 C 378.3 160 380.2 159.2 381.8 157.8 C 383.40000000000003 156.40000000000003 384 154.4 384 152 L 384 104 C 384 101.7 383.2 99.8 381.8 98.2 C 380.40000000000003 96.60000000000001 378.3 96 376 96 L 168 96 C 165.7 96 163.8 96.8 162.2 98.2 C 160.59999999999997 99.60000000000001 160 101.60000000000001 160 104 L 160 152 C 160 154.3 160.8 156.2 162.2 157.8 C 163.59999999999997 159.40000000000003 165.6 160 168 160 L 376 160 Z M 0 0 M 416 72 L 416 344 C 416 355 412.1 364.4 404.2 372.2 C 396.29999999999995 380 387 384 376 384 L 40 384 C 29 384 19.6 380.1 11.8 372.2 C 4 364.29999999999995 0 355 0 344 L 0 72 C 0 61 3.9 51.6 11.8 43.8 C 19.700000000000003 35.99999999999999 29 32 40 32 L 376 32 C 387 32 396.4 35.9 404.2 43.8 C 412 51.699999999999996 416 61 416 72 Z" stroke-miterlimit="10" stroke-dasharray=""/></g></g></g><g transform="matrix(1,0,0,1,50.39453125,34)"><text fill="#000000" stroke="none" font-family="Open Sans" font-size="12pt" font-style="normal" font-weight="normal" text-decoration="normal" x="57.60546875" y="12" text-anchor="middle" dominant-baseline="alphabetic">TrafficViolation </text><text fill="#000000" stroke="none" font-family="Open Sans" font-size="12pt" font-style="normal" font-weight="normal" text-decoration="normal" x="57.60546875" y="27" text-anchor="middle" dominant-baseline="alphabetic">         DMN          </text></g></g><g transform="matrix(1,0,0,1,801,204)"/><g id="_DDD02AFB-D927-47BC-9C0C-523B602B5CD2" bpmn2nodeid="_DDD02AFB-D927-47BC-9C0C-523B602B5CD2" transform="matrix(1,0,0,1,1203.5,355)"><g><path fill="none" stroke="none"/></g><g transform="matrix(1,0,0,1,0,0)"><path fill="#ffffff" stroke="none" id="_DDD02AFB-D927-47BC-9C0C-523B602B5CD2?shapeType=BACKGROUND" paint-order="stroke fill markers" d=" M 2 0 L 179 0 L 179 0 A 2 2 0 0 1 181 2 L 181 98 L 181 98 A 2 2 0 0 1 179 100 L 2 100 L 2 100 A 2 2 0 0 1 0 98 L 0 2 L 0 2.0000000000000004 A 2 2 0 0 1 1.9999999999999996 0 Z"/></g><g transform="matrix(1,0,0,1,0,0)"><path fill="none" stroke="#000000" id="_DDD02AFB-D927-47BC-9C0C-523B602B5CD2?shapeType=BORDER&amp;renderType=STROKE" paint-order="fill stroke markers" d=" M 2 0 L 179 0 L 179 0 A 2 2 0 0 1 181 2 L 181 98 L 181 98 A 2 2 0 0 1 179 100 L 2 100 L 2 100 A 2 2 0 0 1 0 98 L 0 2 L 0 2.0000000000000004 A 2 2 0 0 1 1.9999999999999996 0 Z" stroke-miterlimit="10" stroke-width="1.5" stroke-dasharray=""/></g><g><g transform="matrix(0.06,0,0,0.06,9.4,9.4)"><g transform="matrix(1,0,0,1,0,0)"><path fill="#393f44" stroke="black" id="_DDD02AFB-D927-47BC-9C0C-523B602B5CD2_task__mpqQ__5o1F" paint-order="fill stroke markers" d=" M 0 0 M 197.3 130.2 C 194.4 127.29999999999998 189.60000000000002 127.29999999999998 186.70000000000002 130.2 L 130.20000000000002 186.7 C 127.30000000000001 189.6 127.30000000000001 194.39999999999998 130.20000000000002 197.29999999999998 L 186.70000000000002 253.79999999999998 C 188.10000000000002 255.29999999999998 190.10000000000002 255.99999999999997 192.00000000000003 255.99999999999997 C 193.90000000000003 255.99999999999997 195.90000000000003 255.29999999999998 197.30000000000004 253.69999999999996 C 200.20000000000005 250.79999999999995 200.20000000000005 245.99999999999997 197.30000000000004 243.09999999999997 L 146.2 192 L 197.29999999999998 140.8 C 200.2 137.9 200.2 133.1 197.3 130.2 Z" stroke-miterlimit="10" stroke-dasharray=""/></g><g transform="matrix(1,0,0,1,0,0)"><path fill="#393f44" stroke="black" id="_DDD02AFB-D927-47BC-9C0C-523B602B5CD2_task__mpqQ__Hzsj" paint-order="fill stroke markers" d=" M 0 0 M 261.3 130.2 C 258.40000000000003 127.29999999999998 253.60000000000002 127.29999999999998 250.70000000000002 130.2 C 247.8 133.1 247.8 137.89999999999998 250.70000000000002 140.79999999999998 L 301.8 191.89999999999998 L 250.7 243 C 247.79999999999998 245.9 247.79999999999998 250.7 250.7 253.6 C 252.1 255.29999999999998 254.1 256 256 256 C 257.9 256 259.9 255.3 261.3 253.8 L 317.8 197.3 C 320.7 194.4 320.7 189.60000000000002 317.8 186.70000000000002 L 261.3 130.2 Z" stroke-miterlimit="10" stroke-dasharray=""/></g><g transform="matrix(1,0,0,1,0,0)"><path fill="#393f44" stroke="black" id="_DDD02AFB-D927-47BC-9C0C-523B602B5CD2_task__mpqQ__izAy" paint-order="fill stroke markers" d=" M 0 0 M 400 32 C 400 32 152.8 32 128 32 C 62 32 64 96 64 96 L 64 288 L 1 288 C 1 288 -4 416 78 416 L 320 416 C 368 416 384 368 384 336 C 384 314.2 384 224.4 384 160 L 448 160 L 448 96 C 448 96 449 32 400 32 Z M 0 0 M 78 383.9 C 68.5 383.9 61.6 381.09999999999997 55.5 374.9 C 43.4 362.4 37.5 339.59999999999997 34.9 320 L 256.9 320 C 257.09999999999997 322.7 257.29999999999995 325.4 257.59999999999997 328.2 C 259.99999999999994 351.59999999999997 264.7 370.09999999999997 271.9 383.9 L 78 383.9 L 78 383.9 Z M 0 0 M 352 336 C 352 345.9 349.6 360.3 342.9 371 C 337.2 380.1 330.4 384 320 384 C 285 384 288 288 288 288 L 96 288 L 96 96 L 96 95.9 L 96 95.10000000000001 C 96 90.60000000000001 97.6 78.30000000000001 104.7 71.20000000000002 C 106.5 69.40000000000002 111.9 64.00000000000001 128 64.00000000000001 L 356.5 64.00000000000001 C 354.4 72.80000000000001 352.8 81.80000000000001 352.2 89.9 C 352.2 90.5 352.09999999999997 91.10000000000001 352.09999999999997 91.7 C 352.09999999999997 92 352.09999999999997 92.3 352.09999999999997 92.60000000000001 C 352 94.8 352 96 352 96 L 352 160 L 352 336 Z" stroke-miterlimit="10" stroke-dasharray=""/></g></g></g><g transform="matrix(1,0,0,1,35,35)"><text fill="#000000" stroke="none" font-family="Open Sans" font-size="12pt" font-style="normal" font-weight="normal" text-decoration="normal" x="59.5546875" y="12" text-anchor="middle" dominant-baseline="alphabetic">Not Suspended </text><text fill="#000000" stroke="none" font-family="Open Sans" font-size="12pt" font-style="normal" font-weight="normal" text-decoration="normal" x="59.5546875" y="27" text-anchor="middle" dominant-baseline="alphabetic">           Task          </text></g></g><g transform="matrix(1,0,0,1,1203.5,355)"/><g id="_418CD980-670D-4FC5-B492-A271A61B1477" bpmn2nodeid="_418CD980-670D-4FC5-B492-A271A61B1477" transform="matrix(1,0,0,1,1445,377)"><g><path fill="none" stroke="none"/></g><g transform="matrix(0.125,0,0,0.125,0,0)"><g transform="matrix(1,0,0,1,0,0)"><path fill="#fce7e7" stroke="black" id="_418CD980-670D-4FC5-B492-A271A61B1477?shapeType=BACKGROUND" paint-order="fill stroke markers" d=" M 0 0 M 444 224 C 444 263.9 434.2 300.8 414.4 334.5 C 394.7 368.2 368 394.9 334.4 414.5 C 300.79999999999995 434.1 263.9 444 224 444 C 184.10000000000002 444 147.2 434.2 113.5 414.4 C 79.8 394.7 53.1 368 33.5 334.4 C 13.899999999999999 300.79999999999995 4 263.9 4 224 C 4 184.10000000000002 13.8 147.2 33.6 113.5 C 53.400000000000006 79.80000000000001 80.1 53.1 113.6 33.5 C 147.1 13.899999999999999 184.1 4 224 4 C 263.9 4 300.8 13.8 334.5 33.6 C 368.2 53.400000000000006 394.9 80.1 414.5 113.6 C 434.1 147.1 444 184.1 444 224 Z" stroke-miterlimit="10" stroke-dasharray=""/></g><g><g transform="matrix(1,0,0,1,0,0)"><g transform="matrix(1,0,0,1,0,0)"><path fill="#a30000" stroke="black" id="_418CD980-670D-4FC5-B492-A271A61B1477?shapeType=BORDER&amp;renderType=FILL" paint-order="fill stroke markers" d=" M 0 0 M 224 0 C 100.3 0 0 100.3 0 224 C 0 347.7 100.3 448 224 448 C 347.7 448 448 347.7 448 224 C 448 100.30000000000001 347.7 0 224 0 Z M 0 0 M 224 400 C 126.8 400 48 321.2 48 224 C 48 126.80000000000001 126.8 48 224 48 C 321.2 48 400 126.8 400 224 C 400 321.2 321.2 400 224 400 Z" stroke-miterlimit="10" stroke-dasharray=""/></g></g></g></g><g transform="matrix(1,0,0,1,28,61)"/></g><g transform="matrix(1,0,0,1,1445,377)"/><g id="_8A66FABC-E538-4F50-9DAC-BC9069D19942" bpmn2nodeid="_8A66FABC-E538-4F50-9DAC-BC9069D19942" transform="matrix(1,0,0,1,1078,225)"><g><path fill="none" stroke="none"/></g><g transform="matrix(0.125,0,0,0.125,0,0)"><g transform="matrix(1,0,0,1,0,0)"><path fill="#fef4ea" stroke="black" id="_8A66FABC-E538-4F50-9DAC-BC9069D19942?shapeType=BACKGROUND" paint-order="fill stroke markers" d=" M 0 0 M 224.4 4.3 C 216.4 4.3 208.4 7.3 202.3 13.399999999999999 L 13.5 202.2 C 1.3000000000000007 214.39999999999998 1.3000000000000007 234.2 13.5 246.39999999999998 L 202.2 435.09999999999997 C 208.29999999999998 441.2 216.39999999999998 444.2 224.29999999999998 444.2 C 232.2 444.2 240.29999999999998 441.2 246.39999999999998 435.09999999999997 L 435.09999999999997 246.39999999999998 C 447.29999999999995 234.2 447.29999999999995 214.39999999999998 435.09999999999997 202.2 L 246.5 13.4 C 240.4 7.3 232.4 4.3 224.4 4.3 L 224.4 4.3 Z" stroke-miterlimit="10" stroke-dasharray=""/></g><g><g transform="matrix(1,0,0,1,0,0)"><g transform="matrix(1,0,0,1,0,0)"><path fill="#ec7a08" stroke="black" id="_8A66FABC-E538-4F50-9DAC-BC9069D19942?shapeType=BORDER&amp;renderType=FILL" paint-order="fill stroke markers" d=" M 0 0 M 20.8 212.7 L 213.3 20.2 C 219.60000000000002 13.899999999999999 229.70000000000002 13.899999999999999 235.9 20.2 L 428.4 212.7 C 434.7 219 434.7 229.1 428.4 235.29999999999998 L 235.9 427.8 C 229.6 434.1 219.5 434.1 213.3 427.8 L 20.8 235.3 C 14.5 229.1 14.5 218.9 20.8 212.7 L 20.8 212.7 Z M 0 0 M 0 224 C 0 232.1 3.1 240.3 9.3 246.5 L 201.5 438.7 C 213.9 451.09999999999997 234.1 451.09999999999997 246.5 438.7 L 438.7 246.5 C 444.9 240.3 448 232.1 448 224 C 448 215.9 444.9 207.7 438.7 201.5 L 246.5 9.3 C 234.1 -3.0999999999999996 213.9 -3.0999999999999996 201.5 9.3 L 9.3 201.5 C 3.1 207.7 0 215.9 0 224 L 0 224 Z" stroke-miterlimit="10" stroke-dasharray=""/></g></g></g><g><g transform="matrix(1,0,0,1,0,0)"><g transform="matrix(1,0,0,1,0,0)"><path fill="#ec7a08" stroke="black" id="_8A66FABC-E538-4F50-9DAC-BC9069D19942_exclusive" paint-order="fill stroke markers" d=" M 0 0 M 298.2 269.2 C 298.2 272.59999999999997 297.09999999999997 275.3 294.7 277.7 L 277.7 294.7 C 275.3 297.09999999999997 272.59999999999997 298.2 269.2 298.2 C 265.8 298.2 263.09999999999997 297.09999999999997 260.7 294.7 L 224 258 L 187.2 294.8 C 184.79999999999998 297.2 182.1 298.3 178.7 298.3 C 175.29999999999998 298.3 172.6 297.2 170.2 294.8 L 153.2 277.8 C 150.79999999999998 275.40000000000003 149.7 272.7 149.7 269.3 C 149.7 265.90000000000003 150.79999999999998 263.2 153.2 260.8 L 190 224 L 153.2 187.2 C 150.79999999999998 184.79999999999998 149.7 182 149.7 178.7 C 149.7 175.29999999999998 150.79999999999998 172.5 153.2 170.2 L 170.2 153.2 C 172.6 150.79999999999998 175.29999999999998 149.7 178.7 149.7 C 182.1 149.7 184.79999999999998 150.79999999999998 187.2 153.2 L 224 190 L 260.8 153.2 C 263.2 150.79999999999998 265.90000000000003 149.7 269.3 149.7 C 272.7 149.7 275.40000000000003 150.79999999999998 277.8 153.2 L 294.8 170.2 C 297.2 172.5 298.3 175.29999999999998 298.3 178.7 C 298.3 182 297.2 184.79999999999998 294.8 187.2 L 258 224 L 294.8 260.8 C 297.1 263.1 298.2 265.9 298.2 269.2 Z" stroke-miterlimit="10" stroke-dasharray=""/></g></g></g></g><g transform="matrix(1,0,0,1,28,61)"/></g><g transform="matrix(1,0,0,1,1078,225)"/><g id="_298312AB-7A3D-478B-BD9B-B260CE847645" bpmn2nodeid="_298312AB-7A3D-478B-BD9B-B260CE847645" transform="matrix(1,0,0,1,1194,77)"><g><path fill="none" stroke="none"/></g><g transform="matrix(1,0,0,1,0,0)"><path fill="#ffffff" stroke="none" id="_298312AB-7A3D-478B-BD9B-B260CE847645?shapeType=BACKGROUND" paint-order="stroke fill markers" d=" M 2 0 L 176 0 L 176 0 A 2 2 0 0 1 178 2 L 178 100 L 178 100 A 2 2 0 0 1 176 102 L 2 102 L 2 102 A 2 2 0 0 1 0 100 L 0 2 L 0 2.0000000000000004 A 2 2 0 0 1 1.9999999999999996 0 Z"/></g><g transform="matrix(1,0,0,1,0,0)"><path fill="none" stroke="#000000" id="_298312AB-7A3D-478B-BD9B-B260CE847645?shapeType=BORDER&amp;renderType=STROKE" paint-order="fill stroke markers" d=" M 2 0 L 176 0 L 176 0 A 2 2 0 0 1 178 2 L 178 100 L 178 100 A 2 2 0 0 1 176 102 L 2 102 L 2 102 A 2 2 0 0 1 0 100 L 0 2 L 0 2.0000000000000004 A 2 2 0 0 1 1.9999999999999996 0 Z" stroke-miterlimit="10" stroke-width="1.5" stroke-dasharray=""/></g><g><g transform="matrix(0.06,0,0,0.06,9.4,9.4)"><g transform="matrix(1,0,0,1,0,0)"><path fill="#393f44" stroke="black" id="_298312AB-7A3D-478B-BD9B-B260CE847645_task__mpqQ__5o1F" paint-order="fill stroke markers" d=" M 0 0 M 197.3 130.2 C 194.4 127.29999999999998 189.60000000000002 127.29999999999998 186.70000000000002 130.2 L 130.20000000000002 186.7 C 127.30000000000001 189.6 127.30000000000001 194.39999999999998 130.20000000000002 197.29999999999998 L 186.70000000000002 253.79999999999998 C 188.10000000000002 255.29999999999998 190.10000000000002 255.99999999999997 192.00000000000003 255.99999999999997 C 193.90000000000003 255.99999999999997 195.90000000000003 255.29999999999998 197.30000000000004 253.69999999999996 C 200.20000000000005 250.79999999999995 200.20000000000005 245.99999999999997 197.30000000000004 243.09999999999997 L 146.2 192 L 197.29999999999998 140.8 C 200.2 137.9 200.2 133.1 197.3 130.2 Z" stroke-miterlimit="10" stroke-dasharray=""/></g><g transform="matrix(1,0,0,1,0,0)"><path fill="#393f44" stroke="black" id="_298312AB-7A3D-478B-BD9B-B260CE847645_task__mpqQ__Hzsj" paint-order="fill stroke markers" d=" M 0 0 M 261.3 130.2 C 258.40000000000003 127.29999999999998 253.60000000000002 127.29999999999998 250.70000000000002 130.2 C 247.8 133.1 247.8 137.89999999999998 250.70000000000002 140.79999999999998 L 301.8 191.89999999999998 L 250.7 243 C 247.79999999999998 245.9 247.79999999999998 250.7 250.7 253.6 C 252.1 255.29999999999998 254.1 256 256 256 C 257.9 256 259.9 255.3 261.3 253.8 L 317.8 197.3 C 320.7 194.4 320.7 189.60000000000002 317.8 186.70000000000002 L 261.3 130.2 Z" stroke-miterlimit="10" stroke-dasharray=""/></g><g transform="matrix(1,0,0,1,0,0)"><path fill="#393f44" stroke="black" id="_298312AB-7A3D-478B-BD9B-B260CE847645_task__mpqQ__izAy" paint-order="fill stroke markers" d=" M 0 0 M 400 32 C 400 32 152.8 32 128 32 C 62 32 64 96 64 96 L 64 288 L 1 288 C 1 288 -4 416 78 416 L 320 416 C 368 416 384 368 384 336 C 384 314.2 384 224.4 384 160 L 448 160 L 448 96 C 448 96 449 32 400 32 Z M 0 0 M 78 383.9 C 68.5 383.9 61.6 381.09999999999997 55.5 374.9 C 43.4 362.4 37.5 339.59999999999997 34.9 320 L 256.9 320 C 257.09999999999997 322.7 257.29999999999995 325.4 257.59999999999997 328.2 C 259.99999999999994 351.59999999999997 264.7 370.09999999999997 271.9 383.9 L 78 383.9 L 78 383.9 Z M 0 0 M 352 336 C 352 345.9 349.6 360.3 342.9 371 C 337.2 380.1 330.4 384 320 384 C 285 384 288 288 288 288 L 96 288 L 96 96 L 96 95.9 L 96 95.10000000000001 C 96 90.60000000000001 97.6 78.30000000000001 104.7 71.20000000000002 C 106.5 69.40000000000002 111.9 64.00000000000001 128 64.00000000000001 L 356.5 64.00000000000001 C 354.4 72.80000000000001 352.8 81.80000000000001 352.2 89.9 C 352.2 90.5 352.09999999999997 91.10000000000001 352.09999999999997 91.7 C 352.09999999999997 92 352.09999999999997 92.3 352.09999999999997 92.60000000000001 C 352 94.8 352 96 352 96 L 352 160 L 352 336 Z" stroke-miterlimit="10" stroke-dasharray=""/></g></g></g><g transform="matrix(1,0,0,1,45.2109375,36)"><text fill="#000000" stroke="none" font-family="Open Sans" font-size="12pt" font-style="normal" font-weight="normal" text-decoration="normal" x="43.7890625" y="12" text-anchor="middle" dominant-baseline="alphabetic">Suspended </text><text fill="#000000" stroke="none" font-family="Open Sans" font-size="12pt" font-style="normal" font-weight="normal" text-decoration="normal" x="43.7890625" y="27" text-anchor="middle" dominant-baseline="alphabetic">      Task       </text></g></g><g transform="matrix(1,0,0,1,1194,77)"/><g id="_67972C63-8A06-42C5-A3FF-A843EFB4D07B" bpmn2nodeid="_67972C63-8A06-42C5-A3FF-A843EFB4D07B" transform="matrix(1,0,0,1,1438,100)"><g><path fill="none" stroke="none"/></g><g transform="matrix(0.125,0,0,0.125,0,0)"><g transform="matrix(1,0,0,1,0,0)"><path fill="#fce7e7" stroke="black" id="_67972C63-8A06-42C5-A3FF-A843EFB4D07B?shapeType=BACKGROUND" paint-order="fill stroke markers" d=" M 0 0 M 444 224 C 444 263.9 434.2 300.8 414.4 334.5 C 394.7 368.2 368 394.9 334.4 414.5 C 300.79999999999995 434.1 263.9 444 224 444 C 184.10000000000002 444 147.2 434.2 113.5 414.4 C 79.8 394.7 53.1 368 33.5 334.4 C 13.899999999999999 300.79999999999995 4 263.9 4 224 C 4 184.10000000000002 13.8 147.2 33.6 113.5 C 53.400000000000006 79.80000000000001 80.1 53.1 113.6 33.5 C 147.1 13.899999999999999 184.1 4 224 4 C 263.9 4 300.8 13.8 334.5 33.6 C 368.2 53.400000000000006 394.9 80.1 414.5 113.6 C 434.1 147.1 444 184.1 444 224 Z" stroke-miterlimit="10" stroke-dasharray=""/></g><g><g transform="matrix(1,0,0,1,0,0)"><g transform="matrix(1,0,0,1,0,0)"><path fill="#a30000" stroke="black" id="_67972C63-8A06-42C5-A3FF-A843EFB4D07B?shapeType=BORDER&amp;renderType=FILL" paint-order="fill stroke markers" d=" M 0 0 M 224 0 C 100.3 0 0 100.3 0 224 C 0 347.7 100.3 448 224 448 C 347.7 448 448 347.7 448 224 C 448 100.30000000000001 347.7 0 224 0 Z M 0 0 M 224 400 C 126.8 400 48 321.2 48 224 C 48 126.80000000000001 126.8 48 224 48 C 321.2 48 400 126.8 400 224 C 400 321.2 321.2 400 224 400 Z" stroke-miterlimit="10" stroke-dasharray=""/></g></g></g></g><g transform="matrix(1,0,0,1,28,61)"/></g><g transform="matrix(1,0,0,1,1438,100)"/><g id="_93FFD317-476E-4624-84EF-994617572560" bpmn2nodeid="_93FFD317-476E-4624-84EF-994617572560" transform="matrix(1,0,0,1,195,205)"><g><path fill="none" stroke="none"/></g><g transform="matrix(1,0,0,1,0,0)"><path fill="#ffffff" stroke="none" id="_93FFD317-476E-4624-84EF-994617572560?shapeType=BACKGROUND" paint-order="stroke fill markers" d=" M 2 0 L 152 0 L 152 0 A 2 2 0 0 1 154 2 L 154 100 L 154 100 A 2 2 0 0 1 152 102 L 2 102 L 2 102 A 2 2 0 0 1 0 100 L 0 2 L 0 2.0000000000000004 A 2 2 0 0 1 1.9999999999999996 0 Z"/></g><g transform="matrix(1,0,0,1,0,0)"><path fill="none" stroke="#000000" id="_93FFD317-476E-4624-84EF-994617572560?shapeType=BORDER&amp;renderType=STROKE" paint-order="fill stroke markers" d=" M 2 0 L 152 0 L 152 0 A 2 2 0 0 1 154 2 L 154 100 L 154 100 A 2 2 0 0 1 152 102 L 2 102 L 2 102 A 2 2 0 0 1 0 100 L 0 2 L 0 2.0000000000000004 A 2 2 0 0 1 1.9999999999999996 0 Z" stroke-miterlimit="10" stroke-width="1.5" stroke-dasharray=""/></g><g><g transform="matrix(0.02,0,0,0.02,1.96,1.96)"><g transform="matrix(1,0,0,1,0,0)"><path fill="#393f44" stroke="black" id="_93FFD317-476E-4624-84EF-994617572560_task__ZSYb__uFU2" paint-order="fill stroke markers" d=" M 0 0 M 825.74609 438.17383 C 825.69979 475.1723 825.75629 512.17163 825.85156 549.16992 C 794.29829 558.09661 765.46524 570.55412 738.23633 585.8144500000001 L 658.6542999999999 507.1894500000001 L 509.8476599999999 656.85742 L 589.42383 735.46875 C 574.05216 763.02029 562.0487099999999 792.29945 553.67188 822.7109399999999 L 440.94727 822.9160199999999 L 440.94727 1033.7051 L 554.84961 1033.2948999999999 C 565.26551 1074.5932999999998 587.93422 1111.7200999999998 610.51172 1144.918 L 610.51172 963.0937499999999 L 510.94727 963.4511699999999 L 510.94727 892.78906 L 610.01562 892.60938 L 615.57617 864.4375 C 623.68569 823.35291 639.74603 784.18805 662.8203100000001 749.14453 L 678.6054700000001 725.17188 L 609.0019500000001 656.41016 L 659.0957000000001 606.02539 L 728.82617 674.91797 L 752.55664 659.0820299999999 C 788.8205 635.15649 828.48451 619.1185099999999 868.03711 610.7656199999999 L 895.99609 604.9609399999999 L 895.74609 508.1757799999999 L 967.71289 508.1757799999999 L 967.15625 604.4570299999999 L 995.58398 604.4570299999999 L 1155.9902 604.4570299999999 C 1138.2767999999999 583.3133799999999 1064.8698 555.7993799999999 1037.4823999999999 548.13281 L 1038.1172 438.1757799999999 C 959.7171599999999 438.1737799999999 898.2517399999999 438.17977999999994 825.7460899999999 438.1737799999999 Z M 0 0 M 1024.9043 639.83203 L 1025.1914 750.82422 C 993.6369799999999 759.75091 964.80383 772.20673 937.57422 787.46875 L 857.99023 708.84375 L 709.18359 858.51172 L 788.76172 937.1230499999999 C 773.38937 964.67608 761.3846199999999 993.9542999999999 753.00781 1024.3672 L 640.2851599999999 1024.5702999999999 L 640.2851599999999 1235.3593999999998 L 754.1855499999999 1234.9511999999997 C 763.1509799999999 1266.2081999999998 775.5796899999999 1294.7509999999997 790.8105499999999 1321.6972999999998 L 709.3164099999999 1402.8729999999998 L 859.7812499999999 1550.7519999999997 L 940.9824199999999 1469.9276999999997 C 968.7967199999999 1485.3723999999997 998.3629 1497.3636999999997 1029.0156 1505.7089999999998 L 1029.0686 1620.4218999999998 C 1101.4603 1621.0557 1178.5356000000002 1620.7291999999998 1240.4045 1620.7226999999998 L 1240.4045 1504.6522999999997 C 1271.9823000000001 1495.7484999999997 1300.9055 1483.2013999999997 1328.1408000000001 1467.9472999999998 L 1409.2756000000002 1547.9433999999999 L 1558.1799 1398.4629 L 1476.8752000000002 1318.3398 C 1492.2822 1290.7142 1504.2876 1261.3861 1512.6740000000002 1230.9414 L 1623.0529000000001 1230.2598 L 1623.0529000000001 1019.6738 L 1511.4357000000002 1020.3535 C 1502.4633000000001 989.0665200000001 1490.2144000000003 960.7167400000001 1474.7814000000003 933.5918 L 1551.9025000000004 856.27344 L 1401.5217000000005 708.1425800000001 L 1324.5002000000004 785.4277300000001 C 1296.7999000000004 770.1087700000002 1267.3539000000005 758.1453700000001 1236.8205000000005 749.7890600000001 L 1237.4533000000006 639.83203 L 1024.9045000000006 639.83203 Z M 0 0 M 1095.0839999999998 709.83203 L 1167.0507999999998 709.83203 L 1166.4960999999998 806.11523 L 1194.9218999999998 811.69336 C 1236.1942999999999 819.79239 1275.7524999999998 835.83275 1310.9374999999998 858.76562 L 1334.7616999999998 874.29492 L 1401.9784999999997 806.84961 L 1452.5956999999996 856.7109399999999 L 1385.2851999999996 924.19336 L 1401.4804999999997 948.09961 C 1425.2451999999996 983.9725 1441.0087999999996 1022.7495 1449.9081999999996 1062.6797 L 1455.7636999999995 1090.6914 L 1553.0448999999994 1090.0996 L 1553.0448999999994 1160.6895 L 1456.3065999999994 1161.2852 L 1450.7499999999995 1189.2969 C 1442.5901999999996 1230.4276 1426.5648999999996 1269.5910000000001 1403.4511999999995 1304.6953 L 1387.6483999999996 1328.7012000000002 L 1458.9061999999997 1398.9238000000003 L 1408.8202999999996 1449.2031000000002 L 1337.5546999999997 1378.9375000000002 L 1313.8651999999997 1394.6758000000002 C 1277.5899999999997 1418.3823000000002 1238.2405999999996 1434.7985 1198.5409999999997 1442.8867000000002 L 1170.3964999999996 1448.5078000000003 L 1170.3964999999996 1550.7227000000003 C 1151.1554999999996 1550.7697000000003 1130.1655999999996 1550.7397000000003 1099.0272999999995 1550.6957000000002 L 1098.9822999999994 1449.2465000000002 L 1070.7107999999994 1443.7250000000001 C 1029.3806999999995 1435.6542000000002 989.8875999999993 1419.6875000000002 954.7635699999994 1396.6586000000002 L 931.0096699999993 1381.0844000000002 L 859.4686499999993 1452.2953000000002 L 808.8436499999993 1402.5375000000001 L 880.4842799999993 1331.1762 L 864.1366199999993 1307.1723000000002 C 840.3497899999993 1271.3781000000001 824.6137199999993 1232.5600000000002 815.6991199999993 1192.6762 L 809.8495099999993 1164.7504000000001 L 710.2850599999994 1165.1059 L 710.2850599999994 1094.4457 L 809.3534199999993 1094.2641 L 814.9139599999993 1066.0961000000002 C 823.0235399999993 1025.0112000000001 839.0841299999993 985.8442300000002 862.1580999999993 950.8011800000002 L 877.9432599999993 926.8265700000002 L 808.3377899999994 858.0648500000002 L 858.4315399999994 807.6800900000002 L 928.1639599999994 876.5726700000001 L 951.8944299999994 860.7386800000002 C 988.2042899999993 836.9689600000002 1026.7352999999994 821.1972900000002 1067.3748999999993 812.4242300000002 L 1095.3357999999994 806.6195400000001 L 1095.0838999999994 709.8324300000002 Z M 0 0 M 1132.2499999999998 967.03516 C 1045.6030999999998 967.03516 974.6113299999997 1038.0288 974.6113299999997 1124.6758 C 974.6113299999997 1211.3228 1045.6030999999998 1282.3125 1132.2499999999998 1282.3125 C 1218.8968999999997 1282.3125 1289.8886999999997 1211.3228 1289.8886999999997 1124.6758 C 1289.8886999999997 1038.0288 1218.8968999999997 967.03516 1132.2499999999998 967.03516 Z M 0 0 M 1132.2499999999998 1037.0352 C 1181.0661999999998 1037.0352 1219.8886999999997 1075.8597 1219.8886999999997 1124.6758 C 1219.8886999999997 1173.4919 1181.0661999999998 1212.3125 1132.2499999999998 1212.3125 C 1083.4337999999998 1212.3125 1044.6132999999998 1173.4919 1044.6132999999998 1124.6758 C 1044.6132999999998 1075.8597 1083.4337999999998 1037.0352 1132.2499999999998 1037.0352 Z" stroke-miterlimit="10" stroke-dasharray=""/></g><g transform="matrix(1,0,0,1,0,0)"><path fill="none" stroke="black" id="_93FFD317-476E-4624-84EF-994617572560_task__ZSYb__sW43" paint-order="fill stroke markers" d=" M 0 0 M 825.74609 438.17383 C 825.69979 475.1723 825.75629 512.17163 825.85156 549.16992 C 794.29829 558.09661 765.46524 570.55412 738.23633 585.8144500000001 L 658.6542999999999 507.1894500000001 L 509.8476599999999 656.85742 L 589.42383 735.46875 C 574.05216 763.02029 562.0487099999999 792.29945 553.67188 822.7109399999999 L 440.94727 822.9160199999999 L 440.94727 1033.7051 L 554.84961 1033.2948999999999 C 565.26551 1074.5932999999998 587.93422 1111.7200999999998 610.51172 1144.918 L 610.51172 963.0937499999999 L 510.94727 963.4511699999999 L 510.94727 892.78906 L 610.01562 892.60938 L 615.57617 864.4375 C 623.68569 823.35291 639.74603 784.18805 662.8203100000001 749.14453 L 678.6054700000001 725.17188 L 609.0019500000001 656.41016 L 659.0957000000001 606.02539 L 728.82617 674.91797 L 752.55664 659.0820299999999 C 788.8205 635.15649 828.48451 619.1185099999999 868.03711 610.7656199999999 L 895.99609 604.9609399999999 L 895.74609 508.1757799999999 L 967.71289 508.1757799999999 L 967.15625 604.4570299999999 L 995.58398 604.4570299999999 L 1155.9902 604.4570299999999 C 1138.2767999999999 583.3133799999999 1064.8698 555.7993799999999 1037.4823999999999 548.13281 L 1038.1172 438.1757799999999 C 959.7171599999999 438.1737799999999 898.2517399999999 438.17977999999994 825.7460899999999 438.1737799999999 Z M 0 0 M 1024.9043 639.83203 L 1025.1914 750.82422 C 993.6369799999999 759.75091 964.80383 772.20673 937.57422 787.46875 L 857.99023 708.84375 L 709.18359 858.51172 L 788.76172 937.1230499999999 C 773.38937 964.67608 761.3846199999999 993.9542999999999 753.00781 1024.3672 L 640.2851599999999 1024.5702999999999 L 640.2851599999999 1235.3593999999998 L 754.1855499999999 1234.9511999999997 C 763.1509799999999 1266.2081999999998 775.5796899999999 1294.7509999999997 790.8105499999999 1321.6972999999998 L 709.3164099999999 1402.8729999999998 L 859.7812499999999 1550.7519999999997 L 940.9824199999999 1469.9276999999997 C 968.7967199999999 1485.3723999999997 998.3629 1497.3636999999997 1029.0156 1505.7089999999998 L 1029.0686 1620.4218999999998 C 1101.4603 1621.0557 1178.5356000000002 1620.7291999999998 1240.4045 1620.7226999999998 L 1240.4045 1504.6522999999997 C 1271.9823000000001 1495.7484999999997 1300.9055 1483.2013999999997 1328.1408000000001 1467.9472999999998 L 1409.2756000000002 1547.9433999999999 L 1558.1799 1398.4629 L 1476.8752000000002 1318.3398 C 1492.2822 1290.7142 1504.2876 1261.3861 1512.6740000000002 1230.9414 L 1623.0529000000001 1230.2598 L 1623.0529000000001 1019.6738 L 1511.4357000000002 1020.3535 C 1502.4633000000001 989.0665200000001 1490.2144000000003 960.7167400000001 1474.7814000000003 933.5918 L 1551.9025000000004 856.27344 L 1401.5217000000005 708.1425800000001 L 1324.5002000000004 785.4277300000001 C 1296.7999000000004 770.1087700000002 1267.3539000000005 758.1453700000001 1236.8205000000005 749.7890600000001 L 1237.4533000000006 639.83203 L 1024.9045000000006 639.83203 Z M 0 0 M 1095.0839999999998 709.83203 L 1167.0507999999998 709.83203 L 1166.4960999999998 806.11523 L 1194.9218999999998 811.69336 C 1236.1942999999999 819.79239 1275.7524999999998 835.83275 1310.9374999999998 858.76562 L 1334.7616999999998 874.29492 L 1401.9784999999997 806.84961 L 1452.5956999999996 856.7109399999999 L 1385.2851999999996 924.19336 L 1401.4804999999997 948.09961 C 1425.2451999999996 983.9725 1441.0087999999996 1022.7495 1449.9081999999996 1062.6797 L 1455.7636999999995 1090.6914 L 1553.0448999999994 1090.0996 L 1553.0448999999994 1160.6895 L 1456.3065999999994 1161.2852 L 1450.7499999999995 1189.2969 C 1442.5901999999996 1230.4276 1426.5648999999996 1269.5910000000001 1403.4511999999995 1304.6953 L 1387.6483999999996 1328.7012000000002 L 1458.9061999999997 1398.9238000000003 L 1408.8202999999996 1449.2031000000002 L 1337.5546999999997 1378.9375000000002 L 1313.8651999999997 1394.6758000000002 C 1277.5899999999997 1418.3823000000002 1238.2405999999996 1434.7985 1198.5409999999997 1442.8867000000002 L 1170.3964999999996 1448.5078000000003 L 1170.3964999999996 1550.7227000000003 C 1151.1554999999996 1550.7697000000003 1130.1655999999996 1550.7397000000003 1099.0272999999995 1550.6957000000002 L 1098.9822999999994 1449.2465000000002 L 1070.7107999999994 1443.7250000000001 C 1029.3806999999995 1435.6542000000002 989.8875999999993 1419.6875000000002 954.7635699999994 1396.6586000000002 L 931.0096699999993 1381.0844000000002 L 859.4686499999993 1452.2953000000002 L 808.8436499999993 1402.5375000000001 L 880.4842799999993 1331.1762 L 864.1366199999993 1307.1723000000002 C 840.3497899999993 1271.3781000000001 824.6137199999993 1232.5600000000002 815.6991199999993 1192.6762 L 809.8495099999993 1164.7504000000001 L 710.2850599999994 1165.1059 L 710.2850599999994 1094.4457 L 809.3534199999993 1094.2641 L 814.9139599999993 1066.0961000000002 C 823.0235399999993 1025.0112000000001 839.0841299999993 985.8442300000002 862.1580999999993 950.8011800000002 L 877.9432599999993 926.8265700000002 L 808.3377899999994 858.0648500000002 L 858.4315399999994 807.6800900000002 L 928.1639599999994 876.5726700000001 L 951.8944299999994 860.7386800000002 C 988.2042899999993 836.9689600000002 1026.7352999999994 821.1972900000002 1067.3748999999993 812.4242300000002 L 1095.3357999999994 806.6195400000001 L 1095.0838999999994 709.8324300000002 Z M 0 0 M 1132.2499999999998 967.03516 C 1045.6030999999998 967.03516 974.6113299999997 1038.0288 974.6113299999997 1124.6758 C 974.6113299999997 1211.3228 1045.6030999999998 1282.3125 1132.2499999999998 1282.3125 C 1218.8968999999997 1282.3125 1289.8886999999997 1211.3228 1289.8886999999997 1124.6758 C 1289.8886999999997 1038.0288 1218.8968999999997 967.03516 1132.2499999999998 967.03516 Z M 0 0 M 1132.2499999999998 1037.0352 C 1181.0661999999998 1037.0352 1219.8886999999997 1075.8597 1219.8886999999997 1124.6758 C 1219.8886999999997 1173.4919 1181.0661999999998 1212.3125 1132.2499999999998 1212.3125 C 1083.4337999999998 1212.3125 1044.6132999999998 1173.4919 1044.6132999999998 1124.6758 C 1044.6132999999998 1075.8597 1083.4337999999998 1037.0352 1132.2499999999998 1037.0352 Z" stroke-miterlimit="10" stroke-dasharray=""/></g><g transform="matrix(1,0,0,1,0,0)"><path fill="#393f44" stroke="black" id="_93FFD317-476E-4624-84EF-994617572560_task__ZSYb__zxoq" paint-order="fill stroke markers" d=" M 0 0 M 825.74609 438.17383 C 825.69979 475.1723 825.75629 512.17163 825.85156 549.16992 C 794.29829 558.09661 765.46524 570.55412 738.23633 585.8144500000001 L 658.6542999999999 507.1894500000001 L 509.8476599999999 656.85742 L 589.42383 735.46875 C 574.05216 763.02029 562.0487099999999 792.29945 553.67188 822.7109399999999 L 440.94727 822.9160199999999 L 440.94727 1033.7051 L 554.84961 1033.2948999999999 C 565.26551 1074.5932999999998 587.93422 1111.7200999999998 610.51172 1144.918 L 610.51172 963.0937499999999 L 510.94727 963.4511699999999 L 510.94727 892.78906 L 610.01562 892.60938 L 615.57617 864.4375 C 623.68569 823.35291 639.74603 784.18805 662.8203100000001 749.14453 L 678.6054700000001 725.17188 L 609.0019500000001 656.41016 L 659.0957000000001 606.02539 L 728.82617 674.91797 L 752.55664 659.0820299999999 C 788.8205 635.15649 828.48451 619.1185099999999 868.03711 610.7656199999999 L 895.99609 604.9609399999999 L 895.74609 508.1757799999999 L 967.71289 508.1757799999999 L 967.15625 604.4570299999999 L 995.58398 604.4570299999999 L 1155.9902 604.4570299999999 C 1138.2767999999999 583.3133799999999 1064.8698 555.7993799999999 1037.4823999999999 548.13281 L 1038.1172 438.1757799999999 C 959.7171599999999 438.1737799999999 898.2517399999999 438.17977999999994 825.7460899999999 438.1737799999999 Z M 0 0 M 1024.9043 639.83203 L 1025.1914 750.82422 C 993.6369799999999 759.75091 964.80383 772.20673 937.57422 787.46875 L 857.99023 708.84375 L 709.18359 858.51172 L 788.76172 937.1230499999999 C 773.38937 964.67608 761.3846199999999 993.9542999999999 753.00781 1024.3672 L 640.2851599999999 1024.5702999999999 L 640.2851599999999 1235.3593999999998 L 754.1855499999999 1234.9511999999997 C 763.1509799999999 1266.2081999999998 775.5796899999999 1294.7509999999997 790.8105499999999 1321.6972999999998 L 709.3164099999999 1402.8729999999998 L 859.7812499999999 1550.7519999999997 L 940.9824199999999 1469.9276999999997 C 968.7967199999999 1485.3723999999997 998.3629 1497.3636999999997 1029.0156 1505.7089999999998 L 1029.0686 1620.4218999999998 C 1101.4603 1621.0557 1178.5356000000002 1620.7291999999998 1240.4045 1620.7226999999998 L 1240.4045 1504.6522999999997 C 1271.9823000000001 1495.7484999999997 1300.9055 1483.2013999999997 1328.1408000000001 1467.9472999999998 L 1409.2756000000002 1547.9433999999999 L 1558.1799 1398.4629 L 1476.8752000000002 1318.3398 C 1492.2822 1290.7142 1504.2876 1261.3861 1512.6740000000002 1230.9414 L 1623.0529000000001 1230.2598 L 1623.0529000000001 1019.6738 L 1511.4357000000002 1020.3535 C 1502.4633000000001 989.0665200000001 1490.2144000000003 960.7167400000001 1474.7814000000003 933.5918 L 1551.9025000000004 856.27344 L 1401.5217000000005 708.1425800000001 L 1324.5002000000004 785.4277300000001 C 1296.7999000000004 770.1087700000002 1267.3539000000005 758.1453700000001 1236.8205000000005 749.7890600000001 L 1237.4533000000006 639.83203 L 1024.9045000000006 639.83203 Z M 0 0 M 1095.0839999999998 709.83203 L 1167.0507999999998 709.83203 L 1166.4960999999998 806.11523 L 1194.9218999999998 811.69336 C 1236.1942999999999 819.79239 1275.7524999999998 835.83275 1310.9374999999998 858.76562 L 1334.7616999999998 874.29492 L 1401.9784999999997 806.84961 L 1452.5956999999996 856.7109399999999 L 1385.2851999999996 924.19336 L 1401.4804999999997 948.09961 C 1425.2451999999996 983.9725 1441.0087999999996 1022.7495 1449.9081999999996 1062.6797 L 1455.7636999999995 1090.6914 L 1553.0448999999994 1090.0996 L 1553.0448999999994 1160.6895 L 1456.3065999999994 1161.2852 L 1450.7499999999995 1189.2969 C 1442.5901999999996 1230.4276 1426.5648999999996 1269.5910000000001 1403.4511999999995 1304.6953 L 1387.6483999999996 1328.7012000000002 L 1458.9061999999997 1398.9238000000003 L 1408.8202999999996 1449.2031000000002 L 1337.5546999999997 1378.9375000000002 L 1313.8651999999997 1394.6758000000002 C 1277.5899999999997 1418.3823000000002 1238.2405999999996 1434.7985 1198.5409999999997 1442.8867000000002 L 1170.3964999999996 1448.5078000000003 L 1170.3964999999996 1550.7227000000003 C 1151.1554999999996 1550.7697000000003 1130.1655999999996 1550.7397000000003 1099.0272999999995 1550.6957000000002 L 1098.9822999999994 1449.2465000000002 L 1070.7107999999994 1443.7250000000001 C 1029.3806999999995 1435.6542000000002 989.8875999999993 1419.6875000000002 954.7635699999994 1396.6586000000002 L 931.0096699999993 1381.0844000000002 L 859.4686499999993 1452.2953000000002 L 808.8436499999993 1402.5375000000001 L 880.4842799999993 1331.1762 L 864.1366199999993 1307.1723000000002 C 840.3497899999993 1271.3781000000001 824.6137199999993 1232.5600000000002 815.6991199999993 1192.6762 L 809.8495099999993 1164.7504000000001 L 710.2850599999994 1165.1059 L 710.2850599999994 1094.4457 L 809.3534199999993 1094.2641 L 814.9139599999993 1066.0961000000002 C 823.0235399999993 1025.0112000000001 839.0841299999993 985.8442300000002 862.1580999999993 950.8011800000002 L 877.9432599999993 926.8265700000002 L 808.3377899999994 858.0648500000002 L 858.4315399999994 807.6800900000002 L 928.1639599999994 876.5726700000001 L 951.8944299999994 860.7386800000002 C 988.2042899999993 836.9689600000002 1026.7352999999994 821.1972900000002 1067.3748999999993 812.4242300000002 L 1095.3357999999994 806.6195400000001 L 1095.0838999999994 709.8324300000002 Z M 0 0 M 1132.2499999999998 967.03516 C 1045.6030999999998 967.03516 974.6113299999997 1038.0288 974.6113299999997 1124.6758 C 974.6113299999997 1211.3228 1045.6030999999998 1282.3125 1132.2499999999998 1282.3125 C 1218.8968999999997 1282.3125 1289.8886999999997 1211.3228 1289.8886999999997 1124.6758 C 1289.8886999999997 1038.0288 1218.8968999999997 967.03516 1132.2499999999998 967.03516 Z M 0 0 M 1132.2499999999998 1037.0352 C 1181.0661999999998 1037.0352 1219.8886999999997 1075.8597 1219.8886999999997 1124.6758 C 1219.8886999999997 1173.4919 1181.0661999999998 1212.3125 1132.2499999999998 1212.3125 C 1083.4337999999998 1212.3125 1044.6132999999998 1173.4919 1044.6132999999998 1124.6758 C 1044.6132999999998 1075.8597 1083.4337999999998 1037.0352 1132.2499999999998 1037.0352 Z" stroke-miterlimit="10" stroke-dasharray=""/></g></g></g><g transform="matrix(1,0,0,1,36.82421875,36)"><text fill="#000000" stroke="none" font-family="Open Sans" font-size="12pt" font-style="normal" font-weight="normal" text-decoration="normal" x="40.17578125" y="12" text-anchor="middle" dominant-baseline="alphabetic">Get Driver </text><text fill="#000000" stroke="none" font-family="Open Sans" font-size="12pt" font-style="normal" font-weight="normal" text-decoration="normal" x="40.17578125" y="27" text-anchor="middle" dominant-baseline="alphabetic">   Details    </text></g></g><g transform="matrix(1,0,0,1,195,205)"/><g id="_95EFED1F-73F8-47E7-9604-A81EFE5DE8F5" bpmn2nodeid="_95EFED1F-73F8-47E7-9604-A81EFE5DE8F5" transform="matrix(1,0,0,1,409,205.45454545454544)"><g><path fill="none" stroke="none"/></g><g transform="matrix(1,0,0,1,0,0)"><path fill="#ffffff" stroke="none" id="_95EFED1F-73F8-47E7-9604-A81EFE5DE8F5?shapeType=BACKGROUND" paint-order="stroke fill markers" d=" M 2 0 L 175.63636363636363 0 L 175.63636363636363 0 A 2 2 0 0 1 177.63636363636363 2 L 177.63636363636363 99.09090909090912 L 177.63636363636363 99.09090909090912 A 2 2 0 0 1 175.63636363636363 101.09090909090912 L 2 101.09090909090912 L 2 101.09090909090912 A 2 2 0 0 1 0 99.09090909090912 L 0 2 L 0 2.0000000000000004 A 2 2 0 0 1 1.9999999999999996 0 Z"/></g><g transform="matrix(1,0,0,1,0,0)"><path fill="none" stroke="#000000" id="_95EFED1F-73F8-47E7-9604-A81EFE5DE8F5?shapeType=BORDER&amp;renderType=STROKE" paint-order="fill stroke markers" d=" M 2 0 L 175.63636363636363 0 L 175.63636363636363 0 A 2 2 0 0 1 177.63636363636363 2 L 177.63636363636363 99.09090909090912 L 177.63636363636363 99.09090909090912 A 2 2 0 0 1 175.63636363636363 101.09090909090912 L 2 101.09090909090912 L 2 101.09090909090912 A 2 2 0 0 1 0 99.09090909090912 L 0 2 L 0 2.0000000000000004 A 2 2 0 0 1 1.9999999999999996 0 Z" stroke-miterlimit="10" stroke-width="1.5" stroke-dasharray=""/></g><g><g transform="matrix(0.06,0,0,0.06,9.4,9.4)"><g transform="matrix(1,0,0,1,0,0)"><path fill="#393f44" stroke="black" id="_95EFED1F-73F8-47E7-9604-A81EFE5DE8F5_task__zfWh__CXCH" paint-order="fill stroke markers" d=" M 0 0 M 128 344 L 128 296 C 128 293.7 127.2 291.8 125.8 290.2 C 124.39999999999999 288.59999999999997 122.39999999999999 288 120 288 L 40 288 C 37.7 288 35.8 288.8 34.2 290.2 C 32.60000000000001 291.59999999999997 32 293.7 32 296 L 32 344 C 32 346.3 32.8 348.2 34.2 349.8 C 35.60000000000001 351.40000000000003 37.6 352 40 352 L 120 352 C 122.3 352 124.2 351.2 125.8 349.8 C 127.39999999999999 348.40000000000003 128 346.3 128 344 Z M 0 0 M 128 248 L 128 200 C 128 197.7 127.2 195.8 125.8 194.2 C 124.39999999999999 192.59999999999997 122.39999999999999 192 120 192 L 40 192 C 37.7 192 35.8 192.8 34.2 194.2 C 32.60000000000001 195.59999999999997 32 197.7 32 200 L 32 248 C 32 250.3 32.8 252.2 34.2 253.8 C 35.60000000000001 255.40000000000003 37.6 256 40 256 L 120 256 C 122.3 256 124.2 255.2 125.8 253.8 C 127.39999999999999 252.40000000000003 128 250.3 128 248 Z M 0 0 M 376 352 C 378.3 352 380.2 351.2 381.8 349.8 C 383.40000000000003 348.40000000000003 384 346.40000000000003 384 344 L 384 296 C 384 293.7 383.2 291.8 381.8 290.2 C 380.40000000000003 288.59999999999997 378.40000000000003 288 376 288 L 168 288 C 165.7 288 163.8 288.8 162.2 290.2 C 160.59999999999997 291.59999999999997 160 293.59999999999997 160 296 L 160 344 C 160 346.3 160.8 348.2 162.2 349.8 C 163.59999999999997 351.40000000000003 165.6 352 168 352 L 376 352 Z M 0 0 M 128 152 L 128 104 C 128 101.7 127.2 99.8 125.8 98.2 C 124.39999999999999 96.60000000000001 122.3 96 120 96 L 40 96 C 37.7 96 35.8 96.8 34.2 98.2 C 32.60000000000001 99.60000000000001 32 101.7 32 104 L 32 152 C 32 154.3 32.8 156.2 34.2 157.8 C 35.60000000000001 159.40000000000003 37.6 160 40 160 L 120 160 C 122.3 160 124.2 159.2 125.8 157.8 C 127.39999999999999 156.40000000000003 128 154.3 128 152 Z M 0 0 M 376 256 C 378.3 256 380.2 255.2 381.8 253.8 C 383.40000000000003 252.40000000000003 384 250.4 384 248 L 384 200 C 384 197.7 383.2 195.8 381.8 194.2 C 380.40000000000003 192.59999999999997 378.40000000000003 192 376 192 L 168 192 C 165.7 192 163.8 192.8 162.2 194.2 C 160.59999999999997 195.59999999999997 160 197.6 160 200 L 160 248 C 160 250.3 160.8 252.2 162.2 253.8 C 163.59999999999997 255.40000000000003 165.6 256 168 256 L 376 256 Z M 0 0 M 376 160 C 378.3 160 380.2 159.2 381.8 157.8 C 383.40000000000003 156.40000000000003 384 154.4 384 152 L 384 104 C 384 101.7 383.2 99.8 381.8 98.2 C 380.40000000000003 96.60000000000001 378.3 96 376 96 L 168 96 C 165.7 96 163.8 96.8 162.2 98.2 C 160.59999999999997 99.60000000000001 160 101.60000000000001 160 104 L 160 152 C 160 154.3 160.8 156.2 162.2 157.8 C 163.59999999999997 159.40000000000003 165.6 160 168 160 L 376 160 Z M 0 0 M 416 72 L 416 344 C 416 355 412.1 364.4 404.2 372.2 C 396.29999999999995 380 387 384 376 384 L 40 384 C 29 384 19.6 380.1 11.8 372.2 C 4 364.29999999999995 0 355 0 344 L 0 72 C 0 61 3.9 51.6 11.8 43.8 C 19.700000000000003 35.99999999999999 29 32 40 32 L 376 32 C 387 32 396.4 35.9 404.2 43.8 C 412 51.699999999999996 416 61 416 72 Z" stroke-miterlimit="10" stroke-dasharray=""/></g></g></g><g transform="matrix(1,0,0,1,35,35.54545454545456)"><text fill="#000000" stroke="none" font-family="Open Sans" font-size="12pt" font-style="normal" font-weight="normal" text-decoration="normal" x="66.8046875" y="12" text-anchor="middle" dominant-baseline="alphabetic">LicenseValidation </text><text fill="#000000" stroke="none" font-family="Open Sans" font-size="12pt" font-style="normal" font-weight="normal" text-decoration="normal" x="66.8046875" y="27" text-anchor="middle" dominant-baseline="alphabetic">            DRL             </text></g></g><g transform="matrix(1,0,0,1,409,205.45454545454544)"/><g id="_7229480F-BC4D-4406-B27C-8FF46C5C9042" bpmn2nodeid="_7229480F-BC4D-4406-B27C-8FF46C5C9042" transform="matrix(1,0,0,1,637,227)"><g><path fill="none" stroke="none"/></g><g transform="matrix(0.125,0,0,0.125,0,0)"><g transform="matrix(1,0,0,1,0,0)"><path fill="#fef4ea" stroke="black" id="_7229480F-BC4D-4406-B27C-8FF46C5C9042?shapeType=BACKGROUND" paint-order="fill stroke markers" d=" M 0 0 M 224.4 4.3 C 216.4 4.3 208.4 7.3 202.3 13.399999999999999 L 13.5 202.2 C 1.3000000000000007 214.39999999999998 1.3000000000000007 234.2 13.5 246.39999999999998 L 202.2 435.09999999999997 C 208.29999999999998 441.2 216.39999999999998 444.2 224.29999999999998 444.2 C 232.2 444.2 240.29999999999998 441.2 246.39999999999998 435.09999999999997 L 435.09999999999997 246.39999999999998 C 447.29999999999995 234.2 447.29999999999995 214.39999999999998 435.09999999999997 202.2 L 246.5 13.4 C 240.4 7.3 232.4 4.3 224.4 4.3 L 224.4 4.3 Z" stroke-miterlimit="10" stroke-dasharray=""/></g><g><g transform="matrix(1,0,0,1,0,0)"><g transform="matrix(1,0,0,1,0,0)"><path fill="#ec7a08" stroke="black" id="_7229480F-BC4D-4406-B27C-8FF46C5C9042?shapeType=BORDER&amp;renderType=FILL" paint-order="fill stroke markers" d=" M 0 0 M 20.8 212.7 L 213.3 20.2 C 219.60000000000002 13.899999999999999 229.70000000000002 13.899999999999999 235.9 20.2 L 428.4 212.7 C 434.7 219 434.7 229.1 428.4 235.29999999999998 L 235.9 427.8 C 229.6 434.1 219.5 434.1 213.3 427.8 L 20.8 235.3 C 14.5 229.1 14.5 218.9 20.8 212.7 L 20.8 212.7 Z M 0 0 M 0 224 C 0 232.1 3.1 240.3 9.3 246.5 L 201.5 438.7 C 213.9 451.09999999999997 234.1 451.09999999999997 246.5 438.7 L 438.7 246.5 C 444.9 240.3 448 232.1 448 224 C 448 215.9 444.9 207.7 438.7 201.5 L 246.5 9.3 C 234.1 -3.0999999999999996 213.9 -3.0999999999999996 201.5 9.3 L 9.3 201.5 C 3.1 207.7 0 215.9 0 224 L 0 224 Z" stroke-miterlimit="10" stroke-dasharray=""/></g></g></g><g><g transform="matrix(1,0,0,1,0,0)"><g transform="matrix(1,0,0,1,0,0)"><path fill="#ec7a08" stroke="black" id="_7229480F-BC4D-4406-B27C-8FF46C5C9042_exclusive" paint-order="fill stroke markers" d=" M 0 0 M 298.2 269.2 C 298.2 272.59999999999997 297.09999999999997 275.3 294.7 277.7 L 277.7 294.7 C 275.3 297.09999999999997 272.59999999999997 298.2 269.2 298.2 C 265.8 298.2 263.09999999999997 297.09999999999997 260.7 294.7 L 224 258 L 187.2 294.8 C 184.79999999999998 297.2 182.1 298.3 178.7 298.3 C 175.29999999999998 298.3 172.6 297.2 170.2 294.8 L 153.2 277.8 C 150.79999999999998 275.40000000000003 149.7 272.7 149.7 269.3 C 149.7 265.90000000000003 150.79999999999998 263.2 153.2 260.8 L 190 224 L 153.2 187.2 C 150.79999999999998 184.79999999999998 149.7 182 149.7 178.7 C 149.7 175.29999999999998 150.79999999999998 172.5 153.2 170.2 L 170.2 153.2 C 172.6 150.79999999999998 175.29999999999998 149.7 178.7 149.7 C 182.1 149.7 184.79999999999998 150.79999999999998 187.2 153.2 L 224 190 L 260.8 153.2 C 263.2 150.79999999999998 265.90000000000003 149.7 269.3 149.7 C 272.7 149.7 275.40000000000003 150.79999999999998 277.8 153.2 L 294.8 170.2 C 297.2 172.5 298.3 175.29999999999998 298.3 178.7 C 298.3 182 297.2 184.79999999999998 294.8 187.2 L 258 224 L 294.8 260.8 C 297.1 263.1 298.2 265.9 298.2 269.2 Z" stroke-miterlimit="10" stroke-dasharray=""/></g></g></g></g><g transform="matrix(1,0,0,1,28,61)"/></g><g transform="matrix(1,0,0,1,637,227)"/><g id="_E2A8304B-68A0-4CCC-8D47-1FA9352D4853" bpmn2nodeid="_E2A8304B-68A0-4CCC-8D47-1FA9352D4853" transform="matrix(1,0,0,1,637,416)"><g><path fill="none" stroke="none"/></g><g transform="matrix(0.125,0,0,0.125,0,0)"><g transform="matrix(1,0,0,1,0,0)"><path fill="#fce7e7" stroke="black" id="_E2A8304B-68A0-4CCC-8D47-1FA9352D4853?shapeType=BACKGROUND" paint-order="fill stroke markers" d=" M 0 0 M 444 224 C 444 263.9 434.2 300.8 414.4 334.5 C 394.7 368.2 368 394.9 334.4 414.5 C 300.79999999999995 434.1 263.9 444 224 444 C 184.10000000000002 444 147.2 434.2 113.5 414.4 C 79.8 394.7 53.1 368 33.5 334.4 C 13.899999999999999 300.79999999999995 4 263.9 4 224 C 4 184.10000000000002 13.8 147.2 33.6 113.5 C 53.400000000000006 79.80000000000001 80.1 53.1 113.6 33.5 C 147.1 13.899999999999999 184.1 4 224 4 C 263.9 4 300.8 13.8 334.5 33.6 C 368.2 53.400000000000006 394.9 80.1 414.5 113.6 C 434.1 147.1 444 184.1 444 224 Z" stroke-miterlimit="10" stroke-dasharray=""/></g><g><g transform="matrix(1,0,0,1,0,0)"><g transform="matrix(1,0,0,1,0,0)"><path fill="#a30000" stroke="black" id="_E2A8304B-68A0-4CCC-8D47-1FA9352D4853?shapeType=BORDER&amp;renderType=FILL" paint-order="fill stroke markers" d=" M 0 0 M 224 0 C 100.3 0 0 100.3 0 224 C 0 347.7 100.3 448 224 448 C 347.7 448 448 347.7 448 224 C 448 100.30000000000001 347.7 0 224 0 Z M 0 0 M 224 400 C 126.8 400 48 321.2 48 224 C 48 126.80000000000001 126.8 48 224 48 C 321.2 48 400 126.8 400 224 C 400 321.2 321.2 400 224 400 Z" stroke-miterlimit="10" stroke-dasharray=""/></g></g></g></g><g transform="matrix(1,0,0,1,28,61)"/></g><g transform="matrix(1,0,0,1,637,416)"/><g id="_2C2FFD79-4241-4F9E-A486-2482F817595E" bpmn2nodeid="_2C2FFD79-4241-4F9E-A486-2482F817595E"><g><path fill="none" stroke="#000000" paint-order="fill stroke markers" d=" M 135 246.5151515151515 L 180.18398046583962 253.65787165949888" stroke-miterlimit="10" stroke-dasharray=""/></g><g transform="matrix(1,0,0,1,135,246.5151515151515)"/><g transform="matrix(-0.15614188936674117,0.9877346356106909,-0.9877346356106909,-0.15614188936674117,195.7807094468337,251.06132682194655)"><path fill="#000000" stroke="#000000" paint-order="fill stroke markers" d=" M 10 15 L 0 15 L 5 0 Z" stroke-miterlimit="10" stroke-dasharray=""/></g><g transform="matrix(1,0,0,1,136.5614188936674,241.38022940146885)"/></g><g id="_A19108FE-08A2-4E80-B7A8-0254C49209A6" bpmn2nodeid="_A19108FE-08A2-4E80-B7A8-0254C49209A6"><g><path fill="none" stroke="#000000" paint-order="fill stroke markers" d=" M 349 256 L 394 256" stroke-miterlimit="10" stroke-dasharray=""/></g><g transform="matrix(1,0,0,1,349,256)"/><g transform="matrix(6.123233995736766e-17,1,-1,6.123233995736766e-17,409,251)"><path fill="#000000" stroke="#000000" paint-order="fill stroke markers" d=" M 10 15 L 0 15 L 5 0 Z" stroke-miterlimit="10" stroke-dasharray=""/></g><g transform="matrix(1,0,0,1,349,246)"/></g><g id="_D3E2F4B7-7739-452F-8D55-0C4F169D4A44" bpmn2nodeid="_D3E2F4B7-7739-452F-8D55-0C4F169D4A44"><g><path fill="none" stroke="#000000" paint-order="fill stroke markers" d=" M 586.6363636363636 255.36185499673417 L 622.0003871501558 255.10776991596884" stroke-miterlimit="10" stroke-dasharray=""/></g><g transform="matrix(1,0,0,1,586.6363636363636,255.36185499673417)"/><g transform="matrix(0.007184661064589786,0.9999741899896152,-0.9999741899896152,0.007184661064589786,636.964076694677,250.00012905005192)"><path fill="#000000" stroke="#000000" paint-order="fill stroke markers" d=" M 10 15 L 0 15 L 5 0 Z" stroke-miterlimit="10" stroke-dasharray=""/></g><g transform="matrix(1,0,0,1,586.7082102470094,245.18118559847093)"/></g><g id="_044AA388-325A-45DE-B783-4F48421B788B" bpmn2nodeid="_044AA388-325A-45DE-B783-4F48421B788B"><g><path fill="none" stroke="#000000" paint-order="fill stroke markers" d=" M 665 283 L 665 401" stroke-miterlimit="10" stroke-dasharray=""/></g><g transform="matrix(1,0,0,1,665,283)"/><g transform="matrix(-1,1.2246467991473532e-16,-1.2246467991473532e-16,-1,670,416)"><path fill="#000000" stroke="#000000" paint-order="fill stroke markers" d=" M 10 15 L 0 15 L 5 0 Z" stroke-miterlimit="10" stroke-dasharray=""/></g><g transform="matrix(1,0,0,1,675,336.5)"><text fill="#000000" stroke="none" font-family="Open Sans" font-size="10pt" font-style="normal" font-weight="normal" text-decoration="normal" x="0" y="10.4" text-anchor="start" dominant-baseline="alphabetic">license is expired        </text></g></g><g id="_8A36870E-651D-4E0A-B345-D5CFF2182F0F" bpmn2nodeid="_8A36870E-651D-4E0A-B345-D5CFF2182F0F"><g><path fill="none" stroke="#000000" paint-order="fill stroke markers" d=" M 693 260.39344262295083 L 786.0350254685696 254.02446926437085" stroke-miterlimit="10" stroke-dasharray=""/></g><g transform="matrix(1,0,0,1,693,260.39344262295083)"/><g transform="matrix(0.06829795095805669,0.9976649687620243,-0.9976649687620243,0.06829795095805669,800.6585102452098,248.01167515618988)"><path fill="#000000" stroke="#000000" paint-order="fill stroke markers" d=" M 10 15 L 0 15 L 5 0 Z" stroke-miterlimit="10" stroke-dasharray=""/></g><g transform="matrix(1,0,0,1,693.6829795095806,233.72007162385518)"><text fill="#000000" stroke="none" font-family="Open Sans" font-size="10pt" font-style="normal" font-weight="normal" text-decoration="normal" x="0" y="10.4" text-anchor="start" dominant-baseline="alphabetic">license is valid      </text></g></g><g id="_B8BD225A-B26C-4C0F-9852-ED3664524A14" bpmn2nodeid="_B8BD225A-B26C-4C0F-9852-ED3664524A14"><g><path fill="none" stroke="#000000" paint-order="fill stroke markers" d=" M 1017 253 L 1063 253" stroke-miterlimit="10" stroke-dasharray=""/></g><g transform="matrix(1,0,0,1,1017,253)"/><g transform="matrix(6.123233995736766e-17,1,-1,6.123233995736766e-17,1078,248)"><path fill="#000000" stroke="#000000" paint-order="fill stroke markers" d=" M 10 15 L 0 15 L 5 0 Z" stroke-miterlimit="10" stroke-dasharray=""/></g><g transform="matrix(1,0,0,1,1017,243)"/></g><g id="_249EB7E9-5847-47C9-8B4D-8BEFED257600" bpmn2nodeid="_249EB7E9-5847-47C9-8B4D-8BEFED257600"><g><path fill="none" stroke="#000000" paint-order="fill stroke markers" d=" M 1106 225 L 1106 128 L 1179 128" stroke-miterlimit="10" stroke-dasharray=""/></g><g transform="matrix(1,0,0,1,1106,225)"/><g transform="matrix(6.123233995736766e-17,1,-1,6.123233995736766e-17,1194,123)"><path fill="#000000" stroke="#000000" paint-order="fill stroke markers" d=" M 10 15 L 0 15 L 5 0 Z" stroke-miterlimit="10" stroke-dasharray=""/></g><g transform="matrix(1,0,0,1,1116,163.5)"><text fill="#000000" stroke="none" font-family="Open Sans" font-size="10pt" font-style="normal" font-weight="normal" text-decoration="normal" x="0" y="10.4" text-anchor="start" dominant-baseline="alphabetic">yes                      </text></g></g><g id="_1287C97D-3568-458A-A907-0123A64A93BE" bpmn2nodeid="_1287C97D-3568-458A-A907-0123A64A93BE"><g><path fill="none" stroke="#000000" paint-order="fill stroke markers" d=" M 1372 128 L 1423 128" stroke-miterlimit="10" stroke-dasharray=""/></g><g transform="matrix(1,0,0,1,1372,128)"/><g transform="matrix(6.123233995736766e-17,1,-1,6.123233995736766e-17,1438,123)"><path fill="#000000" stroke="#000000" paint-order="fill stroke markers" d=" M 10 15 L 0 15 L 5 0 Z" stroke-miterlimit="10" stroke-dasharray=""/></g><g transform="matrix(1,0,0,1,1372,118)"/></g><g id="_19CC68B6-D2DC-4E39-99E5-CE5B30C5FEE6" bpmn2nodeid="_19CC68B6-D2DC-4E39-99E5-CE5B30C5FEE6"><g><path fill="none" stroke="#000000" paint-order="fill stroke markers" d=" M 1106.0014853065527 281 L 1106.0080630141683 404.998519299508 L 1188.5000000004652 404.99916903935133" stroke-miterlimit="10" stroke-dasharray=""/></g><g transform="matrix(1,0,0,1,1106.0014853065527,281)"/><g transform="matrix(-0.000007876404254005258,0.9999999999689811,-0.9999999999689811,-0.000007876404254005258,1203.5000393820212,399.9992871855702)"><path fill="#000000" stroke="#000000" paint-order="fill stroke markers" d=" M 10 15 L 0 15 L 5 0 Z" stroke-miterlimit="10" stroke-dasharray=""/></g><g transform="matrix(1,0,0,1,1116.001485292483,329.9987291831288)"><text fill="#000000" stroke="none" font-family="Open Sans" font-size="10pt" font-style="normal" font-weight="normal" text-decoration="normal" x="0" y="10.4" text-anchor="start" dominant-baseline="alphabetic">no                               </text></g></g><g id="_521A00FC-6A79-44ED-8485-45DB97A621F2" bpmn2nodeid="_521A00FC-6A79-44ED-8485-45DB97A621F2"><g><path fill="none" stroke="#000000" paint-order="fill stroke markers" d=" M 1384.5 405 L 1430 405" stroke-miterlimit="10" stroke-dasharray=""/></g><g transform="matrix(1,0,0,1,1384.5,405)"/><g transform="matrix(6.123233995736766e-17,1,-1,6.123233995736766e-17,1445,400)"><path fill="#000000" stroke="#000000" paint-order="fill stroke markers" d=" M 10 15 L 0 15 L 5 0 Z" stroke-miterlimit="10" stroke-dasharray=""/></g><g transform="matrix(1,0,0,1,1384.5,395)"/></g></g></g></svg>