<?xml version="1.0" encoding="UTF-8" standalone="no"?><svg xmlns="http://www.w3.org/2000/svg" xmlns:xlink="http://www.w3.org/1999/xlink" contentScriptType="application/ecmascript" contentStyleType="text/css" height="847px" preserveAspectRatio="none" style="width:832px;height:847px;" version="1.1" viewBox="0 0 832 847" width="832px" zoomAndPan="magnify"><defs><filter height="300%" id="fe4gjhf" width="300%" x="-1" y="-1"><feGaussianBlur result="blurOut" stdDeviation="2.0"/><feColorMatrix in="blurOut" result="blurOut2" type="matrix" values="0 0 0 0 0 0 0 0 0 0 0 0 0 0 0 0 0 0 .4 0"/><feOffset dx="4.0" dy="4.0" in="blurOut2" result="blurOut3"/><feBlend in="SourceGraphic" in2="blurOut3" mode="normal"/></filter></defs><g><rect fill="#FFFFFF" filter="url(#fe4gjhf)" height="758.2969" rx="12.5" ry="12.5" style="stroke: #000000; stroke-width: 1.5;" width="819" x="6" y="8"/><rect fill="#FFFFFF" height="726" rx="12.5" ry="12.5" style="stroke: #FFFFFF; stroke-width: 1.0;" width="813" x="9" y="37.2969"/><line style="stroke: #000000; stroke-width: 1.5;" x1="6" x2="825" y1="34.2969" y2="34.2969"/><text fill="#000000" font-family="sans-serif" font-size="14" lengthAdjust="spacingAndGlyphs" textLength="308" x="261.5" y="25.9951">Order Fulfilment Workflow Saga example v1.0</text><rect fill="#F8F8FF" filter="url(#fe4gjhf)" height="78.2031" rx="12.5" ry="12.5" style="stroke: #BADA55; stroke-width: 1.5;" width="157" x="178" y="161.2969"/><line style="stroke: #BADA55; stroke-width: 1.5;" x1="178" x2="335" y1="187.5938" y2="187.5938"/><text fill="#000000" font-family="sans-serif" font-size="14" lengthAdjust="spacingAndGlyphs" textLength="91" x="211" y="179.292">reserveStock</text><text fill="#000000" font-family="sans-serif" font-size="12" lengthAdjust="spacingAndGlyphs" textLength="137" x="183" y="203.7324">Type: Operation State</text><text fill="#000000" font-family="sans-serif" font-size="12" lengthAdjust="spacingAndGlyphs" textLength="108" x="183" y="217.7012">Action mode: null</text><text fill="#000000" font-family="sans-serif" font-size="12" lengthAdjust="spacingAndGlyphs" textLength="114" x="183" y="231.6699">Num. of actions: 1</text><rect fill="#F8F8FF" filter="url(#fe4gjhf)" height="78.2031" rx="12.5" ry="12.5" style="stroke: #BADA55; stroke-width: 1.5;" width="157" x="178" y="275.2969"/><line style="stroke: #BADA55; stroke-width: 1.5;" x1="178" x2="335" y1="301.5938" y2="301.5938"/><text fill="#000000" font-family="sans-serif" font-size="14" lengthAdjust="spacingAndGlyphs" textLength="116" x="198.5" y="293.292">processPayment</text><text fill="#000000" font-family="sans-serif" font-size="12" lengthAdjust="spacingAndGlyphs" textLength="137" x="183" y="317.7324">Type: Operation State</text><text fill="#000000" font-family="sans-serif" font-size="12" lengthAdjust="spacingAndGlyphs" textLength="108" x="183" y="331.7012">Action mode: null</text><text fill="#000000" font-family="sans-serif" font-size="12" lengthAdjust="spacingAndGlyphs" textLength="114" x="183" y="345.6699">Num. of actions: 1</text><rect fill="#F8F8FF" filter="url(#fe4gjhf)" height="78.2031" rx="12.5" ry="12.5" style="stroke: #BADA55; stroke-width: 1.5;" width="157" x="178" y="389.2969"/><line style="stroke: #BADA55; stroke-width: 1.5;" x1="178" x2="335" y1="415.5938" y2="415.5938"/><text fill="#000000" font-family="sans-serif" font-size="14" lengthAdjust="spacingAndGlyphs" textLength="124" x="194.5" y="407.292">scheduleShipping</text><text fill="#000000" font-family="sans-serif" font-size="12" lengthAdjust="spacingAndGlyphs" textLength="137" x="183" y="431.7324">Type: Operation State</text><text fill="#000000" font-family="sans-serif" font-size="12" lengthAdjust="spacingAndGlyphs" textLength="108" x="183" y="445.7012">Action mode: null</text><text fill="#000000" font-family="sans-serif" font-size="12" lengthAdjust="spacingAndGlyphs" textLength="114" x="183" y="459.6699">Num. of actions: 1</text><rect fill="#F8F8FF" filter="url(#fe4gjhf)" height="50.2656" rx="12.5" ry="12.5" style="stroke: #1E5F74; stroke-width: 1.5;" width="129" x="31" y="517.2969"/><line style="stroke: #1E5F74; stroke-width: 1.5;" x1="31" x2="160" y1="543.5938" y2="543.5938"/><text fill="#000000" font-family="sans-serif" font-size="14" lengthAdjust="spacingAndGlyphs" textLength="83" x="54" y="535.292">ServiceError</text><text fill="#000000" font-family="sans-serif" font-size="12" lengthAdjust="spacingAndGlyphs" textLength="109" x="36" y="559.7324">Type: Inject State</text><rect fill="#F8F8FF" filter="url(#fe4gjhf)" height="78.2031" rx="12.5" ry="12.5" style="stroke: #BADA55; stroke-width: 1.5;" width="157" x="285" y="47.2969"/><line style="stroke: #BADA55; stroke-width: 1.5;" x1="285" x2="442" y1="73.5938" y2="73.5938"/><text fill="#000000" font-family="sans-serif" font-size="14" lengthAdjust="spacingAndGlyphs" textLength="86" x="320.5" y="65.292">CancelStock</text><text fill="#000000" font-family="sans-serif" font-size="12" lengthAdjust="spacingAndGlyphs" textLength="137" x="290" y="89.7324">Type: Operation State</text><text fill="#000000" font-family="sans-serif" font-size="12" lengthAdjust="spacingAndGlyphs" textLength="108" x="290" y="103.7012">Action mode: null</text><text fill="#000000" font-family="sans-serif" font-size="12" lengthAdjust="spacingAndGlyphs" textLength="114" x="290" y="117.6699">Num. of actions: 1</text><rect fill="#F8F8FF" filter="url(#fe4gjhf)" height="78.2031" rx="12.5" ry="12.5" style="stroke: #BADA55; stroke-width: 1.5;" width="157" x="460" y="47.2969"/><line style="stroke: #BADA55; stroke-width: 1.5;" x1="460" x2="617" y1="73.5938" y2="73.5938"/><text fill="#000000" font-family="sans-serif" font-size="14" lengthAdjust="spacingAndGlyphs" textLength="107" x="485" y="65.292">CancelPayment</text><text fill="#000000" font-family="sans-serif" font-size="12" lengthAdjust="spacingAndGlyphs" textLength="137" x="465" y="89.7324">Type: Operation State</text><text fill="#000000" font-family="sans-serif" font-size="12" lengthAdjust="spacingAndGlyphs" textLength="108" x="465" y="103.7012">Action mode: null</text><text fill="#000000" font-family="sans-serif" font-size="12" lengthAdjust="spacingAndGlyphs" textLength="114" x="465" y="117.6699">Num. of actions: 1</text><rect fill="#F8F8FF" filter="url(#fe4gjhf)" height="78.2031" rx="12.5" ry="12.5" style="stroke: #BADA55; stroke-width: 1.5;" width="157" x="635" y="47.2969"/><line style="stroke: #BADA55; stroke-width: 1.5;" x1="635" x2="792" y1="73.5938" y2="73.5938"/><text fill="#000000" font-family="sans-serif" font-size="14" lengthAdjust="spacingAndGlyphs" textLength="107" x="660" y="65.292">CancelShipping</text><text fill="#000000" font-family="sans-serif" font-size="12" lengthAdjust="spacingAndGlyphs" textLength="137" x="640" y="89.7324">Type: Operation State</text><text fill="#000000" font-family="sans-serif" font-size="12" lengthAdjust="spacingAndGlyphs" textLength="108" x="640" y="103.7012">Action mode: null</text><text fill="#000000" font-family="sans-serif" font-size="12" lengthAdjust="spacingAndGlyphs" textLength="114" x="640" y="117.6699">Num. of actions: 1</text><rect fill="#F8F8FF" filter="url(#fe4gjhf)" height="78.2031" rx="12.5" ry="12.5" style="stroke: #BADA55; stroke-width: 1.5;" width="157" x="17" y="617.2969"/><line style="stroke: #BADA55; stroke-width: 1.5;" x1="17" x2="174" y1="643.5938" y2="643.5938"/><text fill="#000000" font-family="sans-serif" font-size="14" lengthAdjust="spacingAndGlyphs" textLength="79" x="56" y="635.292">FailedOrder</text><text fill="#000000" font-family="sans-serif" font-size="12" lengthAdjust="spacingAndGlyphs" textLength="137" x="22" y="659.7324">Type: Operation State</text><text fill="#000000" font-family="sans-serif" font-size="12" lengthAdjust="spacingAndGlyphs" textLength="108" x="22" y="673.7012">Action mode: null</text><text fill="#000000" font-family="sans-serif" font-size="12" lengthAdjust="spacingAndGlyphs" textLength="114" x="22" y="687.6699">Num. of actions: 1</text><rect fill="#F8F8FF" filter="url(#fe4gjhf)" height="78.2031" rx="12.5" ry="12.5" style="stroke: #BADA55; stroke-width: 1.5;" width="157" x="178" y="503.2969"/><line style="stroke: #BADA55; stroke-width: 1.5;" x1="178" x2="335" y1="529.5938" y2="529.5938"/><text fill="#000000" font-family="sans-serif" font-size="14" lengthAdjust="spacingAndGlyphs" textLength="106" x="203.5" y="521.292">CompleteOrder</text><text fill="#000000" font-family="sans-serif" font-size="12" lengthAdjust="spacingAndGlyphs" textLength="137" x="183" y="545.7324">Type: Operation State</text><text fill="#000000" font-family="sans-serif" font-size="12" lengthAdjust="spacingAndGlyphs" textLength="108" x="183" y="559.7012">Action mode: null</text><text fill="#000000" font-family="sans-serif" font-size="12" lengthAdjust="spacingAndGlyphs" textLength="114" x="183" y="573.6699">Num. of actions: 1</text><rect fill="#F8F8FF" filter="url(#fe4gjhf)" height="50.2656" rx="12.5" ry="12.5" style="stroke: #1E5F74; stroke-width: 1.5;" width="129" x="192" y="631.2969"/><line style="stroke: #1E5F74; stroke-width: 1.5;" x1="192" x2="321" y1="657.5938" y2="657.5938"/><text fill="#000000" font-family="sans-serif" font-size="14" lengthAdjust="spacingAndGlyphs" textLength="86" x="213.5" y="649.292">EndSuccess</text><text fill="#000000" font-family="sans-serif" font-size="12" lengthAdjust="spacingAndGlyphs" textLength="109" x="197" y="673.7324">Type: Inject State</text><ellipse cx="256.5" cy="86.2969" fill="#008000" filter="url(#fe4gjhf)" rx="10" ry="10" style="stroke: none; stroke-width: 1.0;"/><ellipse cx="175.5" cy="741.2969" fill="none" filter="url(#fe4gjhf)" rx="10" ry="10" style="stroke: #FFA500; stroke-width: 1.0;"/><ellipse cx="176" cy="741.7969" fill="#FFA500" rx="6" ry="6" style="stroke: none; stroke-width: 1.0;"/><path d="M256.5,96.4669 C256.5,109.4769 256.5,134.1569 256.5,156.0769 " fill="none" style="stroke: #000000; stroke-width: 1.0;"/><polygon fill="#000000" points="256.5,161.2869,260.5,152.2869,256.5,156.2869,252.5,152.2869,256.5,161.2869" style="stroke: #000000; stroke-width: 1.0;"/><path d="M256.5,239.5269 C256.5,249.3469 256.5,259.9869 256.5,270.0369 " fill="none" style="stroke: #000000; stroke-width: 1.0;"/><polygon fill="#000000" points="256.5,275.2369,260.5,266.2369,256.5,270.2369,252.5,266.2369,256.5,275.2369" style="stroke: #000000; stroke-width: 1.0;"/><path d="M256.5,353.5269 C256.5,363.3469 256.5,373.9869 256.5,384.0369 " fill="none" style="stroke: #000000; stroke-width: 1.0;"/><polygon fill="#000000" points="256.5,389.2369,260.5,380.2369,256.5,384.2369,252.5,380.2369,256.5,389.2369" style="stroke: #000000; stroke-width: 1.0;"/><path d="M256.5,467.5269 C256.5,477.3469 256.5,487.9869 256.5,498.0369 " fill="none" style="stroke: #000000; stroke-width: 1.0;"/><polygon fill="#000000" points="256.5,503.2369,260.5,494.2369,256.5,498.2369,252.5,494.2369,256.5,503.2369" style="stroke: #000000; stroke-width: 1.0;"/><path d="M95.5,567.3269 C95.5,580.3769 95.5,596.9069 95.5,612.1169 " fill="none" style="stroke: #000000; stroke-width: 1.0;"/><polygon fill="#000000" points="95.5,617.2069,99.5,608.2069,95.5,612.2069,91.5,608.2069,95.5,617.2069" style="stroke: #000000; stroke-width: 1.0;"/><path d="M132.22,695.3969 C144.22,707.8469 156.62,720.7069 165.06,729.4569 " fill="none" style="stroke: #000000; stroke-width: 1.0;"/><polygon fill="#000000" points="168.86,733.4069,165.4922,724.1517,165.3893,729.8077,159.7334,729.7048,168.86,733.4069" style="stroke: #000000; stroke-width: 1.0;"/><path d="M256.5,581.5269 C256.5,596.0769 256.5,612.4069 256.5,625.9969 " fill="none" style="stroke: #000000; stroke-width: 1.0;"/><polygon fill="#000000" points="256.5,631.2469,260.5,622.2469,256.5,626.2469,252.5,622.2469,256.5,631.2469" style="stroke: #000000; stroke-width: 1.0;"/><path d="M233.07,681.3069 C217.46,697.3069 197.7,717.5569 185.86,729.6869 " fill="none" style="stroke: #000000; stroke-width: 1.0;"/><polygon fill="#000000" points="182.16,733.4669,191.309,729.8204,185.6525,729.8888,185.5841,724.2324,182.16,733.4669" style="stroke: #000000; stroke-width: 1.0;"/><rect fill="#FFFFFF" height="62.8906" rx="5" ry="5" style="stroke: #FFFFFF; stroke-width: 1.0;" width="615" x="113.5" y="784"/><text fill="#000000" font-family="sans-serif" font-size="14" lengthAdjust="spacingAndGlyphs" textLength="216" x="119.5" y="801.9951">State Types and Border Colors:</text><text fill="#000000" font-family="sans-serif" font-size="14" font-weight="bold" lengthAdjust="spacingAndGlyphs" textLength="44" x="124.5" y="820.292">Event</text><text fill="#000000" font-family="sans-serif" font-size="14" font-weight="bold" lengthAdjust="spacingAndGlyphs" textLength="78" x="178.5" y="820.292">Operation</text><text fill="#000000" font-family="sans-serif" font-size="14" font-weight="bold" lengthAdjust="spacingAndGlyphs" textLength="53" x="266.5" y="820.292">Switch</text><text fill="#000000" font-family="sans-serif" font-size="14" font-weight="bold" lengthAdjust="spacingAndGlyphs" textLength="43" x="329.5" y="820.292">Delay</text><text fill="#000000" font-family="sans-serif" font-size="14" font-weight="bold" lengthAdjust="spacingAndGlyphs" textLength="57" x="382.5" y="820.292">Parallel</text><text fill="#000000" font-family="sans-serif" font-size="14" font-weight="bold" lengthAdjust="spacingAndGlyphs" textLength="67" x="449.5" y="820.292">SubFlow</text><text fill="#000000" font-family="sans-serif" font-size="14" font-weight="bold" lengthAdjust="spacingAndGlyphs" textLength="43" x="526.5" y="820.292">Inject</text><text fill="#000000" font-family="sans-serif" font-size="14" font-weight="bold" lengthAdjust="spacingAndGlyphs" textLength="63" x="579.5" y="820.292">ForEach</text><text fill="#000000" font-family="sans-serif" font-size="14" font-weight="bold" lengthAdjust="spacingAndGlyphs" textLength="65" x="652.5" y="820.292">CallBack</text><rect fill="#7FE5F0" height="16.2969" style="stroke: none; stroke-width: 1.0;" width="54" x="119.5" y="823.5938"/><text fill="#000000" font-family="sans-serif" font-size="14" lengthAdjust="spacingAndGlyphs" textLength="0" x="123.5" y="836.5889"/><rect fill="#BADA55" height="16.2969" style="stroke: none; stroke-width: 1.0;" width="88" x="173.5" y="823.5938"/><text fill="#000000" font-family="sans-serif" font-size="14" lengthAdjust="spacingAndGlyphs" textLength="0" x="177.5" y="836.5889"/><rect fill="#92A0F2" height="16.2969" style="stroke: none; stroke-width: 1.0;" width="63" x="261.5" y="823.5938"/><text fill="#000000" font-family="sans-serif" font-size="14" lengthAdjust="spacingAndGlyphs" textLength="0" x="265.5" y="836.5889"/><rect fill="#B83B5E" height="16.2969" style="stroke: none; stroke-width: 1.0;" width="53" x="324.5" y="823.5938"/><text fill="#000000" font-family="sans-serif" font-size="14" lengthAdjust="spacingAndGlyphs" textLength="0" x="328.5" y="836.5889"/><rect fill="#6A2C70" height="16.2969" style="stroke: none; stroke-width: 1.0;" width="67" x="377.5" y="823.5938"/><text fill="#000000" font-family="sans-serif" font-size="14" lengthAdjust="spacingAndGlyphs" textLength="0" x="381.5" y="836.5889"/><rect fill="#87753C" height="16.2969" style="stroke: none; stroke-width: 1.0;" width="77" x="444.5" y="823.5938"/><text fill="#000000" font-family="sans-serif" font-size="14" lengthAdjust="spacingAndGlyphs" textLength="0" x="448.5" y="836.5889"/><rect fill="#1E5F74" height="16.2969" style="stroke: none; stroke-width: 1.0;" width="53" x="521.5" y="823.5938"/><text fill="#000000" font-family="sans-serif" font-size="14" lengthAdjust="spacingAndGlyphs" textLength="0" x="525.5" y="836.5889"/><rect fill="#931A25" height="16.2969" style="stroke: none; stroke-width: 1.0;" width="73" x="574.5" y="823.5938"/><text fill="#000000" font-family="sans-serif" font-size="14" lengthAdjust="spacingAndGlyphs" textLength="0" x="578.5" y="836.5889"/><rect fill="#FFCB8E" height="16.2969" style="stroke: none; stroke-width: 1.0;" width="75" x="647.5" y="823.5938"/><text fill="#000000" font-family="sans-serif" font-size="14" lengthAdjust="spacingAndGlyphs" textLength="0" x="651.5" y="836.5889"/><line style="stroke: #000000; stroke-width: 1.0;" x1="119.5" x2="722.5" y1="807.2969" y2="807.2969"/><line style="stroke: #000000; stroke-width: 1.0;" x1="119.5" x2="722.5" y1="823.5938" y2="823.5938"/><line style="stroke: #000000; stroke-width: 1.0;" x1="119.5" x2="722.5" y1="839.8906" y2="839.8906"/><line style="stroke: #000000; stroke-width: 1.0;" x1="119.5" x2="119.5" y1="807.2969" y2="839.8906"/><line style="stroke: #000000; stroke-width: 1.0;" x1="173.5" x2="173.5" y1="807.2969" y2="839.8906"/><line style="stroke: #000000; stroke-width: 1.0;" x1="261.5" x2="261.5" y1="807.2969" y2="839.8906"/><line style="stroke: #000000; stroke-width: 1.0;" x1="324.5" x2="324.5" y1="807.2969" y2="839.8906"/><line style="stroke: #000000; stroke-width: 1.0;" x1="377.5" x2="377.5" y1="807.2969" y2="839.8906"/><line style="stroke: #000000; stroke-width: 1.0;" x1="444.5" x2="444.5" y1="807.2969" y2="839.8906"/><line style="stroke: #000000; stroke-width: 1.0;" x1="521.5" x2="521.5" y1="807.2969" y2="839.8906"/><line style="stroke: #000000; stroke-width: 1.0;" x1="574.5" x2="574.5" y1="807.2969" y2="839.8906"/><line style="stroke: #000000; stroke-width: 1.0;" x1="647.5" x2="647.5" y1="807.2969" y2="839.8906"/><line style="stroke: #000000; stroke-width: 1.0;" x1="722.5" x2="722.5" y1="807.2969" y2="839.8906"/></g></svg>