<svg version="1.1" xmlns="http://www.w3.org/2000/svg" xmlns:xlink="http://www.w3.org/1999/xlink" width="374" height="636" viewBox="0 0 374 636"><defs/><g transform="matrix(1,0,0,1,0,0)"><g><g><g><path fill="none" stroke="#d3d3d3" paint-order="fill stroke markers" d=" M 0 0 L 1200 0" stroke-miterlimit="10" stroke-opacity="0.8" stroke-dasharray="5"/></g><g><path fill="none" stroke="#d3d3d3" paint-order="fill stroke markers" d=" M 0 0 L 0 800" stroke-miterlimit="10" stroke-opacity="0.8" stroke-dasharray="5"/></g></g><g id="_173FBEC8-DC01-4FD4-8564-BAE9819A5ED4" transform="matrix(1,0,0,1,172,50)"><g><path fill="none" stroke="none"/></g><g transform="matrix(1,0,0,1,0,0)"><g transform="matrix(1,0,0,1,25,25)"><path fill="#ffffff" stroke="none" id="_173FBEC8-DC01-4FD4-8564-BAE9819A5ED4?shapeType=BACKGROUND" paint-order="stroke fill markers" d=" M 25 0 A 25 25 0 1 0 24.99998750000104 0.02499999583334189 Z"/></g><g transform="matrix(1,0,0,1,25,25)"><path fill="none" stroke="#d5d5d5" id="_173FBEC8-DC01-4FD4-8564-BAE9819A5ED4?shapeType=BORDER&amp;renderType=STROKE" paint-order="fill stroke markers" d=" M 25 0 A 25 25 0 1 0 24.99998750000104 0.02499999583334189 Z" stroke-miterlimit="10" stroke-width="2" stroke-dasharray=""/></g></g><g transform="matrix(1,0,0,1,7.24609375,17.5)"><text fill="#000000" stroke="none" font-family="Open Sans" font-size="12pt" font-style="normal" font-weight="normal" text-decoration="normal" x="17.75390625" y="12" text-anchor="middle" dominant-baseline="alphabetic" fill-opacity="0.4">Start</text></g></g><g transform="matrix(1,0,0,1,172,50)"/><g id="_2EE0C88C-D378-4944-A761-3F0E2FA739DD" transform="matrix(1,0,0,1,172.5,539)"><g><path fill="none" stroke="none"/></g><g transform="matrix(1,0,0,1,0,0)"><path fill="#ffffff" stroke="none" id="_2EE0C88C-D378-4944-A761-3F0E2FA739DD?shapeType=BACKGROUND" paint-order="stroke fill markers" d=" M 0 0 L 49 0 L 49 47 L 0 47 L 0 0 Z Z"/></g><g transform="matrix(1,0,0,1,0,0)"><path fill="none" stroke="#d5d5d5" id="_2EE0C88C-D378-4944-A761-3F0E2FA739DD?shapeType=BORDER&amp;renderType=STROKE" paint-order="fill stroke markers" d=" M 0 0 L 49 0 L 49 47 L 0 47 L 0 0 Z Z" stroke-miterlimit="10" stroke-width="2" stroke-dasharray=""/></g><g transform="matrix(1,0,0,1,10.23828125,16)"><text fill="#000000" stroke="none" font-family="Open Sans" font-size="12pt" font-style="normal" font-weight="normal" text-decoration="normal" x="14.26171875" y="12" text-anchor="middle" dominant-baseline="alphabetic" fill-opacity="0.4">End</text></g></g><g transform="matrix(1,0,0,1,172.5,539)"/><g id="_0818409E-40BD-411A-9169-DCF73DF312BE" transform="matrix(1,0,0,1,70,185)"><g><path fill="none" stroke="none"/></g><g transform="matrix(1,0,0,1,0,0)"><path fill="#ffffff" stroke="none" id="_0818409E-40BD-411A-9169-DCF73DF312BE?shapeType=BACKGROUND" paint-order="stroke fill markers" d=" M 5 0 L 249 0 L 249 0 A 5 5 0 0 1 254 5 L 254 87 L 254 87 A 5 5 0 0 1 249 92 L 5 92 L 5 92 A 5 5 0 0 1 0 87 L 0 5 L 0 5.000000000000001 A 5 5 0 0 1 4.999999999999999 0 Z"/></g><g transform="matrix(1,0,0,1,0,0)"><path fill="none" stroke="#d5d5d5" id="_0818409E-40BD-411A-9169-DCF73DF312BE?shapeType=BORDER&amp;renderType=STROKE" paint-order="fill stroke markers" d=" M 10 0 L 244 0 L 244 0 A 10 10 0 0 1 254 10 L 254 82 L 254 82 A 10 10 0 0 1 244 92 L 10 92 L 10 92 A 10 10 0 0 1 0 82 L 0 10 L 0 10.000000000000002 A 10 10 0 0 1 9.999999999999998 0 Z" stroke-miterlimit="10" stroke-width="2" stroke-dasharray=""/></g><g transform="matrix(1,0,0,1,45,46)"><path fill="none" stroke="#d5d5d5" id="_0818409E-40BD-411A-9169-DCF73DF312BE_state-inner-circle" paint-order="fill stroke markers" d=" M 25 0 A 25 25 0 1 0 24.99998750000104 0.02499999583334189 Z" stroke-miterlimit="10" stroke-width="2" stroke-dasharray=""/></g><g transform="matrix(1,0,0,1,45,46)"><path fill="#8bc1f7" stroke="none" id="_0818409E-40BD-411A-9169-DCF73DF312BE_state-inner-circle-border" paint-order="stroke fill markers" d=" M 25 0 A 25 25 0 1 0 24.99998750000104 0.02499999583334189 Z"/></g><g><g transform="matrix(0.35,0,0,0.35,33.8,34.45)"><g transform="matrix(1,0,0,1,0,0)"><path fill="#ffffff" stroke="#ffffff" id="_0818409E-40BD-411A-9169-DCF73DF312BE_state__en2A__p1c1" paint-order="fill stroke markers" d=" M 0 0 M 35.02 28.49 C 35.02 28.49 34.99 28.459999999999997 34.970000000000006 28.45 L 24.680000000000007 18.16 C 22.900000000000006 16.38 20.000000000000007 16.37 18.220000000000006 18.16 C 16.430000000000007 19.95 16.440000000000005 22.84 18.220000000000006 24.62 L 21.030000000000005 27.43 L 4.57 27.43 C 2.0500000000000003 27.43 0 29.47 0 32 C 0 34.53 2.05 36.57 4.57 36.57 L 20.94 36.57 L 18.19 39.32 C 16.41 41.1 16.400000000000002 44 18.19 45.78 C 19.98 47.56 22.87 47.56 24.650000000000002 45.78 L 34.74 35.69 C 35.02 35.489999999999995 35.28 35.25 35.510000000000005 34.98 C 36.010000000000005 34.4 36.330000000000005 33.709999999999994 36.480000000000004 32.98 C 36.85 31.389999999999997 36.370000000000005 29.65 35.02 28.479999999999997 Z" stroke-miterlimit="10" stroke-width="3" stroke-dasharray=""/></g><g transform="matrix(1,0,0,1,0,0)"><path fill="#ffffff" stroke="#ffffff" id="_0818409E-40BD-411A-9169-DCF73DF312BE_state__en2A__Bb76" paint-order="fill stroke markers" d=" M 0 0 M 0.01 4.23 C 0.19 1.83 2.25 0 4.66 0 L 59.43 0 C 61.96 0 64 2.05 64 4.57 C 64 7.090000000000001 61.96 9.14 59.43 9.14 L 4.57 9.14 C 1.93 9.14 -0.18 6.91 0.01 4.23 Z" stroke-miterlimit="10" stroke-width="3" stroke-dasharray=""/></g><g transform="matrix(1,0,0,1,0,0)"><path fill="#ffffff" stroke="#ffffff" id="_0818409E-40BD-411A-9169-DCF73DF312BE_state__en2A__o2Y9" paint-order="fill stroke markers" d=" M 0 0 M 46.09 18.29 L 59.330000000000005 18.29 C 61.67 18.29 63.82000000000001 20.2 63.980000000000004 22.53 C 64.17 25.21 62.06 27.43 59.42 27.43 L 45.99 27.43 C 43.35 27.43 41.24 25.21 41.43 22.53 C 41.589999999999996 20.19 43.74 18.29 46.08 18.29 Z" stroke-miterlimit="10" stroke-width="3" stroke-dasharray=""/></g><g transform="matrix(1,0,0,1,0,0)"><path fill="#ffffff" stroke="#ffffff" id="_0818409E-40BD-411A-9169-DCF73DF312BE_state__en2A__bZrU" paint-order="fill stroke markers" d=" M 0 0 M 59.43 36.57 C 62.07 36.57 64.18 38.79 63.99 41.47 C 63.830000000000005 43.81 61.68 45.71 59.34 45.71 L 46.1 45.71 C 43.760000000000005 45.71 41.61 43.800000000000004 41.45 41.47 C 41.260000000000005 38.79 43.370000000000005 36.57 46.010000000000005 36.57 L 59.440000000000005 36.57 Z" stroke-miterlimit="10" stroke-width="3" stroke-dasharray=""/></g><g transform="matrix(1,0,0,1,0,0)"><path fill="#ffffff" stroke="#ffffff" id="_0818409E-40BD-411A-9169-DCF73DF312BE_state__en2A__8GvL" paint-order="fill stroke markers" d=" M 0 0 M 0 59.43 C 0 56.9 2.05 54.86 4.57 54.86 L 59.34 54.86 C 61.68000000000001 54.86 63.830000000000005 56.769999999999996 63.99 59.1 C 64.18 61.78 62.07 64 59.43 64 L 4.57 64 C 2.0500000000000003 64 0 61.96 0 59.43 Z" stroke-miterlimit="10" stroke-width="3" stroke-dasharray=""/></g></g></g><g transform="matrix(1,0,0,1,85,38.5)"><text fill="#000000" stroke="none" font-family="Open Sans" font-size="12pt" font-style="normal" font-weight="normal" text-decoration="normal" x="49.1328125" y="12" text-anchor="middle" dominant-baseline="alphabetic">SetConstants</text></g></g><g transform="matrix(1,0,0,1,70,185)"/><g id="_45850558-3D03-495D-A8C6-FE2B89B44D54" transform="matrix(1,0,0,1,70,362)"><g><path fill="none" stroke="none"/></g><g transform="matrix(1,0,0,1,0,0)"><path fill="#ffffff" stroke="none" id="_45850558-3D03-495D-A8C6-FE2B89B44D54?shapeType=BACKGROUND" paint-order="stroke fill markers" d=" M 5 0 L 249 0 L 249 0 A 5 5 0 0 1 254 5 L 254 87 L 254 87 A 5 5 0 0 1 249 92 L 5 92 L 5 92 A 5 5 0 0 1 0 87 L 0 5 L 0 5.000000000000001 A 5 5 0 0 1 4.999999999999999 0 Z"/></g><g transform="matrix(1,0,0,1,0,0)"><path fill="none" stroke="#d5d5d5" id="_45850558-3D03-495D-A8C6-FE2B89B44D54?shapeType=BORDER&amp;renderType=STROKE" paint-order="fill stroke markers" d=" M 10 0 L 244 0 L 244 0 A 10 10 0 0 1 254 10 L 254 82 L 254 82 A 10 10 0 0 1 244 92 L 10 92 L 10 92 A 10 10 0 0 1 0 82 L 0 10 L 0 10.000000000000002 A 10 10 0 0 1 9.999999999999998 0 Z" stroke-miterlimit="10" stroke-width="2" stroke-dasharray=""/></g><g transform="matrix(1,0,0,1,45,46)"><path fill="none" stroke="#d5d5d5" id="_45850558-3D03-495D-A8C6-FE2B89B44D54_state-inner-circle" paint-order="fill stroke markers" d=" M 25 0 A 25 25 0 1 0 24.99998750000104 0.02499999583334189 Z" stroke-miterlimit="10" stroke-width="2" stroke-dasharray=""/></g><g transform="matrix(1,0,0,1,45,46)"><path fill="#8f4700" stroke="none" id="_45850558-3D03-495D-A8C6-FE2B89B44D54_state-inner-circle-border" paint-order="stroke fill markers" d=" M 25 0 A 25 25 0 1 0 24.99998750000104 0.02499999583334189 Z"/></g><g><g transform="matrix(0.35,0,0,0.35,33.8,34.45)"><g transform="matrix(1,0,0,1,0,0)"><path fill="#ffffff" stroke="#ffffff" id="_45850558-3D03-495D-A8C6-FE2B89B44D54_state__aDNR__OnEr" paint-order="fill stroke markers" d=" M 0 0 M 64 32.22 L 64 59.459999999999994 C 64 61.8 62.09 63.949999999999996 59.76 64.11 C 57.08 64.3 54.86 62.19 54.86 59.55 L 54.86 32.12 C 54.86 29.479999999999997 57.08 27.369999999999997 59.76 27.56 C 62.099999999999994 27.72 64 29.869999999999997 64 32.21 Z" stroke-miterlimit="10" stroke-width="3" stroke-dasharray=""/></g><g transform="matrix(1,0,0,1,0,0)"><path fill="#ffffff" stroke="#ffffff" id="_45850558-3D03-495D-A8C6-FE2B89B44D54_state__aDNR__1XSl" paint-order="fill stroke markers" d=" M 0 0 M 45.71 59.56 C 45.71 62.2 43.49 64.31 40.81 64.12 C 38.47 63.96000000000001 36.57 61.81 36.57 59.470000000000006 L 36.57 32.230000000000004 C 36.57 29.890000000000004 38.48 27.740000000000002 40.81 27.580000000000005 C 43.49 27.390000000000004 45.71 29.500000000000007 45.71 32.14000000000001 L 45.71 59.57000000000001 Z" stroke-miterlimit="10" stroke-width="3" stroke-dasharray=""/></g><g transform="matrix(1,0,0,1,0,0)"><path fill="#ffffff" stroke="#ffffff" id="_45850558-3D03-495D-A8C6-FE2B89B44D54_state__aDNR__kNQN" paint-order="fill stroke markers" d=" M 0 0 M 27.43 4.79 L 27.43 32.03 C 27.43 34.370000000000005 25.52 36.52 23.189999999999998 36.68 C 20.509999999999998 36.87 18.29 34.76 18.29 32.12 L 18.29 4.7 C 18.29 2.07 20.51 -0.04 23.18 0.14 C 25.52 0.30000000000000004 27.42 2.45 27.42 4.79 Z" stroke-miterlimit="10" stroke-width="3" stroke-dasharray=""/></g><g transform="matrix(1,0,0,1,0,0)"><path fill="#ffffff" stroke="#ffffff" id="_45850558-3D03-495D-A8C6-FE2B89B44D54_state__aDNR__lQYJ" paint-order="fill stroke markers" d=" M 0 0 M 9.14 32.13 C 9.14 34.77 6.92 36.88 4.24 36.690000000000005 C 1.91 36.53 0 34.38 0 32.04 L 0 4.79 C 0 2.45 1.91 0.3 4.24 0.14 C 6.92 -0.04999999999999999 9.14 2.06 9.14 4.699999999999999 L 9.14 32.129999999999995 Z" stroke-miterlimit="10" stroke-width="3" stroke-dasharray=""/></g></g></g><g transform="matrix(1,0,0,1,85,38.5)"><text fill="#000000" stroke="none" font-family="Open Sans" font-size="12pt" font-style="normal" font-weight="normal" text-decoration="normal" x="48.99609375" y="12" text-anchor="middle" dominant-baseline="alphabetic">Computation</text></g></g><g transform="matrix(1,0,0,1,70,362)"/><g id="startEdge"><g><path fill="none" stroke="#757575" paint-order="fill stroke markers" d=" M 197 100 L 197 170" stroke-miterlimit="10" stroke-width="1.5" stroke-dasharray=""/></g><g transform="matrix(1,0,0,1,197,100)"/><g transform="matrix(-1,1.2246467991473532e-16,-1.2246467991473532e-16,-1,202,185)"><path fill="#757575" stroke="#757575" paint-order="fill stroke markers" d=" M 10 15 L 0 15 L 5 0 Z" stroke-miterlimit="10" stroke-width="1.5" stroke-dasharray=""/></g><g transform="matrix(1,0,0,1,207,142.5)"/></g><g id="_24120A4A-422A-4D09-BB2C-2D0123B7451A"><g><path fill="none" stroke="#757575" paint-order="fill stroke markers" d=" M 197 277 L 197 347" stroke-miterlimit="10" stroke-width="1.5" stroke-dasharray=""/></g><g transform="matrix(1,0,0,1,197,277)"/><g transform="matrix(-1,1.2246467991473532e-16,-1.2246467991473532e-16,-1,202,362)"><path fill="#757575" stroke="#757575" paint-order="fill stroke markers" d=" M 10 15 L 0 15 L 5 0 Z" stroke-miterlimit="10" stroke-width="1.5" stroke-dasharray=""/></g><g transform="matrix(1,0,0,1,207,319.5)"/></g><g id="_5B35762D-2B3A-47CF-900D-F897FC886C99"><g><path fill="none" stroke="#757575" paint-order="fill stroke markers" d=" M 197 454 L 197 524" stroke-miterlimit="10" stroke-width="1.5" stroke-dasharray=""/></g><g transform="matrix(1,0,0,1,197,454)"/><g transform="matrix(-1,1.2246467991473532e-16,-1.2246467991473532e-16,-1,202,539)"><path fill="#757575" stroke="#757575" paint-order="fill stroke markers" d=" M 10 15 L 0 15 L 5 0 Z" stroke-miterlimit="10" stroke-width="1.5" stroke-dasharray=""/></g><g transform="matrix(1,0,0,1,207,496.5)"/></g></g></g></svg>