<?xml version="1.0" encoding="UTF-8" standalone="no"?><svg xmlns="http://www.w3.org/2000/svg" xmlns:xlink="http://www.w3.org/1999/xlink" contentScriptType="application/ecmascript" contentStyleType="text/css" height="438px" preserveAspectRatio="none" style="width:624px;height:438px;" version="1.1" viewBox="0 0 624 438" width="624px" zoomAndPan="magnify"><defs><filter height="300%" id="fsex6ot" width="300%" x="-1" y="-1"><feGaussianBlur result="blurOut" stdDeviation="2.0"/><feColorMatrix in="blurOut" result="blurOut2" type="matrix" values="0 0 0 0 0 0 0 0 0 0 0 0 0 0 0 0 0 0 .4 0"/><feOffset dx="4.0" dy="4.0" in="blurOut2" result="blurOut3"/><feBlend in="SourceGraphic" in2="blurOut3" mode="normal"/></filter></defs><g><rect fill="#FFFFFF" filter="url(#fsex6ot)" height="349.2969" rx="12.5" ry="12.5" style="stroke: #000000; stroke-width: 1.5;" width="323" x="148.5" y="8"/><rect fill="#FFFFFF" height="317" rx="12.5" ry="12.5" style="stroke: #FFFFFF; stroke-width: 1.0;" width="317" x="151.5" y="37.2969"/><line style="stroke: #000000; stroke-width: 1.5;" x1="148.5" x2="471.5" y1="34.2969" y2="34.2969"/><text fill="#000000" font-family="sans-serif" font-size="14" lengthAdjust="spacingAndGlyphs" textLength="136" x="242" y="25.9951">Fraud Handling v1.0</text><rect fill="#F8F8FF" filter="url(#fsex6ot)" height="78.2031" rx="12.5" ry="12.5" style="stroke: #92A0F2; stroke-width: 1.5;" width="190" x="248" y="104.2969"/><line style="stroke: #92A0F2; stroke-width: 1.5;" x1="248" x2="438" y1="130.5938" y2="130.5938"/><text fill="#000000" font-family="sans-serif" font-size="14" lengthAdjust="spacingAndGlyphs" textLength="99" x="293.5" y="122.292">FraudHandling</text><text fill="#000000" font-family="sans-serif" font-size="12" lengthAdjust="spacingAndGlyphs" textLength="115" x="253" y="146.7324">Type: Switch State</text><text fill="#000000" font-family="sans-serif" font-size="12" lengthAdjust="spacingAndGlyphs" textLength="170" x="253" y="160.7012">Condition type: data-based</text><text fill="#000000" font-family="sans-serif" font-size="12" lengthAdjust="spacingAndGlyphs" textLength="133" x="253" y="174.6699">Num. of conditions: 2</text><rect fill="#F8F8FF" filter="url(#fsex6ot)" height="50.2656" rx="12.5" ry="12.5" style="stroke: #1E5F74; stroke-width: 1.5;" width="189" x="159.5" y="219.2969"/><line style="stroke: #1E5F74; stroke-width: 1.5;" x1="159.5" x2="348.5" y1="245.5938" y2="245.5938"/><text fill="#000000" font-family="sans-serif" font-size="14" lengthAdjust="spacingAndGlyphs" textLength="169" x="169.5" y="237.292">FraudVerificationNeeded</text><text fill="#000000" font-family="sans-serif" font-size="12" lengthAdjust="spacingAndGlyphs" textLength="109" x="164.5" y="261.7324">Type: Inject State</text><ellipse cx="343" cy="57.2969" fill="#008000" filter="url(#fsex6ot)" rx="10" ry="10" style="stroke: none; stroke-width: 1.0;"/><ellipse cx="315" cy="332.2969" fill="none" filter="url(#fsex6ot)" rx="10" ry="10" style="stroke: #FFA500; stroke-width: 1.0;"/><ellipse cx="315.5" cy="332.7969" fill="#FFA500" rx="6" ry="6" style="stroke: none; stroke-width: 1.0;"/><path d="M343,67.6069 C343,75.3769 343,87.0669 343,98.8969 " fill="none" style="stroke: #000000; stroke-width: 1.0;"/><polygon fill="#000000" points="343,103.9669,347,94.9669,343,98.9669,339,94.9669,343,103.9669" style="stroke: #000000; stroke-width: 1.0;"/><path d="M308.59,182.5769 C298.83,193.4269 288.39,205.0469 279.28,215.1769 " fill="none" style="stroke: #000000; stroke-width: 1.0;"/><polygon fill="#000000" points="275.72,219.1369,284.7062,215.1059,279.0577,215.414,278.7496,209.7656,275.72,219.1369" style="stroke: #000000; stroke-width: 1.0;"/><path d="M382.98,182.4469 C413.86,216.5869 446.86,266.8969 418,304.2969 C407.3,318.1669 355.99,326.2969 330.07,329.5869 " fill="none" style="stroke: #000000; stroke-width: 1.0;"/><polygon fill="#000000" points="324.94,330.2169,334.3626,333.083,329.9023,329.6037,333.3815,325.1434,324.94,330.2169" style="stroke: #000000; stroke-width: 1.0;"/><path d="M211.03,269.4969 C198.07,279.8769 189.51,292.3469 199,304.2969 C211.42,319.9369 271.12,327.3469 299.69,330.0369 " fill="none" style="stroke: #000000; stroke-width: 1.0;"/><polygon fill="#000000" points="304.97,330.5169,296.3741,325.7096,299.991,330.059,295.6415,333.676,304.97,330.5169" style="stroke: #000000; stroke-width: 1.0;"/><text fill="#000000" font-family="sans-serif" font-size="13" lengthAdjust="spacingAndGlyphs" textLength="217" x="200" y="300.3638">Produced Events: FraudEvaluation</text><rect fill="#FFFFFF" height="62.8906" rx="5" ry="5" style="stroke: #FFFFFF; stroke-width: 1.0;" width="615" x="8" y="375"/><text fill="#000000" font-family="sans-serif" font-size="14" lengthAdjust="spacingAndGlyphs" textLength="216" x="14" y="392.9951">State Types and Border Colors:</text><text fill="#000000" font-family="sans-serif" font-size="14" font-weight="bold" lengthAdjust="spacingAndGlyphs" textLength="44" x="19" y="411.292">Event</text><text fill="#000000" font-family="sans-serif" font-size="14" font-weight="bold" lengthAdjust="spacingAndGlyphs" textLength="78" x="73" y="411.292">Operation</text><text fill="#000000" font-family="sans-serif" font-size="14" font-weight="bold" lengthAdjust="spacingAndGlyphs" textLength="53" x="161" y="411.292">Switch</text><text fill="#000000" font-family="sans-serif" font-size="14" font-weight="bold" lengthAdjust="spacingAndGlyphs" textLength="43" x="224" y="411.292">Delay</text><text fill="#000000" font-family="sans-serif" font-size="14" font-weight="bold" lengthAdjust="spacingAndGlyphs" textLength="57" x="277" y="411.292">Parallel</text><text fill="#000000" font-family="sans-serif" font-size="14" font-weight="bold" lengthAdjust="spacingAndGlyphs" textLength="67" x="344" y="411.292">SubFlow</text><text fill="#000000" font-family="sans-serif" font-size="14" font-weight="bold" lengthAdjust="spacingAndGlyphs" textLength="43" x="421" y="411.292">Inject</text><text fill="#000000" font-family="sans-serif" font-size="14" font-weight="bold" lengthAdjust="spacingAndGlyphs" textLength="63" x="474" y="411.292">ForEach</text><text fill="#000000" font-family="sans-serif" font-size="14" font-weight="bold" lengthAdjust="spacingAndGlyphs" textLength="65" x="547" y="411.292">CallBack</text><rect fill="#7FE5F0" height="16.2969" style="stroke: none; stroke-width: 1.0;" width="54" x="14" y="414.5938"/><text fill="#000000" font-family="sans-serif" font-size="14" lengthAdjust="spacingAndGlyphs" textLength="0" x="18" y="427.5889"/><rect fill="#BADA55" height="16.2969" style="stroke: none; stroke-width: 1.0;" width="88" x="68" y="414.5938"/><text fill="#000000" font-family="sans-serif" font-size="14" lengthAdjust="spacingAndGlyphs" textLength="0" x="72" y="427.5889"/><rect fill="#92A0F2" height="16.2969" style="stroke: none; stroke-width: 1.0;" width="63" x="156" y="414.5938"/><text fill="#000000" font-family="sans-serif" font-size="14" lengthAdjust="spacingAndGlyphs" textLength="0" x="160" y="427.5889"/><rect fill="#B83B5E" height="16.2969" style="stroke: none; stroke-width: 1.0;" width="53" x="219" y="414.5938"/><text fill="#000000" font-family="sans-serif" font-size="14" lengthAdjust="spacingAndGlyphs" textLength="0" x="223" y="427.5889"/><rect fill="#6A2C70" height="16.2969" style="stroke: none; stroke-width: 1.0;" width="67" x="272" y="414.5938"/><text fill="#000000" font-family="sans-serif" font-size="14" lengthAdjust="spacingAndGlyphs" textLength="0" x="276" y="427.5889"/><rect fill="#87753C" height="16.2969" style="stroke: none; stroke-width: 1.0;" width="77" x="339" y="414.5938"/><text fill="#000000" font-family="sans-serif" font-size="14" lengthAdjust="spacingAndGlyphs" textLength="0" x="343" y="427.5889"/><rect fill="#1E5F74" height="16.2969" style="stroke: none; stroke-width: 1.0;" width="53" x="416" y="414.5938"/><text fill="#000000" font-family="sans-serif" font-size="14" lengthAdjust="spacingAndGlyphs" textLength="0" x="420" y="427.5889"/><rect fill="#931A25" height="16.2969" style="stroke: none; stroke-width: 1.0;" width="73" x="469" y="414.5938"/><text fill="#000000" font-family="sans-serif" font-size="14" lengthAdjust="spacingAndGlyphs" textLength="0" x="473" y="427.5889"/><rect fill="#FFCB8E" height="16.2969" style="stroke: none; stroke-width: 1.0;" width="75" x="542" y="414.5938"/><text fill="#000000" font-family="sans-serif" font-size="14" lengthAdjust="spacingAndGlyphs" textLength="0" x="546" y="427.5889"/><line style="stroke: #000000; stroke-width: 1.0;" x1="14" x2="617" y1="398.2969" y2="398.2969"/><line style="stroke: #000000; stroke-width: 1.0;" x1="14" x2="617" y1="414.5938" y2="414.5938"/><line style="stroke: #000000; stroke-width: 1.0;" x1="14" x2="617" y1="430.8906" y2="430.8906"/><line style="stroke: #000000; stroke-width: 1.0;" x1="14" x2="14" y1="398.2969" y2="430.8906"/><line style="stroke: #000000; stroke-width: 1.0;" x1="68" x2="68" y1="398.2969" y2="430.8906"/><line style="stroke: #000000; stroke-width: 1.0;" x1="156" x2="156" y1="398.2969" y2="430.8906"/><line style="stroke: #000000; stroke-width: 1.0;" x1="219" x2="219" y1="398.2969" y2="430.8906"/><line style="stroke: #000000; stroke-width: 1.0;" x1="272" x2="272" y1="398.2969" y2="430.8906"/><line style="stroke: #000000; stroke-width: 1.0;" x1="339" x2="339" y1="398.2969" y2="430.8906"/><line style="stroke: #000000; stroke-width: 1.0;" x1="416" x2="416" y1="398.2969" y2="430.8906"/><line style="stroke: #000000; stroke-width: 1.0;" x1="469" x2="469" y1="398.2969" y2="430.8906"/><line style="stroke: #000000; stroke-width: 1.0;" x1="542" x2="542" y1="398.2969" y2="430.8906"/><line style="stroke: #000000; stroke-width: 1.0;" x1="617" x2="617" y1="398.2969" y2="430.8906"/></g></svg>