<?xml version="1.0" encoding="UTF-8" standalone="no"?><svg xmlns="http://www.w3.org/2000/svg" xmlns:xlink="http://www.w3.org/1999/xlink" contentScriptType="application/ecmascript" contentStyleType="text/css" height="438px" preserveAspectRatio="none" style="width:634px;height:438px;" version="1.1" viewBox="0 0 634 438" width="634px" zoomAndPan="magnify"><defs><filter height="300%" id="fpc21ad" width="300%" x="-1" y="-1"><feGaussianBlur result="blurOut" stdDeviation="2.0"/><feColorMatrix in="blurOut" result="blurOut2" type="matrix" values="0 0 0 0 0 0 0 0 0 0 0 0 0 0 0 0 0 0 .4 0"/><feOffset dx="4.0" dy="4.0" in="blurOut2" result="blurOut3"/><feBlend in="SourceGraphic" in2="blurOut3" mode="normal"/></filter></defs><g><rect fill="#FFFFFF" filter="url(#fpc21ad)" height="349.2969" rx="12.5" ry="12.5" style="stroke: #000000; stroke-width: 1.5;" width="621" x="6" y="8"/><rect fill="#FFFFFF" height="317" rx="12.5" ry="12.5" style="stroke: #FFFFFF; stroke-width: 1.0;" width="615" x="9" y="37.2969"/><line style="stroke: #000000; stroke-width: 1.5;" x1="6" x2="627" y1="34.2969" y2="34.2969"/><text fill="#000000" font-family="sans-serif" font-size="14" lengthAdjust="spacingAndGlyphs" textLength="157" x="238" y="25.9951">Shipping Handling v1.0</text><rect fill="#F8F8FF" filter="url(#fpc21ad)" height="78.2031" rx="12.5" ry="12.5" style="stroke: #92A0F2; stroke-width: 1.5;" width="190" x="81" y="104.2969"/><line style="stroke: #92A0F2; stroke-width: 1.5;" x1="81" x2="271" y1="130.5938" y2="130.5938"/><text fill="#000000" font-family="sans-serif" font-size="14" lengthAdjust="spacingAndGlyphs" textLength="120" x="116" y="122.292">ShippingHandling</text><text fill="#000000" font-family="sans-serif" font-size="12" lengthAdjust="spacingAndGlyphs" textLength="115" x="86" y="146.7324">Type: Switch State</text><text fill="#000000" font-family="sans-serif" font-size="12" lengthAdjust="spacingAndGlyphs" textLength="170" x="86" y="160.7012">Condition type: data-based</text><text fill="#000000" font-family="sans-serif" font-size="12" lengthAdjust="spacingAndGlyphs" textLength="133" x="86" y="174.6699">Num. of conditions: 2</text><rect fill="#F8F8FF" filter="url(#fpc21ad)" height="50.2656" rx="12.5" ry="12.5" style="stroke: #1E5F74; stroke-width: 1.5;" width="146" x="17" y="219.2969"/><line style="stroke: #1E5F74; stroke-width: 1.5;" x1="17" x2="163" y1="245.5938" y2="245.5938"/><text fill="#000000" font-family="sans-serif" font-size="14" lengthAdjust="spacingAndGlyphs" textLength="126" x="27" y="237.292">DomesticShipping</text><text fill="#000000" font-family="sans-serif" font-size="12" lengthAdjust="spacingAndGlyphs" textLength="109" x="22" y="261.7324">Type: Inject State</text><rect fill="#F8F8FF" filter="url(#fpc21ad)" height="50.2656" rx="12.5" ry="12.5" style="stroke: #1E5F74; stroke-width: 1.5;" width="165" x="210.5" y="219.2969"/><line style="stroke: #1E5F74; stroke-width: 1.5;" x1="210.5" x2="375.5" y1="245.5938" y2="245.5938"/><text fill="#000000" font-family="sans-serif" font-size="14" lengthAdjust="spacingAndGlyphs" textLength="145" x="220.5" y="237.292">InternationalShipping</text><text fill="#000000" font-family="sans-serif" font-size="12" lengthAdjust="spacingAndGlyphs" textLength="109" x="215.5" y="261.7324">Type: Inject State</text><ellipse cx="176" cy="57.2969" fill="#008000" filter="url(#fpc21ad)" rx="10" ry="10" style="stroke: none; stroke-width: 1.0;"/><ellipse cx="177" cy="332.2969" fill="none" filter="url(#fpc21ad)" rx="10" ry="10" style="stroke: #FFA500; stroke-width: 1.0;"/><ellipse cx="177.5" cy="332.7969" fill="#FFA500" rx="6" ry="6" style="stroke: none; stroke-width: 1.0;"/><path d="M176,67.6069 C176,75.3769 176,87.0669 176,98.8969 " fill="none" style="stroke: #000000; stroke-width: 1.0;"/><polygon fill="#000000" points="176,103.9669,180,94.9669,176,98.9669,172,94.9669,176,103.9669" style="stroke: #000000; stroke-width: 1.0;"/><path d="M142.75,182.5769 C133.32,193.4269 123.23,205.0469 114.42,215.1769 " fill="none" style="stroke: #000000; stroke-width: 1.0;"/><polygon fill="#000000" points="110.99,219.1369,119.9179,214.9785,114.2744,215.3669,113.886,209.7234,110.99,219.1369" style="stroke: #000000; stroke-width: 1.0;"/><path d="M221.24,182.5769 C234.29,193.6169 248.28,205.4569 260.41,215.7169 " fill="none" style="stroke: #000000; stroke-width: 1.0;"/><polygon fill="#000000" points="264.44,219.1369,260.1548,210.2691,260.6236,215.9065,254.9862,216.3754,264.44,219.1369" style="stroke: #000000; stroke-width: 1.0;"/><path d="M44.69,269.4069 C31.02,279.7769 21.99,292.2569 32,304.2969 C48.39,324.0169 127.89,329.4069 161.71,330.8169 " fill="none" style="stroke: #000000; stroke-width: 1.0;"/><polygon fill="#000000" points="166.73,331.0169,157.8971,326.6604,161.734,330.817,157.5773,334.654,166.73,331.0169" style="stroke: #000000; stroke-width: 1.0;"/><text fill="#000000" font-family="sans-serif" font-size="13" lengthAdjust="spacingAndGlyphs" textLength="267" x="33" y="300.3638">Produced Events: DomesticShippingOrder</text><path d="M303.96,269.3769 C307.51,281.0669 308.78,294.6369 301,304.2969 C287.47,321.0969 222.09,327.9869 192.1,330.3069 " fill="none" style="stroke: #000000; stroke-width: 1.0;"/><polygon fill="#000000" points="186.93,330.6869,196.1928,334.0336,191.9172,330.3296,195.6212,326.054,186.93,330.6869" style="stroke: #000000; stroke-width: 1.0;"/><text fill="#000000" font-family="sans-serif" font-size="13" lengthAdjust="spacingAndGlyphs" textLength="286" x="307" y="300.3638">Produced Events: InternationalShippingOrder</text><rect fill="#FFFFFF" height="62.8906" rx="5" ry="5" style="stroke: #FFFFFF; stroke-width: 1.0;" width="615" x="14.5" y="375"/><text fill="#000000" font-family="sans-serif" font-size="14" lengthAdjust="spacingAndGlyphs" textLength="216" x="20.5" y="392.9951">State Types and Border Colors:</text><text fill="#000000" font-family="sans-serif" font-size="14" font-weight="bold" lengthAdjust="spacingAndGlyphs" textLength="44" x="25.5" y="411.292">Event</text><text fill="#000000" font-family="sans-serif" font-size="14" font-weight="bold" lengthAdjust="spacingAndGlyphs" textLength="78" x="79.5" y="411.292">Operation</text><text fill="#000000" font-family="sans-serif" font-size="14" font-weight="bold" lengthAdjust="spacingAndGlyphs" textLength="53" x="167.5" y="411.292">Switch</text><text fill="#000000" font-family="sans-serif" font-size="14" font-weight="bold" lengthAdjust="spacingAndGlyphs" textLength="43" x="230.5" y="411.292">Delay</text><text fill="#000000" font-family="sans-serif" font-size="14" font-weight="bold" lengthAdjust="spacingAndGlyphs" textLength="57" x="283.5" y="411.292">Parallel</text><text fill="#000000" font-family="sans-serif" font-size="14" font-weight="bold" lengthAdjust="spacingAndGlyphs" textLength="67" x="350.5" y="411.292">SubFlow</text><text fill="#000000" font-family="sans-serif" font-size="14" font-weight="bold" lengthAdjust="spacingAndGlyphs" textLength="43" x="427.5" y="411.292">Inject</text><text fill="#000000" font-family="sans-serif" font-size="14" font-weight="bold" lengthAdjust="spacingAndGlyphs" textLength="63" x="480.5" y="411.292">ForEach</text><text fill="#000000" font-family="sans-serif" font-size="14" font-weight="bold" lengthAdjust="spacingAndGlyphs" textLength="65" x="553.5" y="411.292">CallBack</text><rect fill="#7FE5F0" height="16.2969" style="stroke: none; stroke-width: 1.0;" width="54" x="20.5" y="414.5938"/><text fill="#000000" font-family="sans-serif" font-size="14" lengthAdjust="spacingAndGlyphs" textLength="0" x="24.5" y="427.5889"/><rect fill="#BADA55" height="16.2969" style="stroke: none; stroke-width: 1.0;" width="88" x="74.5" y="414.5938"/><text fill="#000000" font-family="sans-serif" font-size="14" lengthAdjust="spacingAndGlyphs" textLength="0" x="78.5" y="427.5889"/><rect fill="#92A0F2" height="16.2969" style="stroke: none; stroke-width: 1.0;" width="63" x="162.5" y="414.5938"/><text fill="#000000" font-family="sans-serif" font-size="14" lengthAdjust="spacingAndGlyphs" textLength="0" x="166.5" y="427.5889"/><rect fill="#B83B5E" height="16.2969" style="stroke: none; stroke-width: 1.0;" width="53" x="225.5" y="414.5938"/><text fill="#000000" font-family="sans-serif" font-size="14" lengthAdjust="spacingAndGlyphs" textLength="0" x="229.5" y="427.5889"/><rect fill="#6A2C70" height="16.2969" style="stroke: none; stroke-width: 1.0;" width="67" x="278.5" y="414.5938"/><text fill="#000000" font-family="sans-serif" font-size="14" lengthAdjust="spacingAndGlyphs" textLength="0" x="282.5" y="427.5889"/><rect fill="#87753C" height="16.2969" style="stroke: none; stroke-width: 1.0;" width="77" x="345.5" y="414.5938"/><text fill="#000000" font-family="sans-serif" font-size="14" lengthAdjust="spacingAndGlyphs" textLength="0" x="349.5" y="427.5889"/><rect fill="#1E5F74" height="16.2969" style="stroke: none; stroke-width: 1.0;" width="53" x="422.5" y="414.5938"/><text fill="#000000" font-family="sans-serif" font-size="14" lengthAdjust="spacingAndGlyphs" textLength="0" x="426.5" y="427.5889"/><rect fill="#931A25" height="16.2969" style="stroke: none; stroke-width: 1.0;" width="73" x="475.5" y="414.5938"/><text fill="#000000" font-family="sans-serif" font-size="14" lengthAdjust="spacingAndGlyphs" textLength="0" x="479.5" y="427.5889"/><rect fill="#FFCB8E" height="16.2969" style="stroke: none; stroke-width: 1.0;" width="75" x="548.5" y="414.5938"/><text fill="#000000" font-family="sans-serif" font-size="14" lengthAdjust="spacingAndGlyphs" textLength="0" x="552.5" y="427.5889"/><line style="stroke: #000000; stroke-width: 1.0;" x1="20.5" x2="623.5" y1="398.2969" y2="398.2969"/><line style="stroke: #000000; stroke-width: 1.0;" x1="20.5" x2="623.5" y1="414.5938" y2="414.5938"/><line style="stroke: #000000; stroke-width: 1.0;" x1="20.5" x2="623.5" y1="430.8906" y2="430.8906"/><line style="stroke: #000000; stroke-width: 1.0;" x1="20.5" x2="20.5" y1="398.2969" y2="430.8906"/><line style="stroke: #000000; stroke-width: 1.0;" x1="74.5" x2="74.5" y1="398.2969" y2="430.8906"/><line style="stroke: #000000; stroke-width: 1.0;" x1="162.5" x2="162.5" y1="398.2969" y2="430.8906"/><line style="stroke: #000000; stroke-width: 1.0;" x1="225.5" x2="225.5" y1="398.2969" y2="430.8906"/><line style="stroke: #000000; stroke-width: 1.0;" x1="278.5" x2="278.5" y1="398.2969" y2="430.8906"/><line style="stroke: #000000; stroke-width: 1.0;" x1="345.5" x2="345.5" y1="398.2969" y2="430.8906"/><line style="stroke: #000000; stroke-width: 1.0;" x1="422.5" x2="422.5" y1="398.2969" y2="430.8906"/><line style="stroke: #000000; stroke-width: 1.0;" x1="475.5" x2="475.5" y1="398.2969" y2="430.8906"/><line style="stroke: #000000; stroke-width: 1.0;" x1="548.5" x2="548.5" y1="398.2969" y2="430.8906"/><line style="stroke: #000000; stroke-width: 1.0;" x1="623.5" x2="623.5" y1="398.2969" y2="430.8906"/></g></svg>