<svg version="1.1" xmlns="http://www.w3.org/2000/svg" xmlns:xlink="http://www.w3.org/1999/xlink" width="777" height="1844" viewBox="0 0 777 1844"><defs/><g transform="matrix(1,0,0,1,0,0)"><g><g id="_6ACA1BD8-F06A-4BFA-8C04-EFBE1FFE0CCB" transform="matrix(1,0,0,1,302,50)"><g><path fill="#fff" stroke="#ccc" id="_6ACA1BD8-F06A-4BFA-8C04-EFBE1FFE0CCB?shapeType=BACKGROUND" paint-order="fill stroke markers" d=" M 25 0 L 25 0 L 25 0 A 25 25 0 0 1 50 25 L 50 25 L 50 25 A 25 25 0 0 1 25 50 L 25 50 L 25 50 A 25 25 0 0 1 0 25.000000000000004 L 0 25 L 0 25.000000000000004 A 25 25 0 0 1 25 0 Z" stroke-miterlimit="10" stroke-width="2" stroke-dasharray=""/></g><g id="_6ACA1BD8-F06A-4BFA-8C04-EFBE1FFE0CCB" transform="matrix(1,0,0,1,2,17)"><text fill="#929292" stroke="none" font-family="Open Sans" font-size="12pt" font-style="normal" font-weight="normal" text-decoration="normal" x="25" y="12" text-anchor="middle" dominant-baseline="alphabetic"> Start  </text></g></g><g id="_152B0EDB-793E-46BE-AC78-73CCEA2CCDDD" transform="matrix(1,0,0,1,202,229)"><g><path fill="rgb(255,255,255)" stroke="rgb(204,204,204)" id="_152B0EDB-793E-46BE-AC78-73CCEA2CCDDD?shapeType=BACKGROUND" paint-order="fill stroke markers" d=" M 0 5 L 0 5 L 0 5.000000000000001 A 5 5 0 0 1 5 0 L 245 0 L 245 0 L 245 0 A 5 5 0 0 1 250 5 L 250 85 L 250 85 L 250 85 A 5 5 0 0 1 245 90 L 5 90 L 5 90 L 5 90 A 5 5 0 0 1 0 85 Z" stroke-miterlimit="10" stroke-width="2" stroke-dasharray=""/></g><g transform="matrix(1,0,0,1,90,35)"><text fill="#383B3D" stroke="none" font-family="Open Sans" font-size="12pt" font-style="normal" font-weight="normal" text-decoration="normal" x="57.22265625" y="12" text-anchor="middle" dominant-baseline="central">Order Received</text></g><g transform="matrix(1,0,0,1,45,46)"><g id="_152B0EDB-793E-46BE-AC78-73CCEA2CCDDD"><path fill="#F4C145" stroke="#d5d5d5" id="_152B0EDB-793E-46BE-AC78-73CCEA2CCDDD" paint-order="fill stroke markers" d=" M 0 -25 L 0 -25 L 1.5308084989341915e-15 -25 A 25 25 0 0 1 25 0 L 25 0 L 25 0 A 25 25 0 0 1 1.5308084989341915e-15 25 L 0 25 L 1.5308084989341915e-15 25 A 25 25 0 0 1 -25 3.061616997868383e-15 L -25 0 L -25 3.061616997868383e-15 A 25 25 0 0 1 1.5308084989341915e-15 -25 Z" stroke-miterlimit="10" stroke-dasharray=""/></g><g><g transform="matrix(0.35,0,0,0.35,-11,-11)"><path fill="#fff" stroke="#fff" paint-order="fill stroke markers" d=" M 0 0 M 45.254 45.197 L 36.216 45.197 L 42.206 31.792 C 42.613 30.98 42.307 29.965 41.597 29.355 C 40.887 28.746 39.768 28.849 39.06 29.457 L 19.561 45.705 C 18.953 46.215 18.646 47.128 18.953 47.939 C 19.258 48.754 19.968 49.262 20.883 49.262 L 29.921 49.262 L 23.928 62.667 C 23.521 63.478 23.825 64.493 24.538 65.103 C 24.943 65.51 25.247 65.609 25.756 65.609 C 26.263 65.609 26.67 65.406 27.076 65.103 L 46.573 48.854 C 47.183 48.347 47.488 47.431 47.183 46.62 C 46.879 45.808 46.066 45.197 45.254 45.197 Z M 0 0 M 53.378 16.865 C 53.275 16.865 53.275 16.865 53.175 16.865 C 53.275 16.153 53.378 15.543 53.378 14.834 C 53.378 9.247 48.808 4.679 43.222 4.679 C 40.073 4.679 37.333 6.101 35.505 8.334 C 33.068 3.765 28.394 0.615 22.911 0.615 C 15.094 0.615 8.694 7.014 8.694 14.834 C 8.694 15.747 8.794 16.661 8.997 17.575 C 4.023 19.2 0.469 23.872 0.571 29.355 C 0.773 36.057 6.258 41.237 12.858 41.237 L 18.646 41.237 L 36.419 26.41 C 37.535 25.496 38.856 24.989 40.276 24.989 C 41.597 24.989 42.919 25.396 43.932 26.207 C 46.169 27.933 46.981 30.98 45.761 33.521 L 42.511 41.237 L 53.275 41.237 C 59.878 41.237 65.36 36.057 65.563 29.457 C 65.766 22.552 60.285 16.865 53.378 16.865 Z" stroke-miterlimit="10" stroke-width="2" stroke-dasharray=""/></g></g></g></g><g id="_3BFF2FF4-3DFC-432A-B316-5F37CC251A37" transform="matrix(1,0,0,1,202,446)"><g><path fill="#fff" stroke="#ccc" id="_3BFF2FF4-3DFC-432A-B316-5F37CC251A37?shapeType=BACKGROUND" paint-order="fill stroke markers" d=" M 0 5 L 0 5 L 0 5.000000000000001 A 5 5 0 0 1 5 0 L 245 0 L 245 0 L 245 0 A 5 5 0 0 1 250 5 L 250 85 L 250 85 L 250 85 A 5 5 0 0 1 245 90 L 5 90 L 5 90 L 5 90 A 5 5 0 0 1 0 85 Z" stroke-miterlimit="10" stroke-width="2" stroke-dasharray=""/></g><g transform="matrix(1,0,0,1,90,35)"><text fill="#383B3D" stroke="none" font-family="Open Sans" font-size="12pt" font-style="normal" font-weight="normal" text-decoration="normal" x="60.03125" y="12" text-anchor="middle" dominant-baseline="central">Check Inventory</text></g><g transform="matrix(1,0,0,1,45,46)"><g id="_3BFF2FF4-3DFC-432A-B316-5F37CC251A37"><path fill="#0066CC" stroke="#d5d5d5" id="_3BFF2FF4-3DFC-432A-B316-5F37CC251A37" paint-order="fill stroke markers" d=" M 0 -25 L 0 -25 L 1.5308084989341915e-15 -25 A 25 25 0 0 1 25 0 L 25 0 L 25 0 A 25 25 0 0 1 1.5308084989341915e-15 25 L 0 25 L 1.5308084989341915e-15 25 A 25 25 0 0 1 -25 3.061616997868383e-15 L -25 0 L -25 3.061616997868383e-15 A 25 25 0 0 1 1.5308084989341915e-15 -25 Z" stroke-miterlimit="10" stroke-dasharray=""/></g><g><g transform="matrix(0.35,0,0,0.35,-11,-11)"><path fill="#fff" stroke="#fff" paint-order="fill stroke markers" d=" M 0 0 M 61.99 20.83 C 62.4 21.9 62.050000000000004 23.119999999999997 61.2 23.9 L 55.790000000000006 28.83 C 55.93000000000001 29.869999999999997 56.00000000000001 30.93 56.00000000000001 32 C 56.00000000000001 33.07 55.92000000000001 34.14 55.790000000000006 35.17 L 61.2 40.09 C 62.050000000000004 40.88 62.400000000000006 42.09 61.99 43.17 C 61.440000000000005 44.660000000000004 60.78 46.09 60.03 47.46 L 59.44 48.47 C 58.61 49.85 57.69 51.15 56.68 52.379999999999995 C 55.93 53.269999999999996 54.72 53.58 53.62 53.23 L 46.66 51.01 C 44.98 52.3 43.019999999999996 53.37 41.16 54.199999999999996 L 39.599999999999994 61.339999999999996 C 39.349999999999994 62.459999999999994 38.48 63.26 37.31999999999999 63.559999999999995 C 35.599999999999994 63.849999999999994 33.81999999999999 63.99999999999999 31.89999999999999 63.99999999999999 C 30.199999999999992 63.99999999999999 28.41999999999999 63.849999999999994 26.699999999999992 63.559999999999995 C 25.549999999999994 63.26 24.679999999999993 62.459999999999994 24.429999999999993 61.339999999999996 L 22.869999999999994 54.199999999999996 C 20.889999999999993 53.37 19.039999999999992 52.3 17.369999999999994 51.01 L 10.409999999999993 53.23 C 9.309999999999993 53.58 8.089999999999993 53.269999999999996 7.3499999999999925 52.379999999999995 C 6.339999999999993 51.13999999999999 5.409999999999993 49.839999999999996 4.589999999999993 48.47 L 3.999999999999993 47.46 C 3.239999999999993 46.1 2.579999999999993 44.660000000000004 2.029999999999993 43.17 C 1.6299999999999932 42.09 1.969999999999993 40.88 2.819999999999993 40.09 L 8.229999999999993 35.17 C 8.089999999999993 34.13 8.019999999999992 33.07 8.019999999999992 32 C 8.019999999999992 30.93 8.089999999999993 29.86 8.229999999999993 28.83 L 2.819999999999993 23.9 C 1.9599999999999933 23.11 1.6199999999999932 21.91 2.029999999999993 20.83 C 2.579999999999993 19.34 3.249999999999993 17.9 3.999999999999993 16.54 L 4.579999999999993 15.53 C 5.409999999999993 14.149999999999999 6.329999999999993 12.86 7.3499999999999925 11.62 C 8.089999999999993 10.729999999999999 9.309999999999992 10.42 10.409999999999993 10.77 L 17.369999999999994 12.99 C 19.039999999999992 11.7 20.889999999999993 10.620000000000001 22.869999999999994 9.81 L 24.429999999999993 2.670000000000001 C 24.679999999999993 1.540000000000001 25.549999999999994 0.6300000000000008 26.699999999999992 0.44000000000000083 C 28.429999999999993 0.15000000000000085 30.199999999999992 8.326672684688674e-16 32.00999999999999 8.326672684688674e-16 C 33.81999999999999 8.326672684688674e-16 35.599999999999994 0.15000000000000083 37.31999999999999 0.44000000000000083 C 38.46999999999999 0.6300000000000008 39.349999999999994 1.530000000000001 39.599999999999994 2.670000000000001 L 41.16 9.81 C 43.019999999999996 10.63 44.98 11.700000000000001 46.66 12.99 L 53.62 10.77 C 54.72 10.42 55.93 10.73 56.68 11.62 C 57.69 12.85 58.62 14.149999999999999 59.44 15.53 L 60.03 16.54 C 60.78 17.9 61.44 19.34 61.99 20.83 L 61.99 20.83 Z M 0 0 M 32 42 C 37.53 42 42 37.53 42 31.89 C 42 26.25 37.53 21.89 32 21.89 C 26.47 21.89 22 26.48 22 31.89 C 22 37.3 26.48 42 32 42 Z" stroke-miterlimit="10" stroke-width="2" stroke-dasharray=""/></g></g></g><g transform="matrix(1,0,0,1,224,6)"><g><path fill="white" stroke="white" paint-order="fill stroke markers" d=" M 9 0 L 11 0 L 10.999999999999998 0 A 9 9 0 0 1 20 9 L 20 11 L 20 11 A 9 9 0 0 1 11 20 L 9 20 L 9 20 A 9 9 0 0 1 0 11.000000000000002 L 0 9 L 0 9.000000000000002 A 9 9 0 0 1 8.999999999999998 0 Z" fill-opacity="0.001" stroke-miterlimit="10" stroke-opacity="0.001" stroke-dasharray=""/></g><g transform="matrix(1,0,0,1,20,10)"/><g transform="matrix(2,0,0,2,0,0)"><path fill="#CCC" stroke="none" paint-order="stroke fill markers" d=" M 0 0 M 2.175 3.286 C 1.743 3.286 1.394 3.637 1.394 4.067 C 1.394 4.498 1.745 4.849 2.175 4.849 C 2.605 4.849 2.956 4.498 2.956 4.067 C 2.956 3.637 2.606 3.286 2.175 3.286 Z M 0 0 M 2.175 4.38 C 2.003 4.38 1.863 4.239 1.863 4.067 C 1.863 3.896 2.003 3.755 2.175 3.755 C 2.346 3.755 2.487 3.896 2.487 4.067 C 2.487 4.239 2.346 4.38 2.175 4.38 Z M 0 0 M 1.875 0.312 C 1.185 0.312 0.625 0.873 0.625 1.563 C 0.625 2.254 1.185 2.813 1.875 2.813 C 2.565 2.813 3.125 2.253 3.125 1.563 C 3.125 0.874 2.565 0.312 1.875 0.312 Z M 0 0 M 1.875 2.032 C 1.616 2.032 1.406 1.822 1.406 1.563 C 1.406 1.304 1.616 1.094 1.875 1.094 C 2.134 1.094 2.344 1.304 2.344 1.563 C 2.344 1.822 2.134 2.032 1.875 2.032 Z M 0 0 M 8.641 2.285 L 7.704 2.208 C 7.665 2.085 7.683 2.121 7.626 2 C 7.75 1.829 8.078 1.493 8.205 1.321 C 8.222 1.296 8.235 1.269 8.235 1.238 C 8.235 1.115 7.716 0.64 7.603 0.535 C 7.577 0.513 7.546 0.5 7.511 0.5 C 7.48 0.5 7.449 0.509 7.423 0.53 L 6.772 1.1 C 6.666 1.047 6.65 1.047 6.535 1.012 L 6.475 0.112 C 6.47 0.048 6.408 0 6.346 0 L 5.53 0 C 5.469 0 5.416 0.044 5.399 0.106 C 5.343 0.32 5.371 0.796 5.348 1.017 C 5.23 1.056 5.241 1.065 5.129 1.122 L 4.452 0.528 C 4.427 0.511 4.395 0.498 4.36 0.498 C 4.233 0.498 3.74 1.031 3.654 1.149 C 3.631 1.174 3.623 1.205 3.623 1.235 C 3.623 1.266 3.637 1.297 3.654 1.322 C 3.793 1.489 4.098 1.773 4.22 1.949 C 4.164 2.059 4.173 2.109 4.137 2.226 L 3.227 2.269 C 3.17 2.278 3.126 2.345 3.126 2.401 L 3.125 3.213 C 3.125 3.276 3.169 3.332 3.23 3.342 L 4.15 3.402 C 4.189 3.524 4.18 3.485 4.242 3.605 C 4.115 3.776 3.793 4.143 3.666 4.309 C 3.648 4.334 3.636 4.361 3.636 4.392 C 3.636 4.52 4.155 4.99 4.269 5.094 C 4.294 5.117 4.325 5.129 4.36 5.129 C 4.39 5.129 4.427 5.121 4.447 5.1 L 5.094 4.495 C 5.2 4.548 5.209 4.543 5.325 4.578 L 5.397 5.515 C 5.406 5.577 5.468 5.625 5.528 5.625 L 6.345 5.625 C 6.406 5.625 6.459 5.581 6.475 5.52 C 6.532 5.304 6.491 4.804 6.513 4.577 C 6.631 4.542 6.62 4.536 6.732 4.479 L 7.423 5.095 C 7.448 5.113 7.479 5.126 7.514 5.126 C 7.642 5.126 8.135 4.589 8.221 4.472 C 8.244 4.449 8.252 4.419 8.252 4.388 C 8.252 4.353 8.238 4.327 8.221 4.302 C 8.082 4.135 7.714 3.824 7.591 3.649 C 7.647 3.54 7.637 3.542 7.672 3.426 L 8.648 3.353 C 8.705 3.345 8.749 3.278 8.749 3.222 L 8.749 2.41 C 8.747 2.355 8.703 2.297 8.641 2.285 Z M 0 0 M 5.92 3.919 C 5.317 3.919 4.822 3.427 4.822 2.819 C 4.822 2.212 5.314 1.72 5.92 1.72 C 6.528 1.72 7.02 2.212 7.02 2.819 C 7.02 3.427 6.528 3.919 5.92 3.919 Z M 0 0 M 8.435 6.25 C 7.941 5.757 7.497 6.25 7.497 6.25 L 5.622 8.125 L 3.728 8.125 C 3.728 8.125 3.415 8.125 3.415 7.813 C 3.415 7.5 3.747 7.5 3.747 7.5 L 5.31 7.5 C 5.31 7.5 5.622 7.5 5.622 7.187 C 5.622 6.875 5.31 6.875 5.31 6.875 L 1.882 6.87 C 1.683 6.865 1.305 6.905 0.944 7.304 L 0 8.301 L 1.872 10 L 2.497 9.374 L 6.117 9.374 C 6.2 9.374 6.28 9.342 6.339 9.283 L 6.872 8.75 L 8.435 7.187 C 8.435 7.187 8.927 6.743 8.435 6.25 Z"/></g></g></g><g id="_910E9B50-F521-40D6-B731-75CD03DA82A7" transform="matrix(1,0,0,1,202,663)"><g><path fill="#fff" stroke="#ccc" id="_910E9B50-F521-40D6-B731-75CD03DA82A7?shapeType=BACKGROUND" paint-order="fill stroke markers" d=" M 0 5 L 0 5 L 0 5.000000000000001 A 5 5 0 0 1 5 0 L 245 0 L 245 0 L 245 0 A 5 5 0 0 1 250 5 L 250 85 L 250 85 L 250 85 A 5 5 0 0 1 245 90 L 5 90 L 5 90 L 5 90 A 5 5 0 0 1 0 85 Z" stroke-miterlimit="10" stroke-width="2" stroke-dasharray=""/></g><g transform="matrix(1,0,0,1,90,35)"><text fill="#383B3D" stroke="none" font-family="Open Sans" font-size="12pt" font-style="normal" font-weight="normal" text-decoration="normal" x="55.92578125" y="12" text-anchor="middle" dominant-baseline="central">Item Available?</text></g><g transform="matrix(1,0,0,1,45,46)"><g id="_910E9B50-F521-40D6-B731-75CD03DA82A7"><path fill="#009596" stroke="#d5d5d5" id="_910E9B50-F521-40D6-B731-75CD03DA82A7" paint-order="fill stroke markers" d=" M 0 -25 L 0 -25 L 1.5308084989341915e-15 -25 A 25 25 0 0 1 25 0 L 25 0 L 25 0 A 25 25 0 0 1 1.5308084989341915e-15 25 L 0 25 L 1.5308084989341915e-15 25 A 25 25 0 0 1 -25 3.061616997868383e-15 L -25 0 L -25 3.061616997868383e-15 A 25 25 0 0 1 1.5308084989341915e-15 -25 Z" stroke-miterlimit="10" stroke-dasharray=""/></g><g><g transform="matrix(0.35,0,0,0.35,-11,-11)"><path fill="#fff" stroke="#fff" paint-order="fill stroke markers" d=" M 0 0 M 60.6 46.54 L 54.07 46.54 L 54.07 37.83 C 54.01 36.449999999999996 53.35 35.14 52.24 34.309999999999995 L 44.82 28.749999999999996 L 44.82 28.749999999999996 L 36.41 22.389999999999997 L 36.41 4.4 C 36.4 1.87 34.26 -0.17 31.69 0.01 C 29.44 0.17 27.6 2.23 27.6 4.49 L 27.6 22.41 L 19.19 28.72 L 19.19 28.72 L 11.770000000000001 34.269999999999996 C 10.660000000000002 35.099999999999994 10.010000000000002 36.41 9.940000000000001 37.79 L 9.940000000000001 46.5 L 3.4 46.5 C 0.45999999999999996 46.47 -1.02 50.03 1.06 52.11 L 12.07 63 C 13.36 64.29 15.45 64.29 16.75 63 L 27.759999999999998 52.11 C 29.839999999999996 50.15 28.369999999999997 46.59 25.419999999999998 46.64 L 18.75 46.64 L 18.75 40.01 C 18.75 40.01 26.97 33.93 32.03 30.14 C 36.99 33.87 45.230000000000004 40.06 45.27 40.04 L 45.27 46.67 L 38.6 46.67 C 35.660000000000004 46.620000000000005 34.18 50.18 36.260000000000005 52.14 L 47.27 63.03 C 48.56 64.32000000000001 50.650000000000006 64.32000000000001 51.95 63.03 L 62.96 52.14 C 65.04 50.06 63.56 46.5 60.620000000000005 46.53 Z" stroke-miterlimit="10" stroke-width="2" stroke-dasharray=""/></g></g></g></g><g id="_3BE02826-6C48-4E75-BB0A-3D2C1A370744" transform="matrix(1,0,0,1,354,880)"><g><path fill="#fff" stroke="#ccc" id="_3BE02826-6C48-4E75-BB0A-3D2C1A370744?shapeType=BACKGROUND" paint-order="fill stroke markers" d=" M 0 5 L 0 5 L 0 5.000000000000001 A 5 5 0 0 1 5 0 L 245 0 L 245 0 L 245 0 A 5 5 0 0 1 250 5 L 250 85 L 250 85 L 250 85 A 5 5 0 0 1 245 90 L 5 90 L 5 90 L 5 90 A 5 5 0 0 1 0 85 Z" stroke-miterlimit="10" stroke-width="2" stroke-dasharray=""/></g><g transform="matrix(1,0,0,1,90,35)"><text fill="#383B3D" stroke="none" font-family="Open Sans" font-size="12pt" font-style="normal" font-weight="normal" text-decoration="normal" x="44.3203125" y="12" text-anchor="middle" dominant-baseline="central">Prepare for </text><text fill="#383B3D" stroke="none" font-family="Open Sans" font-size="12pt" font-style="normal" font-weight="normal" text-decoration="normal" x="44.3203125" y="27" text-anchor="middle" dominant-baseline="central">   Shipping   </text></g><g transform="matrix(1,0,0,1,45,46)"><g id="_3BE02826-6C48-4E75-BB0A-3D2C1A370744"><path fill="#0066CC" stroke="#d5d5d5" id="_3BE02826-6C48-4E75-BB0A-3D2C1A370744" paint-order="fill stroke markers" d=" M 0 -25 L 0 -25 L 1.5308084989341915e-15 -25 A 25 25 0 0 1 25 0 L 25 0 L 25 0 A 25 25 0 0 1 1.5308084989341915e-15 25 L 0 25 L 1.5308084989341915e-15 25 A 25 25 0 0 1 -25 3.061616997868383e-15 L -25 0 L -25 3.061616997868383e-15 A 25 25 0 0 1 1.5308084989341915e-15 -25 Z" stroke-miterlimit="10" stroke-dasharray=""/></g><g><g transform="matrix(0.35,0,0,0.35,-11,-11)"><path fill="#fff" stroke="#fff" paint-order="fill stroke markers" d=" M 0 0 M 61.99 20.83 C 62.4 21.9 62.050000000000004 23.119999999999997 61.2 23.9 L 55.790000000000006 28.83 C 55.93000000000001 29.869999999999997 56.00000000000001 30.93 56.00000000000001 32 C 56.00000000000001 33.07 55.92000000000001 34.14 55.790000000000006 35.17 L 61.2 40.09 C 62.050000000000004 40.88 62.400000000000006 42.09 61.99 43.17 C 61.440000000000005 44.660000000000004 60.78 46.09 60.03 47.46 L 59.44 48.47 C 58.61 49.85 57.69 51.15 56.68 52.379999999999995 C 55.93 53.269999999999996 54.72 53.58 53.62 53.23 L 46.66 51.01 C 44.98 52.3 43.019999999999996 53.37 41.16 54.199999999999996 L 39.599999999999994 61.339999999999996 C 39.349999999999994 62.459999999999994 38.48 63.26 37.31999999999999 63.559999999999995 C 35.599999999999994 63.849999999999994 33.81999999999999 63.99999999999999 31.89999999999999 63.99999999999999 C 30.199999999999992 63.99999999999999 28.41999999999999 63.849999999999994 26.699999999999992 63.559999999999995 C 25.549999999999994 63.26 24.679999999999993 62.459999999999994 24.429999999999993 61.339999999999996 L 22.869999999999994 54.199999999999996 C 20.889999999999993 53.37 19.039999999999992 52.3 17.369999999999994 51.01 L 10.409999999999993 53.23 C 9.309999999999993 53.58 8.089999999999993 53.269999999999996 7.3499999999999925 52.379999999999995 C 6.339999999999993 51.13999999999999 5.409999999999993 49.839999999999996 4.589999999999993 48.47 L 3.999999999999993 47.46 C 3.239999999999993 46.1 2.579999999999993 44.660000000000004 2.029999999999993 43.17 C 1.6299999999999932 42.09 1.969999999999993 40.88 2.819999999999993 40.09 L 8.229999999999993 35.17 C 8.089999999999993 34.13 8.019999999999992 33.07 8.019999999999992 32 C 8.019999999999992 30.93 8.089999999999993 29.86 8.229999999999993 28.83 L 2.819999999999993 23.9 C 1.9599999999999933 23.11 1.6199999999999932 21.91 2.029999999999993 20.83 C 2.579999999999993 19.34 3.249999999999993 17.9 3.999999999999993 16.54 L 4.579999999999993 15.53 C 5.409999999999993 14.149999999999999 6.329999999999993 12.86 7.3499999999999925 11.62 C 8.089999999999993 10.729999999999999 9.309999999999992 10.42 10.409999999999993 10.77 L 17.369999999999994 12.99 C 19.039999999999992 11.7 20.889999999999993 10.620000000000001 22.869999999999994 9.81 L 24.429999999999993 2.670000000000001 C 24.679999999999993 1.540000000000001 25.549999999999994 0.6300000000000008 26.699999999999992 0.44000000000000083 C 28.429999999999993 0.15000000000000085 30.199999999999992 8.326672684688674e-16 32.00999999999999 8.326672684688674e-16 C 33.81999999999999 8.326672684688674e-16 35.599999999999994 0.15000000000000083 37.31999999999999 0.44000000000000083 C 38.46999999999999 0.6300000000000008 39.349999999999994 1.530000000000001 39.599999999999994 2.670000000000001 L 41.16 9.81 C 43.019999999999996 10.63 44.98 11.700000000000001 46.66 12.99 L 53.62 10.77 C 54.72 10.42 55.93 10.73 56.68 11.62 C 57.69 12.85 58.62 14.149999999999999 59.44 15.53 L 60.03 16.54 C 60.78 17.9 61.44 19.34 61.99 20.83 L 61.99 20.83 Z M 0 0 M 32 42 C 37.53 42 42 37.53 42 31.89 C 42 26.25 37.53 21.89 32 21.89 C 26.47 21.89 22 26.48 22 31.89 C 22 37.3 26.48 42 32 42 Z" stroke-miterlimit="10" stroke-width="2" stroke-dasharray=""/></g></g></g><g transform="matrix(1,0,0,1,224,6)"><g><path fill="white" stroke="white" paint-order="fill stroke markers" d=" M 9 0 L 11 0 L 10.999999999999998 0 A 9 9 0 0 1 20 9 L 20 11 L 20 11 A 9 9 0 0 1 11 20 L 9 20 L 9 20 A 9 9 0 0 1 0 11.000000000000002 L 0 9 L 0 9.000000000000002 A 9 9 0 0 1 8.999999999999998 0 Z" fill-opacity="0.001" stroke-miterlimit="10" stroke-opacity="0.001" stroke-dasharray=""/></g><g transform="matrix(1,0,0,1,20,10)"/><g transform="matrix(2,0,0,2,0,0)"><path fill="#CCC" stroke="none" paint-order="stroke fill markers" d=" M 0 0 M 2.175 3.286 C 1.743 3.286 1.394 3.637 1.394 4.067 C 1.394 4.498 1.745 4.849 2.175 4.849 C 2.605 4.849 2.956 4.498 2.956 4.067 C 2.956 3.637 2.606 3.286 2.175 3.286 Z M 0 0 M 2.175 4.38 C 2.003 4.38 1.863 4.239 1.863 4.067 C 1.863 3.896 2.003 3.755 2.175 3.755 C 2.346 3.755 2.487 3.896 2.487 4.067 C 2.487 4.239 2.346 4.38 2.175 4.38 Z M 0 0 M 1.875 0.312 C 1.185 0.312 0.625 0.873 0.625 1.563 C 0.625 2.254 1.185 2.813 1.875 2.813 C 2.565 2.813 3.125 2.253 3.125 1.563 C 3.125 0.874 2.565 0.312 1.875 0.312 Z M 0 0 M 1.875 2.032 C 1.616 2.032 1.406 1.822 1.406 1.563 C 1.406 1.304 1.616 1.094 1.875 1.094 C 2.134 1.094 2.344 1.304 2.344 1.563 C 2.344 1.822 2.134 2.032 1.875 2.032 Z M 0 0 M 8.641 2.285 L 7.704 2.208 C 7.665 2.085 7.683 2.121 7.626 2 C 7.75 1.829 8.078 1.493 8.205 1.321 C 8.222 1.296 8.235 1.269 8.235 1.238 C 8.235 1.115 7.716 0.64 7.603 0.535 C 7.577 0.513 7.546 0.5 7.511 0.5 C 7.48 0.5 7.449 0.509 7.423 0.53 L 6.772 1.1 C 6.666 1.047 6.65 1.047 6.535 1.012 L 6.475 0.112 C 6.47 0.048 6.408 0 6.346 0 L 5.53 0 C 5.469 0 5.416 0.044 5.399 0.106 C 5.343 0.32 5.371 0.796 5.348 1.017 C 5.23 1.056 5.241 1.065 5.129 1.122 L 4.452 0.528 C 4.427 0.511 4.395 0.498 4.36 0.498 C 4.233 0.498 3.74 1.031 3.654 1.149 C 3.631 1.174 3.623 1.205 3.623 1.235 C 3.623 1.266 3.637 1.297 3.654 1.322 C 3.793 1.489 4.098 1.773 4.22 1.949 C 4.164 2.059 4.173 2.109 4.137 2.226 L 3.227 2.269 C 3.17 2.278 3.126 2.345 3.126 2.401 L 3.125 3.213 C 3.125 3.276 3.169 3.332 3.23 3.342 L 4.15 3.402 C 4.189 3.524 4.18 3.485 4.242 3.605 C 4.115 3.776 3.793 4.143 3.666 4.309 C 3.648 4.334 3.636 4.361 3.636 4.392 C 3.636 4.52 4.155 4.99 4.269 5.094 C 4.294 5.117 4.325 5.129 4.36 5.129 C 4.39 5.129 4.427 5.121 4.447 5.1 L 5.094 4.495 C 5.2 4.548 5.209 4.543 5.325 4.578 L 5.397 5.515 C 5.406 5.577 5.468 5.625 5.528 5.625 L 6.345 5.625 C 6.406 5.625 6.459 5.581 6.475 5.52 C 6.532 5.304 6.491 4.804 6.513 4.577 C 6.631 4.542 6.62 4.536 6.732 4.479 L 7.423 5.095 C 7.448 5.113 7.479 5.126 7.514 5.126 C 7.642 5.126 8.135 4.589 8.221 4.472 C 8.244 4.449 8.252 4.419 8.252 4.388 C 8.252 4.353 8.238 4.327 8.221 4.302 C 8.082 4.135 7.714 3.824 7.591 3.649 C 7.647 3.54 7.637 3.542 7.672 3.426 L 8.648 3.353 C 8.705 3.345 8.749 3.278 8.749 3.222 L 8.749 2.41 C 8.747 2.355 8.703 2.297 8.641 2.285 Z M 0 0 M 5.92 3.919 C 5.317 3.919 4.822 3.427 4.822 2.819 C 4.822 2.212 5.314 1.72 5.92 1.72 C 6.528 1.72 7.02 2.212 7.02 2.819 C 7.02 3.427 6.528 3.919 5.92 3.919 Z M 0 0 M 8.435 6.25 C 7.941 5.757 7.497 6.25 7.497 6.25 L 5.622 8.125 L 3.728 8.125 C 3.728 8.125 3.415 8.125 3.415 7.813 C 3.415 7.5 3.747 7.5 3.747 7.5 L 5.31 7.5 C 5.31 7.5 5.622 7.5 5.622 7.187 C 5.622 6.875 5.31 6.875 5.31 6.875 L 1.882 6.87 C 1.683 6.865 1.305 6.905 0.944 7.304 L 0 8.301 L 1.872 10 L 2.497 9.374 L 6.117 9.374 C 6.2 9.374 6.28 9.342 6.339 9.283 L 6.872 8.75 L 8.435 7.187 C 8.435 7.187 8.927 6.743 8.435 6.25 Z"/></g></g></g><g id="_60DD1CB5-B6E8-4BC7-B1B7-23A85F428E32" transform="matrix(1,0,0,1,50,880)"><g><path fill="#fff" stroke="#ccc" id="_60DD1CB5-B6E8-4BC7-B1B7-23A85F428E32?shapeType=BACKGROUND" paint-order="fill stroke markers" d=" M 0 5 L 0 5 L 0 5.000000000000001 A 5 5 0 0 1 5 0 L 245 0 L 245 0 L 245 0 A 5 5 0 0 1 250 5 L 250 85 L 250 85 L 250 85 A 5 5 0 0 1 245 90 L 5 90 L 5 90 L 5 90 A 5 5 0 0 1 0 85 Z" stroke-miterlimit="10" stroke-width="2" stroke-dasharray=""/></g><g transform="matrix(1,0,0,1,90,35)"><text fill="#383B3D" stroke="none" font-family="Open Sans" font-size="12pt" font-style="normal" font-weight="normal" text-decoration="normal" x="75.3984375" y="12" text-anchor="middle" dominant-baseline="central">Forward to External </text><text fill="#383B3D" stroke="none" font-family="Open Sans" font-size="12pt" font-style="normal" font-weight="normal" text-decoration="normal" x="75.3984375" y="27" text-anchor="middle" dominant-baseline="central">          Supplier           </text></g><g transform="matrix(1,0,0,1,45,46)"><g id="_60DD1CB5-B6E8-4BC7-B1B7-23A85F428E32"><path fill="#0066CC" stroke="#d5d5d5" id="_60DD1CB5-B6E8-4BC7-B1B7-23A85F428E32" paint-order="fill stroke markers" d=" M 0 -25 L 0 -25 L 1.5308084989341915e-15 -25 A 25 25 0 0 1 25 0 L 25 0 L 25 0 A 25 25 0 0 1 1.5308084989341915e-15 25 L 0 25 L 1.5308084989341915e-15 25 A 25 25 0 0 1 -25 3.061616997868383e-15 L -25 0 L -25 3.061616997868383e-15 A 25 25 0 0 1 1.5308084989341915e-15 -25 Z" stroke-miterlimit="10" stroke-dasharray=""/></g><g><g transform="matrix(0.35,0,0,0.35,-11,-11)"><path fill="#fff" stroke="#fff" paint-order="fill stroke markers" d=" M 0 0 M 61.99 20.83 C 62.4 21.9 62.050000000000004 23.119999999999997 61.2 23.9 L 55.790000000000006 28.83 C 55.93000000000001 29.869999999999997 56.00000000000001 30.93 56.00000000000001 32 C 56.00000000000001 33.07 55.92000000000001 34.14 55.790000000000006 35.17 L 61.2 40.09 C 62.050000000000004 40.88 62.400000000000006 42.09 61.99 43.17 C 61.440000000000005 44.660000000000004 60.78 46.09 60.03 47.46 L 59.44 48.47 C 58.61 49.85 57.69 51.15 56.68 52.379999999999995 C 55.93 53.269999999999996 54.72 53.58 53.62 53.23 L 46.66 51.01 C 44.98 52.3 43.019999999999996 53.37 41.16 54.199999999999996 L 39.599999999999994 61.339999999999996 C 39.349999999999994 62.459999999999994 38.48 63.26 37.31999999999999 63.559999999999995 C 35.599999999999994 63.849999999999994 33.81999999999999 63.99999999999999 31.89999999999999 63.99999999999999 C 30.199999999999992 63.99999999999999 28.41999999999999 63.849999999999994 26.699999999999992 63.559999999999995 C 25.549999999999994 63.26 24.679999999999993 62.459999999999994 24.429999999999993 61.339999999999996 L 22.869999999999994 54.199999999999996 C 20.889999999999993 53.37 19.039999999999992 52.3 17.369999999999994 51.01 L 10.409999999999993 53.23 C 9.309999999999993 53.58 8.089999999999993 53.269999999999996 7.3499999999999925 52.379999999999995 C 6.339999999999993 51.13999999999999 5.409999999999993 49.839999999999996 4.589999999999993 48.47 L 3.999999999999993 47.46 C 3.239999999999993 46.1 2.579999999999993 44.660000000000004 2.029999999999993 43.17 C 1.6299999999999932 42.09 1.969999999999993 40.88 2.819999999999993 40.09 L 8.229999999999993 35.17 C 8.089999999999993 34.13 8.019999999999992 33.07 8.019999999999992 32 C 8.019999999999992 30.93 8.089999999999993 29.86 8.229999999999993 28.83 L 2.819999999999993 23.9 C 1.9599999999999933 23.11 1.6199999999999932 21.91 2.029999999999993 20.83 C 2.579999999999993 19.34 3.249999999999993 17.9 3.999999999999993 16.54 L 4.579999999999993 15.53 C 5.409999999999993 14.149999999999999 6.329999999999993 12.86 7.3499999999999925 11.62 C 8.089999999999993 10.729999999999999 9.309999999999992 10.42 10.409999999999993 10.77 L 17.369999999999994 12.99 C 19.039999999999992 11.7 20.889999999999993 10.620000000000001 22.869999999999994 9.81 L 24.429999999999993 2.670000000000001 C 24.679999999999993 1.540000000000001 25.549999999999994 0.6300000000000008 26.699999999999992 0.44000000000000083 C 28.429999999999993 0.15000000000000085 30.199999999999992 8.326672684688674e-16 32.00999999999999 8.326672684688674e-16 C 33.81999999999999 8.326672684688674e-16 35.599999999999994 0.15000000000000083 37.31999999999999 0.44000000000000083 C 38.46999999999999 0.6300000000000008 39.349999999999994 1.530000000000001 39.599999999999994 2.670000000000001 L 41.16 9.81 C 43.019999999999996 10.63 44.98 11.700000000000001 46.66 12.99 L 53.62 10.77 C 54.72 10.42 55.93 10.73 56.68 11.62 C 57.69 12.85 58.62 14.149999999999999 59.44 15.53 L 60.03 16.54 C 60.78 17.9 61.44 19.34 61.99 20.83 L 61.99 20.83 Z M 0 0 M 32 42 C 37.53 42 42 37.53 42 31.89 C 42 26.25 37.53 21.89 32 21.89 C 26.47 21.89 22 26.48 22 31.89 C 22 37.3 26.48 42 32 42 Z" stroke-miterlimit="10" stroke-width="2" stroke-dasharray=""/></g></g></g><g transform="matrix(1,0,0,1,224,6)"><g><path fill="white" stroke="white" paint-order="fill stroke markers" d=" M 9 0 L 11 0 L 10.999999999999998 0 A 9 9 0 0 1 20 9 L 20 11 L 20 11 A 9 9 0 0 1 11 20 L 9 20 L 9 20 A 9 9 0 0 1 0 11.000000000000002 L 0 9 L 0 9.000000000000002 A 9 9 0 0 1 8.999999999999998 0 Z" fill-opacity="0.001" stroke-miterlimit="10" stroke-opacity="0.001" stroke-dasharray=""/></g><g transform="matrix(1,0,0,1,20,10)"/><g transform="matrix(2,0,0,2,0,0)"><path fill="#CCC" stroke="none" paint-order="stroke fill markers" d=" M 0 0 M 2.175 3.286 C 1.743 3.286 1.394 3.637 1.394 4.067 C 1.394 4.498 1.745 4.849 2.175 4.849 C 2.605 4.849 2.956 4.498 2.956 4.067 C 2.956 3.637 2.606 3.286 2.175 3.286 Z M 0 0 M 2.175 4.38 C 2.003 4.38 1.863 4.239 1.863 4.067 C 1.863 3.896 2.003 3.755 2.175 3.755 C 2.346 3.755 2.487 3.896 2.487 4.067 C 2.487 4.239 2.346 4.38 2.175 4.38 Z M 0 0 M 1.875 0.312 C 1.185 0.312 0.625 0.873 0.625 1.563 C 0.625 2.254 1.185 2.813 1.875 2.813 C 2.565 2.813 3.125 2.253 3.125 1.563 C 3.125 0.874 2.565 0.312 1.875 0.312 Z M 0 0 M 1.875 2.032 C 1.616 2.032 1.406 1.822 1.406 1.563 C 1.406 1.304 1.616 1.094 1.875 1.094 C 2.134 1.094 2.344 1.304 2.344 1.563 C 2.344 1.822 2.134 2.032 1.875 2.032 Z M 0 0 M 8.641 2.285 L 7.704 2.208 C 7.665 2.085 7.683 2.121 7.626 2 C 7.75 1.829 8.078 1.493 8.205 1.321 C 8.222 1.296 8.235 1.269 8.235 1.238 C 8.235 1.115 7.716 0.64 7.603 0.535 C 7.577 0.513 7.546 0.5 7.511 0.5 C 7.48 0.5 7.449 0.509 7.423 0.53 L 6.772 1.1 C 6.666 1.047 6.65 1.047 6.535 1.012 L 6.475 0.112 C 6.47 0.048 6.408 0 6.346 0 L 5.53 0 C 5.469 0 5.416 0.044 5.399 0.106 C 5.343 0.32 5.371 0.796 5.348 1.017 C 5.23 1.056 5.241 1.065 5.129 1.122 L 4.452 0.528 C 4.427 0.511 4.395 0.498 4.36 0.498 C 4.233 0.498 3.74 1.031 3.654 1.149 C 3.631 1.174 3.623 1.205 3.623 1.235 C 3.623 1.266 3.637 1.297 3.654 1.322 C 3.793 1.489 4.098 1.773 4.22 1.949 C 4.164 2.059 4.173 2.109 4.137 2.226 L 3.227 2.269 C 3.17 2.278 3.126 2.345 3.126 2.401 L 3.125 3.213 C 3.125 3.276 3.169 3.332 3.23 3.342 L 4.15 3.402 C 4.189 3.524 4.18 3.485 4.242 3.605 C 4.115 3.776 3.793 4.143 3.666 4.309 C 3.648 4.334 3.636 4.361 3.636 4.392 C 3.636 4.52 4.155 4.99 4.269 5.094 C 4.294 5.117 4.325 5.129 4.36 5.129 C 4.39 5.129 4.427 5.121 4.447 5.1 L 5.094 4.495 C 5.2 4.548 5.209 4.543 5.325 4.578 L 5.397 5.515 C 5.406 5.577 5.468 5.625 5.528 5.625 L 6.345 5.625 C 6.406 5.625 6.459 5.581 6.475 5.52 C 6.532 5.304 6.491 4.804 6.513 4.577 C 6.631 4.542 6.62 4.536 6.732 4.479 L 7.423 5.095 C 7.448 5.113 7.479 5.126 7.514 5.126 C 7.642 5.126 8.135 4.589 8.221 4.472 C 8.244 4.449 8.252 4.419 8.252 4.388 C 8.252 4.353 8.238 4.327 8.221 4.302 C 8.082 4.135 7.714 3.824 7.591 3.649 C 7.647 3.54 7.637 3.542 7.672 3.426 L 8.648 3.353 C 8.705 3.345 8.749 3.278 8.749 3.222 L 8.749 2.41 C 8.747 2.355 8.703 2.297 8.641 2.285 Z M 0 0 M 5.92 3.919 C 5.317 3.919 4.822 3.427 4.822 2.819 C 4.822 2.212 5.314 1.72 5.92 1.72 C 6.528 1.72 7.02 2.212 7.02 2.819 C 7.02 3.427 6.528 3.919 5.92 3.919 Z M 0 0 M 8.435 6.25 C 7.941 5.757 7.497 6.25 7.497 6.25 L 5.622 8.125 L 3.728 8.125 C 3.728 8.125 3.415 8.125 3.415 7.813 C 3.415 7.5 3.747 7.5 3.747 7.5 L 5.31 7.5 C 5.31 7.5 5.622 7.5 5.622 7.187 C 5.622 6.875 5.31 6.875 5.31 6.875 L 1.882 6.87 C 1.683 6.865 1.305 6.905 0.944 7.304 L 0 8.301 L 1.872 10 L 2.497 9.374 L 6.117 9.374 C 6.2 9.374 6.28 9.342 6.339 9.283 L 6.872 8.75 L 8.435 7.187 C 8.435 7.187 8.927 6.743 8.435 6.25 Z"/></g></g></g><g id="_8227CEF4-338F-4117-964F-1B60A56139AB" transform="matrix(1,0,0,1,202,1097)"><g><path fill="#fff" stroke="#ccc" id="_8227CEF4-338F-4117-964F-1B60A56139AB?shapeType=BACKGROUND" paint-order="fill stroke markers" d=" M 0 5 L 0 5 L 0 5.000000000000001 A 5 5 0 0 1 5 0 L 245 0 L 245 0 L 245 0 A 5 5 0 0 1 250 5 L 250 85 L 250 85 L 250 85 A 5 5 0 0 1 245 90 L 5 90 L 5 90 L 5 90 A 5 5 0 0 1 0 85 Z" stroke-miterlimit="10" stroke-width="2" stroke-dasharray=""/></g><g transform="matrix(1,0,0,1,90,35)"><text fill="#383B3D" stroke="none" font-family="Open Sans" font-size="12pt" font-style="normal" font-weight="normal" text-decoration="normal" x="66.84375" y="12" text-anchor="middle" dominant-baseline="central">Order Shipped or </text><text fill="#383B3D" stroke="none" font-family="Open Sans" font-size="12pt" font-style="normal" font-weight="normal" text-decoration="normal" x="66.84375" y="27" text-anchor="middle" dominant-baseline="central">       Cancelled        </text></g><g transform="matrix(1,0,0,1,45,46)"><g id="_8227CEF4-338F-4117-964F-1B60A56139AB"><path fill="#F4C145" stroke="#d5d5d5" id="_8227CEF4-338F-4117-964F-1B60A56139AB" paint-order="fill stroke markers" d=" M 0 -25 L 0 -25 L 1.5308084989341915e-15 -25 A 25 25 0 0 1 25 0 L 25 0 L 25 0 A 25 25 0 0 1 1.5308084989341915e-15 25 L 0 25 L 1.5308084989341915e-15 25 A 25 25 0 0 1 -25 3.061616997868383e-15 L -25 0 L -25 3.061616997868383e-15 A 25 25 0 0 1 1.5308084989341915e-15 -25 Z" stroke-miterlimit="10" stroke-dasharray=""/></g><g><g transform="matrix(0.35,0,0,0.35,-11,-11)"><path fill="#fff" stroke="#fff" paint-order="fill stroke markers" d=" M 0 0 M 45.254 45.197 L 36.216 45.197 L 42.206 31.792 C 42.613 30.98 42.307 29.965 41.597 29.355 C 40.887 28.746 39.768 28.849 39.06 29.457 L 19.561 45.705 C 18.953 46.215 18.646 47.128 18.953 47.939 C 19.258 48.754 19.968 49.262 20.883 49.262 L 29.921 49.262 L 23.928 62.667 C 23.521 63.478 23.825 64.493 24.538 65.103 C 24.943 65.51 25.247 65.609 25.756 65.609 C 26.263 65.609 26.67 65.406 27.076 65.103 L 46.573 48.854 C 47.183 48.347 47.488 47.431 47.183 46.62 C 46.879 45.808 46.066 45.197 45.254 45.197 Z M 0 0 M 53.378 16.865 C 53.275 16.865 53.275 16.865 53.175 16.865 C 53.275 16.153 53.378 15.543 53.378 14.834 C 53.378 9.247 48.808 4.679 43.222 4.679 C 40.073 4.679 37.333 6.101 35.505 8.334 C 33.068 3.765 28.394 0.615 22.911 0.615 C 15.094 0.615 8.694 7.014 8.694 14.834 C 8.694 15.747 8.794 16.661 8.997 17.575 C 4.023 19.2 0.469 23.872 0.571 29.355 C 0.773 36.057 6.258 41.237 12.858 41.237 L 18.646 41.237 L 36.419 26.41 C 37.535 25.496 38.856 24.989 40.276 24.989 C 41.597 24.989 42.919 25.396 43.932 26.207 C 46.169 27.933 46.981 30.98 45.761 33.521 L 42.511 41.237 L 53.275 41.237 C 59.878 41.237 65.36 36.057 65.563 29.457 C 65.766 22.552 60.285 16.865 53.378 16.865 Z" stroke-miterlimit="10" stroke-width="2" stroke-dasharray=""/></g></g></g></g><g id="_BE39AFD7-6303-4257-84F3-8DAB68860239" transform="matrix(1,0,0,1,202,1314)"><g><path fill="#fff" stroke="#ccc" id="_BE39AFD7-6303-4257-84F3-8DAB68860239?shapeType=BACKGROUND" paint-order="fill stroke markers" d=" M 0 5 L 0 5 L 0 5.000000000000001 A 5 5 0 0 1 5 0 L 245 0 L 245 0 L 245 0 A 5 5 0 0 1 250 5 L 250 85 L 250 85 L 250 85 A 5 5 0 0 1 245 90 L 5 90 L 5 90 L 5 90 A 5 5 0 0 1 0 85 Z" stroke-miterlimit="10" stroke-width="2" stroke-dasharray=""/></g><g transform="matrix(1,0,0,1,90,35)"><text fill="#383B3D" stroke="none" font-family="Open Sans" font-size="12pt" font-style="normal" font-weight="normal" text-decoration="normal" x="42.078125" y="12" text-anchor="middle" dominant-baseline="central">Is Shipped?</text></g><g transform="matrix(1,0,0,1,45,46)"><g id="_BE39AFD7-6303-4257-84F3-8DAB68860239"><path fill="#009596" stroke="#d5d5d5" id="_BE39AFD7-6303-4257-84F3-8DAB68860239" paint-order="fill stroke markers" d=" M 0 -25 L 0 -25 L 1.5308084989341915e-15 -25 A 25 25 0 0 1 25 0 L 25 0 L 25 0 A 25 25 0 0 1 1.5308084989341915e-15 25 L 0 25 L 1.5308084989341915e-15 25 A 25 25 0 0 1 -25 3.061616997868383e-15 L -25 0 L -25 3.061616997868383e-15 A 25 25 0 0 1 1.5308084989341915e-15 -25 Z" stroke-miterlimit="10" stroke-dasharray=""/></g><g><g transform="matrix(0.35,0,0,0.35,-11,-11)"><path fill="#fff" stroke="#fff" paint-order="fill stroke markers" d=" M 0 0 M 60.6 46.54 L 54.07 46.54 L 54.07 37.83 C 54.01 36.449999999999996 53.35 35.14 52.24 34.309999999999995 L 44.82 28.749999999999996 L 44.82 28.749999999999996 L 36.41 22.389999999999997 L 36.41 4.4 C 36.4 1.87 34.26 -0.17 31.69 0.01 C 29.44 0.17 27.6 2.23 27.6 4.49 L 27.6 22.41 L 19.19 28.72 L 19.19 28.72 L 11.770000000000001 34.269999999999996 C 10.660000000000002 35.099999999999994 10.010000000000002 36.41 9.940000000000001 37.79 L 9.940000000000001 46.5 L 3.4 46.5 C 0.45999999999999996 46.47 -1.02 50.03 1.06 52.11 L 12.07 63 C 13.36 64.29 15.45 64.29 16.75 63 L 27.759999999999998 52.11 C 29.839999999999996 50.15 28.369999999999997 46.59 25.419999999999998 46.64 L 18.75 46.64 L 18.75 40.01 C 18.75 40.01 26.97 33.93 32.03 30.14 C 36.99 33.87 45.230000000000004 40.06 45.27 40.04 L 45.27 46.67 L 38.6 46.67 C 35.660000000000004 46.620000000000005 34.18 50.18 36.260000000000005 52.14 L 47.27 63.03 C 48.56 64.32000000000001 50.650000000000006 64.32000000000001 51.95 63.03 L 62.96 52.14 C 65.04 50.06 63.56 46.5 60.620000000000005 46.53 Z" stroke-miterlimit="10" stroke-width="2" stroke-dasharray=""/></g></g></g></g><g id="_9F28CC28-1442-487B-90AA-9C59C12DFEAB" transform="matrix(1,0,0,1,50,1531)"><g><path fill="#fff" stroke="#ccc" id="_9F28CC28-1442-487B-90AA-9C59C12DFEAB?shapeType=BACKGROUND" paint-order="fill stroke markers" d=" M 0 5 L 0 5 L 0 5.000000000000001 A 5 5 0 0 1 5 0 L 245 0 L 245 0 L 245 0 A 5 5 0 0 1 250 5 L 250 85 L 250 85 L 250 85 A 5 5 0 0 1 245 90 L 5 90 L 5 90 L 5 90 A 5 5 0 0 1 0 85 Z" stroke-miterlimit="10" stroke-width="2" stroke-dasharray=""/></g><g transform="matrix(1,0,0,1,90,35)"><text fill="#383B3D" stroke="none" font-family="Open Sans" font-size="12pt" font-style="normal" font-weight="normal" text-decoration="normal" x="71.26953125" y="12" text-anchor="middle" dominant-baseline="central">Compensate Order</text></g><g transform="matrix(1,0,0,1,45,46)"><g id="_9F28CC28-1442-487B-90AA-9C59C12DFEAB"><path fill="#0066CC" stroke="#d5d5d5" id="_9F28CC28-1442-487B-90AA-9C59C12DFEAB" paint-order="fill stroke markers" d=" M 0 -25 L 0 -25 L 1.5308084989341915e-15 -25 A 25 25 0 0 1 25 0 L 25 0 L 25 0 A 25 25 0 0 1 1.5308084989341915e-15 25 L 0 25 L 1.5308084989341915e-15 25 A 25 25 0 0 1 -25 3.061616997868383e-15 L -25 0 L -25 3.061616997868383e-15 A 25 25 0 0 1 1.5308084989341915e-15 -25 Z" stroke-miterlimit="10" stroke-dasharray=""/></g><g><g transform="matrix(0.35,0,0,0.35,-11,-11)"><path fill="#fff" stroke="#fff" paint-order="fill stroke markers" d=" M 0 0 M 61.99 20.83 C 62.4 21.9 62.050000000000004 23.119999999999997 61.2 23.9 L 55.790000000000006 28.83 C 55.93000000000001 29.869999999999997 56.00000000000001 30.93 56.00000000000001 32 C 56.00000000000001 33.07 55.92000000000001 34.14 55.790000000000006 35.17 L 61.2 40.09 C 62.050000000000004 40.88 62.400000000000006 42.09 61.99 43.17 C 61.440000000000005 44.660000000000004 60.78 46.09 60.03 47.46 L 59.44 48.47 C 58.61 49.85 57.69 51.15 56.68 52.379999999999995 C 55.93 53.269999999999996 54.72 53.58 53.62 53.23 L 46.66 51.01 C 44.98 52.3 43.019999999999996 53.37 41.16 54.199999999999996 L 39.599999999999994 61.339999999999996 C 39.349999999999994 62.459999999999994 38.48 63.26 37.31999999999999 63.559999999999995 C 35.599999999999994 63.849999999999994 33.81999999999999 63.99999999999999 31.89999999999999 63.99999999999999 C 30.199999999999992 63.99999999999999 28.41999999999999 63.849999999999994 26.699999999999992 63.559999999999995 C 25.549999999999994 63.26 24.679999999999993 62.459999999999994 24.429999999999993 61.339999999999996 L 22.869999999999994 54.199999999999996 C 20.889999999999993 53.37 19.039999999999992 52.3 17.369999999999994 51.01 L 10.409999999999993 53.23 C 9.309999999999993 53.58 8.089999999999993 53.269999999999996 7.3499999999999925 52.379999999999995 C 6.339999999999993 51.13999999999999 5.409999999999993 49.839999999999996 4.589999999999993 48.47 L 3.999999999999993 47.46 C 3.239999999999993 46.1 2.579999999999993 44.660000000000004 2.029999999999993 43.17 C 1.6299999999999932 42.09 1.969999999999993 40.88 2.819999999999993 40.09 L 8.229999999999993 35.17 C 8.089999999999993 34.13 8.019999999999992 33.07 8.019999999999992 32 C 8.019999999999992 30.93 8.089999999999993 29.86 8.229999999999993 28.83 L 2.819999999999993 23.9 C 1.9599999999999933 23.11 1.6199999999999932 21.91 2.029999999999993 20.83 C 2.579999999999993 19.34 3.249999999999993 17.9 3.999999999999993 16.54 L 4.579999999999993 15.53 C 5.409999999999993 14.149999999999999 6.329999999999993 12.86 7.3499999999999925 11.62 C 8.089999999999993 10.729999999999999 9.309999999999992 10.42 10.409999999999993 10.77 L 17.369999999999994 12.99 C 19.039999999999992 11.7 20.889999999999993 10.620000000000001 22.869999999999994 9.81 L 24.429999999999993 2.670000000000001 C 24.679999999999993 1.540000000000001 25.549999999999994 0.6300000000000008 26.699999999999992 0.44000000000000083 C 28.429999999999993 0.15000000000000085 30.199999999999992 8.326672684688674e-16 32.00999999999999 8.326672684688674e-16 C 33.81999999999999 8.326672684688674e-16 35.599999999999994 0.15000000000000083 37.31999999999999 0.44000000000000083 C 38.46999999999999 0.6300000000000008 39.349999999999994 1.530000000000001 39.599999999999994 2.670000000000001 L 41.16 9.81 C 43.019999999999996 10.63 44.98 11.700000000000001 46.66 12.99 L 53.62 10.77 C 54.72 10.42 55.93 10.73 56.68 11.62 C 57.69 12.85 58.62 14.149999999999999 59.44 15.53 L 60.03 16.54 C 60.78 17.9 61.44 19.34 61.99 20.83 L 61.99 20.83 Z M 0 0 M 32 42 C 37.53 42 42 37.53 42 31.89 C 42 26.25 37.53 21.89 32 21.89 C 26.47 21.89 22 26.48 22 31.89 C 22 37.3 26.48 42 32 42 Z" stroke-miterlimit="10" stroke-width="2" stroke-dasharray=""/></g></g></g><g transform="matrix(1,0,0,1,224,6)"><g><path fill="white" stroke="white" paint-order="fill stroke markers" d=" M 9 0 L 11 0 L 10.999999999999998 0 A 9 9 0 0 1 20 9 L 20 11 L 20 11 A 9 9 0 0 1 11 20 L 9 20 L 9 20 A 9 9 0 0 1 0 11.000000000000002 L 0 9 L 0 9.000000000000002 A 9 9 0 0 1 8.999999999999998 0 Z" fill-opacity="0.001" stroke-miterlimit="10" stroke-opacity="0.001" stroke-dasharray=""/></g><g transform="matrix(1,0,0,1,20,10)"/><g transform="matrix(2,0,0,2,0,0)"><path fill="#CCC" stroke="none" paint-order="stroke fill markers" d=" M 0 0 M 2.175 3.286 C 1.743 3.286 1.394 3.637 1.394 4.067 C 1.394 4.498 1.745 4.849 2.175 4.849 C 2.605 4.849 2.956 4.498 2.956 4.067 C 2.956 3.637 2.606 3.286 2.175 3.286 Z M 0 0 M 2.175 4.38 C 2.003 4.38 1.863 4.239 1.863 4.067 C 1.863 3.896 2.003 3.755 2.175 3.755 C 2.346 3.755 2.487 3.896 2.487 4.067 C 2.487 4.239 2.346 4.38 2.175 4.38 Z M 0 0 M 1.875 0.312 C 1.185 0.312 0.625 0.873 0.625 1.563 C 0.625 2.254 1.185 2.813 1.875 2.813 C 2.565 2.813 3.125 2.253 3.125 1.563 C 3.125 0.874 2.565 0.312 1.875 0.312 Z M 0 0 M 1.875 2.032 C 1.616 2.032 1.406 1.822 1.406 1.563 C 1.406 1.304 1.616 1.094 1.875 1.094 C 2.134 1.094 2.344 1.304 2.344 1.563 C 2.344 1.822 2.134 2.032 1.875 2.032 Z M 0 0 M 8.641 2.285 L 7.704 2.208 C 7.665 2.085 7.683 2.121 7.626 2 C 7.75 1.829 8.078 1.493 8.205 1.321 C 8.222 1.296 8.235 1.269 8.235 1.238 C 8.235 1.115 7.716 0.64 7.603 0.535 C 7.577 0.513 7.546 0.5 7.511 0.5 C 7.48 0.5 7.449 0.509 7.423 0.53 L 6.772 1.1 C 6.666 1.047 6.65 1.047 6.535 1.012 L 6.475 0.112 C 6.47 0.048 6.408 0 6.346 0 L 5.53 0 C 5.469 0 5.416 0.044 5.399 0.106 C 5.343 0.32 5.371 0.796 5.348 1.017 C 5.23 1.056 5.241 1.065 5.129 1.122 L 4.452 0.528 C 4.427 0.511 4.395 0.498 4.36 0.498 C 4.233 0.498 3.74 1.031 3.654 1.149 C 3.631 1.174 3.623 1.205 3.623 1.235 C 3.623 1.266 3.637 1.297 3.654 1.322 C 3.793 1.489 4.098 1.773 4.22 1.949 C 4.164 2.059 4.173 2.109 4.137 2.226 L 3.227 2.269 C 3.17 2.278 3.126 2.345 3.126 2.401 L 3.125 3.213 C 3.125 3.276 3.169 3.332 3.23 3.342 L 4.15 3.402 C 4.189 3.524 4.18 3.485 4.242 3.605 C 4.115 3.776 3.793 4.143 3.666 4.309 C 3.648 4.334 3.636 4.361 3.636 4.392 C 3.636 4.52 4.155 4.99 4.269 5.094 C 4.294 5.117 4.325 5.129 4.36 5.129 C 4.39 5.129 4.427 5.121 4.447 5.1 L 5.094 4.495 C 5.2 4.548 5.209 4.543 5.325 4.578 L 5.397 5.515 C 5.406 5.577 5.468 5.625 5.528 5.625 L 6.345 5.625 C 6.406 5.625 6.459 5.581 6.475 5.52 C 6.532 5.304 6.491 4.804 6.513 4.577 C 6.631 4.542 6.62 4.536 6.732 4.479 L 7.423 5.095 C 7.448 5.113 7.479 5.126 7.514 5.126 C 7.642 5.126 8.135 4.589 8.221 4.472 C 8.244 4.449 8.252 4.419 8.252 4.388 C 8.252 4.353 8.238 4.327 8.221 4.302 C 8.082 4.135 7.714 3.824 7.591 3.649 C 7.647 3.54 7.637 3.542 7.672 3.426 L 8.648 3.353 C 8.705 3.345 8.749 3.278 8.749 3.222 L 8.749 2.41 C 8.747 2.355 8.703 2.297 8.641 2.285 Z M 0 0 M 5.92 3.919 C 5.317 3.919 4.822 3.427 4.822 2.819 C 4.822 2.212 5.314 1.72 5.92 1.72 C 6.528 1.72 7.02 2.212 7.02 2.819 C 7.02 3.427 6.528 3.919 5.92 3.919 Z M 0 0 M 8.435 6.25 C 7.941 5.757 7.497 6.25 7.497 6.25 L 5.622 8.125 L 3.728 8.125 C 3.728 8.125 3.415 8.125 3.415 7.813 C 3.415 7.5 3.747 7.5 3.747 7.5 L 5.31 7.5 C 5.31 7.5 5.622 7.5 5.622 7.187 C 5.622 6.875 5.31 6.875 5.31 6.875 L 1.882 6.87 C 1.683 6.865 1.305 6.905 0.944 7.304 L 0 8.301 L 1.872 10 L 2.497 9.374 L 6.117 9.374 C 6.2 9.374 6.28 9.342 6.339 9.283 L 6.872 8.75 L 8.435 7.187 C 8.435 7.187 8.927 6.743 8.435 6.25 Z"/></g></g></g><g id="_894C723F-0E4C-4154-94DE-73DD11202900" transform="matrix(1,0,0,1,152,1748)"><g><path fill="#fff" stroke="#ccc" id="_894C723F-0E4C-4154-94DE-73DD11202900?shapeType=BACKGROUND" paint-order="fill stroke markers" d=" M 0 0 L 46 0 L 46 46 L 0 46 Z" stroke-miterlimit="10" stroke-width="2" stroke-dasharray=""/></g><g id="_894C723F-0E4C-4154-94DE-73DD11202900" transform="matrix(1,0,0,1,0,15.5)"><text fill="#929292" stroke="none" font-family="Open Sans" font-size="12pt" font-style="normal" font-weight="normal" text-decoration="normal" x="23" y="12" text-anchor="middle" dominant-baseline="alphabetic">  End  </text></g></g><g id="_62A24249-BEB4-4501-9916-FF71E34BDA4D" transform="matrix(1,0,0,1,354,1531)"><g><path fill="#fff" stroke="#ccc" id="_62A24249-BEB4-4501-9916-FF71E34BDA4D?shapeType=BACKGROUND" paint-order="fill stroke markers" d=" M 0 5 L 0 5 L 0 5.000000000000001 A 5 5 0 0 1 5 0 L 245 0 L 245 0 L 245 0 A 5 5 0 0 1 250 5 L 250 85 L 250 85 L 250 85 A 5 5 0 0 1 245 90 L 5 90 L 5 90 L 5 90 A 5 5 0 0 1 0 85 Z" stroke-miterlimit="10" stroke-width="2" stroke-dasharray=""/></g><g transform="matrix(1,0,0,1,90,35)"><text fill="#383B3D" stroke="none" font-family="Open Sans" font-size="12pt" font-style="normal" font-weight="normal" text-decoration="normal" x="61.15625" y="12" text-anchor="middle" dominant-baseline="central">Notify Customer</text></g><g transform="matrix(1,0,0,1,45,46)"><g id="_62A24249-BEB4-4501-9916-FF71E34BDA4D"><path fill="#0066CC" stroke="#d5d5d5" id="_62A24249-BEB4-4501-9916-FF71E34BDA4D" paint-order="fill stroke markers" d=" M 0 -25 L 0 -25 L 1.5308084989341915e-15 -25 A 25 25 0 0 1 25 0 L 25 0 L 25 0 A 25 25 0 0 1 1.5308084989341915e-15 25 L 0 25 L 1.5308084989341915e-15 25 A 25 25 0 0 1 -25 3.061616997868383e-15 L -25 0 L -25 3.061616997868383e-15 A 25 25 0 0 1 1.5308084989341915e-15 -25 Z" stroke-miterlimit="10" stroke-dasharray=""/></g><g><g transform="matrix(0.35,0,0,0.35,-11,-11)"><path fill="#fff" stroke="#fff" paint-order="fill stroke markers" d=" M 0 0 M 61.99 20.83 C 62.4 21.9 62.050000000000004 23.119999999999997 61.2 23.9 L 55.790000000000006 28.83 C 55.93000000000001 29.869999999999997 56.00000000000001 30.93 56.00000000000001 32 C 56.00000000000001 33.07 55.92000000000001 34.14 55.790000000000006 35.17 L 61.2 40.09 C 62.050000000000004 40.88 62.400000000000006 42.09 61.99 43.17 C 61.440000000000005 44.660000000000004 60.78 46.09 60.03 47.46 L 59.44 48.47 C 58.61 49.85 57.69 51.15 56.68 52.379999999999995 C 55.93 53.269999999999996 54.72 53.58 53.62 53.23 L 46.66 51.01 C 44.98 52.3 43.019999999999996 53.37 41.16 54.199999999999996 L 39.599999999999994 61.339999999999996 C 39.349999999999994 62.459999999999994 38.48 63.26 37.31999999999999 63.559999999999995 C 35.599999999999994 63.849999999999994 33.81999999999999 63.99999999999999 31.89999999999999 63.99999999999999 C 30.199999999999992 63.99999999999999 28.41999999999999 63.849999999999994 26.699999999999992 63.559999999999995 C 25.549999999999994 63.26 24.679999999999993 62.459999999999994 24.429999999999993 61.339999999999996 L 22.869999999999994 54.199999999999996 C 20.889999999999993 53.37 19.039999999999992 52.3 17.369999999999994 51.01 L 10.409999999999993 53.23 C 9.309999999999993 53.58 8.089999999999993 53.269999999999996 7.3499999999999925 52.379999999999995 C 6.339999999999993 51.13999999999999 5.409999999999993 49.839999999999996 4.589999999999993 48.47 L 3.999999999999993 47.46 C 3.239999999999993 46.1 2.579999999999993 44.660000000000004 2.029999999999993 43.17 C 1.6299999999999932 42.09 1.969999999999993 40.88 2.819999999999993 40.09 L 8.229999999999993 35.17 C 8.089999999999993 34.13 8.019999999999992 33.07 8.019999999999992 32 C 8.019999999999992 30.93 8.089999999999993 29.86 8.229999999999993 28.83 L 2.819999999999993 23.9 C 1.9599999999999933 23.11 1.6199999999999932 21.91 2.029999999999993 20.83 C 2.579999999999993 19.34 3.249999999999993 17.9 3.999999999999993 16.54 L 4.579999999999993 15.53 C 5.409999999999993 14.149999999999999 6.329999999999993 12.86 7.3499999999999925 11.62 C 8.089999999999993 10.729999999999999 9.309999999999992 10.42 10.409999999999993 10.77 L 17.369999999999994 12.99 C 19.039999999999992 11.7 20.889999999999993 10.620000000000001 22.869999999999994 9.81 L 24.429999999999993 2.670000000000001 C 24.679999999999993 1.540000000000001 25.549999999999994 0.6300000000000008 26.699999999999992 0.44000000000000083 C 28.429999999999993 0.15000000000000085 30.199999999999992 8.326672684688674e-16 32.00999999999999 8.326672684688674e-16 C 33.81999999999999 8.326672684688674e-16 35.599999999999994 0.15000000000000083 37.31999999999999 0.44000000000000083 C 38.46999999999999 0.6300000000000008 39.349999999999994 1.530000000000001 39.599999999999994 2.670000000000001 L 41.16 9.81 C 43.019999999999996 10.63 44.98 11.700000000000001 46.66 12.99 L 53.62 10.77 C 54.72 10.42 55.93 10.73 56.68 11.62 C 57.69 12.85 58.62 14.149999999999999 59.44 15.53 L 60.03 16.54 C 60.78 17.9 61.44 19.34 61.99 20.83 L 61.99 20.83 Z M 0 0 M 32 42 C 37.53 42 42 37.53 42 31.89 C 42 26.25 37.53 21.89 32 21.89 C 26.47 21.89 22 26.48 22 31.89 C 22 37.3 26.48 42 32 42 Z" stroke-miterlimit="10" stroke-width="2" stroke-dasharray=""/></g></g></g><g transform="matrix(1,0,0,1,224,6)"><g><path fill="white" stroke="white" paint-order="fill stroke markers" d=" M 9 0 L 11 0 L 10.999999999999998 0 A 9 9 0 0 1 20 9 L 20 11 L 20 11 A 9 9 0 0 1 11 20 L 9 20 L 9 20 A 9 9 0 0 1 0 11.000000000000002 L 0 9 L 0 9.000000000000002 A 9 9 0 0 1 8.999999999999998 0 Z" fill-opacity="0.001" stroke-miterlimit="10" stroke-opacity="0.001" stroke-dasharray=""/></g><g transform="matrix(1,0,0,1,20,10)"/><g transform="matrix(2,0,0,2,0,0)"><path fill="#CCC" stroke="none" paint-order="stroke fill markers" d=" M 0 0 M 2.175 3.286 C 1.743 3.286 1.394 3.637 1.394 4.067 C 1.394 4.498 1.745 4.849 2.175 4.849 C 2.605 4.849 2.956 4.498 2.956 4.067 C 2.956 3.637 2.606 3.286 2.175 3.286 Z M 0 0 M 2.175 4.38 C 2.003 4.38 1.863 4.239 1.863 4.067 C 1.863 3.896 2.003 3.755 2.175 3.755 C 2.346 3.755 2.487 3.896 2.487 4.067 C 2.487 4.239 2.346 4.38 2.175 4.38 Z M 0 0 M 1.875 0.312 C 1.185 0.312 0.625 0.873 0.625 1.563 C 0.625 2.254 1.185 2.813 1.875 2.813 C 2.565 2.813 3.125 2.253 3.125 1.563 C 3.125 0.874 2.565 0.312 1.875 0.312 Z M 0 0 M 1.875 2.032 C 1.616 2.032 1.406 1.822 1.406 1.563 C 1.406 1.304 1.616 1.094 1.875 1.094 C 2.134 1.094 2.344 1.304 2.344 1.563 C 2.344 1.822 2.134 2.032 1.875 2.032 Z M 0 0 M 8.641 2.285 L 7.704 2.208 C 7.665 2.085 7.683 2.121 7.626 2 C 7.75 1.829 8.078 1.493 8.205 1.321 C 8.222 1.296 8.235 1.269 8.235 1.238 C 8.235 1.115 7.716 0.64 7.603 0.535 C 7.577 0.513 7.546 0.5 7.511 0.5 C 7.48 0.5 7.449 0.509 7.423 0.53 L 6.772 1.1 C 6.666 1.047 6.65 1.047 6.535 1.012 L 6.475 0.112 C 6.47 0.048 6.408 0 6.346 0 L 5.53 0 C 5.469 0 5.416 0.044 5.399 0.106 C 5.343 0.32 5.371 0.796 5.348 1.017 C 5.23 1.056 5.241 1.065 5.129 1.122 L 4.452 0.528 C 4.427 0.511 4.395 0.498 4.36 0.498 C 4.233 0.498 3.74 1.031 3.654 1.149 C 3.631 1.174 3.623 1.205 3.623 1.235 C 3.623 1.266 3.637 1.297 3.654 1.322 C 3.793 1.489 4.098 1.773 4.22 1.949 C 4.164 2.059 4.173 2.109 4.137 2.226 L 3.227 2.269 C 3.17 2.278 3.126 2.345 3.126 2.401 L 3.125 3.213 C 3.125 3.276 3.169 3.332 3.23 3.342 L 4.15 3.402 C 4.189 3.524 4.18 3.485 4.242 3.605 C 4.115 3.776 3.793 4.143 3.666 4.309 C 3.648 4.334 3.636 4.361 3.636 4.392 C 3.636 4.52 4.155 4.99 4.269 5.094 C 4.294 5.117 4.325 5.129 4.36 5.129 C 4.39 5.129 4.427 5.121 4.447 5.1 L 5.094 4.495 C 5.2 4.548 5.209 4.543 5.325 4.578 L 5.397 5.515 C 5.406 5.577 5.468 5.625 5.528 5.625 L 6.345 5.625 C 6.406 5.625 6.459 5.581 6.475 5.52 C 6.532 5.304 6.491 4.804 6.513 4.577 C 6.631 4.542 6.62 4.536 6.732 4.479 L 7.423 5.095 C 7.448 5.113 7.479 5.126 7.514 5.126 C 7.642 5.126 8.135 4.589 8.221 4.472 C 8.244 4.449 8.252 4.419 8.252 4.388 C 8.252 4.353 8.238 4.327 8.221 4.302 C 8.082 4.135 7.714 3.824 7.591 3.649 C 7.647 3.54 7.637 3.542 7.672 3.426 L 8.648 3.353 C 8.705 3.345 8.749 3.278 8.749 3.222 L 8.749 2.41 C 8.747 2.355 8.703 2.297 8.641 2.285 Z M 0 0 M 5.92 3.919 C 5.317 3.919 4.822 3.427 4.822 2.819 C 4.822 2.212 5.314 1.72 5.92 1.72 C 6.528 1.72 7.02 2.212 7.02 2.819 C 7.02 3.427 6.528 3.919 5.92 3.919 Z M 0 0 M 8.435 6.25 C 7.941 5.757 7.497 6.25 7.497 6.25 L 5.622 8.125 L 3.728 8.125 C 3.728 8.125 3.415 8.125 3.415 7.813 C 3.415 7.5 3.747 7.5 3.747 7.5 L 5.31 7.5 C 5.31 7.5 5.622 7.5 5.622 7.187 C 5.622 6.875 5.31 6.875 5.31 6.875 L 1.882 6.87 C 1.683 6.865 1.305 6.905 0.944 7.304 L 0 8.301 L 1.872 10 L 2.497 9.374 L 6.117 9.374 C 6.2 9.374 6.28 9.342 6.339 9.283 L 6.872 8.75 L 8.435 7.187 C 8.435 7.187 8.927 6.743 8.435 6.25 Z"/></g></g></g><g id="_B05E670E-65B9-45C2-BDB2-49BBE93BD67B" transform="matrix(1,0,0,1,456,1748)"><g><path fill="#fff" stroke="#ccc" id="_B05E670E-65B9-45C2-BDB2-49BBE93BD67B?shapeType=BACKGROUND" paint-order="fill stroke markers" d=" M 0 0 L 46 0 L 46 46 L 0 46 Z" stroke-miterlimit="10" stroke-width="2" stroke-dasharray=""/></g><g id="_B05E670E-65B9-45C2-BDB2-49BBE93BD67B" transform="matrix(1,0,0,1,0,15.5)"><text fill="#929292" stroke="none" font-family="Open Sans" font-size="12pt" font-style="normal" font-weight="normal" text-decoration="normal" x="23" y="12" text-anchor="middle" dominant-baseline="alphabetic">  End  </text></g></g><g id="startEdge"><g><path fill="none" stroke="#757575" paint-order="fill stroke markers" d=" M 327 100 L 327 110 L 327 174.66666666666669 L 327 217" stroke-miterlimit="10" stroke-width="2" stroke-dasharray=""/></g><g transform="matrix(1,0,0,1,327,100)"/><g transform="matrix(-1,1.2246467991473532e-16,-1.2246467991473532e-16,-1,331,229)"><path fill="#757575" stroke="#757575" paint-order="fill stroke markers" d=" M 8 15 L 0 15 L 4 3 Z" stroke-miterlimit="10" stroke-width="2" stroke-dasharray=""/></g><g/><g transform="matrix(1,0,0,1,337,164.5)"/></g><g id="_864F62A3-CF33-4891-96B8-1569FCE960FB"><g><path fill="none" stroke="#757575" paint-order="fill stroke markers" d=" M 327 319 L 327 329 L 327 392.3333333333333 L 327 434" stroke-miterlimit="10" stroke-width="2" stroke-dasharray=""/></g><g transform="matrix(1,0,0,1,327,319)"/><g transform="matrix(-1,1.2246467991473532e-16,-1.2246467991473532e-16,-1,331,446)"><path fill="#757575" stroke="#757575" paint-order="fill stroke markers" d=" M 8 15 L 0 15 L 4 3 Z" stroke-miterlimit="10" stroke-width="2" stroke-dasharray=""/></g><g/><g transform="matrix(1,0,0,1,337,382.5)"/></g><g id="_713A4D32-EE49-4CCF-8957-88EAF04CE2EB"><g><path fill="none" stroke="#757575" paint-order="fill stroke markers" d=" M 327 536 L 327 546 L 327 609.3333333333334 L 327 651" stroke-miterlimit="10" stroke-width="2" stroke-dasharray=""/></g><g transform="matrix(1,0,0,1,327,536)"/><g transform="matrix(-1,1.2246467991473532e-16,-1.2246467991473532e-16,-1,331,663)"><path fill="#757575" stroke="#757575" paint-order="fill stroke markers" d=" M 8 15 L 0 15 L 4 3 Z" stroke-miterlimit="10" stroke-width="2" stroke-dasharray=""/></g><g/><g transform="matrix(1,0,0,1,337,599.5)"/></g><g id="_956D1252-943B-4865-857C-C02C3D7DA191"><g><path fill="none" stroke="#12DE70" paint-order="fill stroke markers" d=" M 287.2325581395349 753 L 287.2325581395349 763 L 287.2325581395349 803.2066929133858 L 175 803.2066929133858 L 175 868" stroke-miterlimit="10" stroke-width="2" stroke-dasharray=""/></g><g transform="matrix(1,0,0,1,287.2325581395349,753)"/><g transform="matrix(-1,1.2246467991473532e-16,-1.2246467991473532e-16,-1,179,880)"><path fill="#12DE70" stroke="#12DE70" paint-order="fill stroke markers" d=" M 8 15 L 0 15 L 4 3 Z" stroke-miterlimit="10" stroke-width="2" stroke-dasharray=""/></g><g/><g transform="matrix(1,0,0,1,182.49329085481142,809.8780220352829)"/></g><g id="_31C425C2-E331-4444-8660-0F7DE525C2A1"><g><path fill="none" stroke="#757575" paint-order="fill stroke markers" d=" M 175 970 L 175 980 L 175 1020.2066929133858 L 287.2325581395349 1020.2066929133858 L 287.2325581395349 1085" stroke-miterlimit="10" stroke-width="2" stroke-dasharray=""/></g><g transform="matrix(1,0,0,1,175,970)"/><g transform="matrix(-1,1.2246467991473532e-16,-1.2246467991473532e-16,-1,291.2325581395349,1097)"><path fill="#757575" stroke="#757575" paint-order="fill stroke markers" d=" M 8 15 L 0 15 L 4 3 Z" stroke-miterlimit="10" stroke-width="2" stroke-dasharray=""/></g><g/><g transform="matrix(1,0,0,1,182.49329085481142,1026.8780220352828)"/></g><g id="_E8EB0469-3C08-4A05-9A65-62A127976EB6"><g><path fill="none" stroke="#757575" paint-order="fill stroke markers" d=" M 327 1187 L 327 1197 L 327 1260.3333333333333 L 327 1302" stroke-miterlimit="10" stroke-width="2" stroke-dasharray=""/></g><g transform="matrix(1,0,0,1,327,1187)"/><g transform="matrix(-1,1.2246467991473532e-16,-1.2246467991473532e-16,-1,331,1314)"><path fill="#757575" stroke="#757575" paint-order="fill stroke markers" d=" M 8 15 L 0 15 L 4 3 Z" stroke-miterlimit="10" stroke-width="2" stroke-dasharray=""/></g><g/><g transform="matrix(1,0,0,1,337,1250.5)"/></g><g id="_061B641E-228A-403A-86BF-FE5645133BCC"><g><path fill="none" stroke="#12DE70" paint-order="fill stroke markers" d=" M 366.7674418604651 1404 L 366.7674418604651 1414 L 366.7674418604651 1454.2066929133857 L 479 1454.2066929133857 L 479 1519" stroke-miterlimit="10" stroke-width="2" stroke-dasharray=""/></g><g transform="matrix(1,0,0,1,366.7674418604651,1404)"/><g transform="matrix(-1,1.2246467991473532e-16,-1.2246467991473532e-16,-1,483,1531)"><path fill="#12DE70" stroke="#12DE70" paint-order="fill stroke markers" d=" M 8 15 L 0 15 L 4 3 Z" stroke-miterlimit="10" stroke-width="2" stroke-dasharray=""/></g><g/><g transform="matrix(1,0,0,1,374.26073271527656,1460.8780220352828)"/></g><g id="_8E6E2B77-3FC1-476D-833E-BC72AC60B600"><g><path fill="none" stroke="#757575" paint-order="fill stroke markers" d=" M 479 1621 L 479 1631 L 479 1694.3333333333333 L 479 1736" stroke-miterlimit="10" stroke-width="2" stroke-dasharray=""/></g><g transform="matrix(1,0,0,1,479,1621)"/><g transform="matrix(-1,1.2246467991473532e-16,-1.2246467991473532e-16,-1,483,1748)"><path fill="#757575" stroke="#757575" paint-order="fill stroke markers" d=" M 8 15 L 0 15 L 4 3 Z" stroke-miterlimit="10" stroke-width="2" stroke-dasharray=""/></g><g/><g transform="matrix(1,0,0,1,489,1684.5)"/></g><g id="_25F24F27-01CE-4C1F-BE40-E1D72BAB3C27"><g><path fill="none" stroke="#757575" paint-order="fill stroke markers" d=" M 287.2325581395349 1404 L 287.2325581395349 1414 L 287.2325581395349 1454.2066929133857 L 175 1454.2066929133857 L 175 1519" stroke-miterlimit="10" stroke-width="2" stroke-dasharray=""/></g><g transform="matrix(1,0,0,1,287.2325581395349,1404)"/><g transform="matrix(-1,1.2246467991473532e-16,-1.2246467991473532e-16,-1,179,1531)"><path fill="#757575" stroke="#757575" paint-order="fill stroke markers" d=" M 8 15 L 0 15 L 4 3 Z" stroke-miterlimit="10" stroke-width="2" stroke-dasharray=""/></g><g transform="matrix(1,0,0,1,181.50688118158385,1445.2066929133857)"><path fill="gray" stroke="gray" paint-order="fill stroke markers" d=" M 3 0 L 96.21879577636719 0 L 96.21879577636719 0 A 3 3 0 0 1 99.21879577636719 3 L 99.21879577636719 15 L 99.21879577636719 15 A 3 3 0 0 1 96.21879577636719 18 L 3 18 L 3 18 A 3 3 0 0 1 0 15 L 0 3 L 0 3.0000000000000004 A 3 3 0 0 1 2.9999999999999996 0 Z" stroke-miterlimit="10" stroke-dasharray=""/></g><g transform="matrix(1,0,0,1,184.50688118158385,1448.2066929133857)"><text fill="white" stroke="none" font-family="Verdana" font-size="10pt" font-style="normal" font-weight="normal" text-decoration="normal" x="0" y="9.600000000000001" text-anchor="start" dominant-baseline="alphabetic">order cance...                </text><path fill="none" stroke="none"/><text fill="none" stroke="white" font-family="Verdana" font-size="10pt" font-style="normal" font-weight="normal" text-decoration="normal" x="0" y="9.600000000000001" text-anchor="start" dominant-baseline="alphabetic" stroke-miterlimit="10" stroke-dasharray="">order cance...                </text></g></g><g id="_C2B92620-9922-4878-8208-6FFC6FE73F39"><g><path fill="none" stroke="#757575" paint-order="fill stroke markers" d=" M 175 1621 L 175 1631 L 175 1694.3333333333333 L 175 1736" stroke-miterlimit="10" stroke-width="2" stroke-dasharray=""/></g><g transform="matrix(1,0,0,1,175,1621)"/><g transform="matrix(-1,1.2246467991473532e-16,-1.2246467991473532e-16,-1,179,1748)"><path fill="#757575" stroke="#757575" paint-order="fill stroke markers" d=" M 8 15 L 0 15 L 4 3 Z" stroke-miterlimit="10" stroke-width="2" stroke-dasharray=""/></g><g/><g transform="matrix(1,0,0,1,185,1684.5)"/></g><g id="_9FDE8EEF-9C70-4B4D-8F53-0451EF38EC94"><g><path fill="none" stroke="#757575" paint-order="fill stroke markers" d=" M 366.7674418604651 753 L 366.7674418604651 763 L 366.7674418604651 803.2066929133858 L 479 803.2066929133858 L 479 868" stroke-miterlimit="10" stroke-width="2" stroke-dasharray=""/></g><g transform="matrix(1,0,0,1,366.7674418604651,753)"/><g transform="matrix(-1,1.2246467991473532e-16,-1.2246467991473532e-16,-1,483,880)"><path fill="#757575" stroke="#757575" paint-order="fill stroke markers" d=" M 8 15 L 0 15 L 4 3 Z" stroke-miterlimit="10" stroke-width="2" stroke-dasharray=""/></g><g transform="matrix(1,0,0,1,385.9436803418537,794.2066929133858)"><path fill="gray" stroke="gray" paint-order="fill stroke markers" d=" M 3 0 L 70.88008117675781 0 L 70.88008117675781 0 A 3 3 0 0 1 73.88008117675781 3 L 73.88008117675781 15 L 73.88008117675781 15 A 3 3 0 0 1 70.88008117675781 18 L 3 18 L 3 18 A 3 3 0 0 1 0 15 L 0 3 L 0 3.0000000000000004 A 3 3 0 0 1 2.9999999999999996 0 Z" stroke-miterlimit="10" stroke-dasharray=""/></g><g transform="matrix(1,0,0,1,388.9436803418537,797.2066929133858)"><text fill="white" stroke="none" font-family="Verdana" font-size="10pt" font-style="normal" font-weight="normal" text-decoration="normal" x="0" y="9.600000000000001" text-anchor="start" dominant-baseline="alphabetic">.inventory                      </text><path fill="none" stroke="none"/><text fill="none" stroke="white" font-family="Verdana" font-size="10pt" font-style="normal" font-weight="normal" text-decoration="normal" x="0" y="9.600000000000001" text-anchor="start" dominant-baseline="alphabetic" stroke-miterlimit="10" stroke-dasharray="">.inventory                      </text></g></g><g id="_BB7991E3-1676-4E0C-A886-7BF154D8C6B2"><g><path fill="none" stroke="#757575" paint-order="fill stroke markers" d=" M 479 970 L 479 980 L 479 1020.2066929133858 L 366.7674418604651 1020.2066929133858 L 366.7674418604651 1085" stroke-miterlimit="10" stroke-width="2" stroke-dasharray=""/></g><g transform="matrix(1,0,0,1,479,970)"/><g transform="matrix(-1,1.2246467991473532e-16,-1.2246467991473532e-16,-1,370.7674418604651,1097)"><path fill="#757575" stroke="#757575" paint-order="fill stroke markers" d=" M 8 15 L 0 15 L 4 3 Z" stroke-miterlimit="10" stroke-width="2" stroke-dasharray=""/></g><g/><g transform="matrix(1,0,0,1,374.26073271527656,1026.8780220352828)"/></g></g></g></svg>