<?xml version="1.0" encoding="UTF-8" standalone="no"?><svg xmlns="http://www.w3.org/2000/svg" xmlns:xlink="http://www.w3.org/1999/xlink" contentScriptType="application/ecmascript" contentStyleType="text/css" height="452px" preserveAspectRatio="none" style="width:624px;height:452px;" version="1.1" viewBox="0 0 624 452" width="624px" zoomAndPan="magnify"><defs><filter height="300%" id="f6ws3rs" width="300%" x="-1" y="-1"><feGaussianBlur result="blurOut" stdDeviation="2.0"/><feColorMatrix in="blurOut" result="blurOut2" type="matrix" values="0 0 0 0 0 0 0 0 0 0 0 0 0 0 0 0 0 0 .4 0"/><feOffset dx="4.0" dy="4.0" in="blurOut2" result="blurOut3"/><feBlend in="SourceGraphic" in2="blurOut3" mode="normal"/></filter></defs><g><rect fill="#FFFFFF" filter="url(#f6ws3rs)" height="363.2969" rx="12.5" ry="12.5" style="stroke: #000000; stroke-width: 1.5;" width="309" x="155.5" y="8"/><rect fill="#FFFFFF" height="331" rx="12.5" ry="12.5" style="stroke: #FFFFFF; stroke-width: 1.0;" width="303" x="158.5" y="37.2969"/><line style="stroke: #000000; stroke-width: 1.5;" x1="155.5" x2="464.5" y1="34.2969" y2="34.2969"/><text fill="#000000" font-family="sans-serif" font-size="14" lengthAdjust="spacingAndGlyphs" textLength="230" x="195" y="25.9951">Github PR Checker Workflow v1.0</text><rect fill="#F8F8FF" filter="url(#f6ws3rs)" height="64.2344" rx="12.5" ry="12.5" style="stroke: #7FE5F0; stroke-width: 1.5;" width="144" x="178" y="104.2969"/><line style="stroke: #7FE5F0; stroke-width: 1.5;" x1="178" x2="322" y1="130.5938" y2="130.5938"/><text fill="#000000" font-family="sans-serif" font-size="14" lengthAdjust="spacingAndGlyphs" textLength="105" x="197.5" y="122.292">HandleOpenPR</text><text fill="#000000" font-family="sans-serif" font-size="12" lengthAdjust="spacingAndGlyphs" textLength="110" x="183" y="146.7324">Type: Event State</text><text fill="#000000" font-family="sans-serif" font-size="12" lengthAdjust="spacingAndGlyphs" textLength="124" x="183" y="160.7012">Events: PullRequest</text><rect fill="#F8F8FF" filter="url(#f6ws3rs)" height="78.2031" rx="12.5" ry="12.5" style="stroke: #6A2C70; stroke-width: 1.5;" width="167" x="166.5" y="205.2969"/><line style="stroke: #6A2C70; stroke-width: 1.5;" x1="166.5" x2="333.5" y1="231.5938" y2="231.5938"/><text fill="#000000" font-family="sans-serif" font-size="14" lengthAdjust="spacingAndGlyphs" textLength="147" x="176.5" y="223.292">DecoratePullRequest</text><text fill="#000000" font-family="sans-serif" font-size="12" lengthAdjust="spacingAndGlyphs" textLength="121" x="171.5" y="247.7324">Type: Parallel State</text><text fill="#000000" font-family="sans-serif" font-size="12" lengthAdjust="spacingAndGlyphs" textLength="143" x="171.5" y="261.7012">Completion type: "and"</text><text fill="#000000" font-family="sans-serif" font-size="12" lengthAdjust="spacingAndGlyphs" textLength="127" x="171.5" y="275.6699">Num. of branches: 2</text><ellipse cx="250" cy="57.2969" fill="#008000" filter="url(#f6ws3rs)" rx="10" ry="10" style="stroke: none; stroke-width: 1.0;"/><ellipse cx="250" cy="346.2969" fill="none" filter="url(#f6ws3rs)" rx="10" ry="10" style="stroke: #FFA500; stroke-width: 1.0;"/><ellipse cx="250.5" cy="346.7969" fill="#FFA500" rx="6" ry="6" style="stroke: none; stroke-width: 1.0;"/><path d="M250,67.4369 C250,75.3769 250,87.4369 250,99.1969 " fill="none" style="stroke: #000000; stroke-width: 1.0;"/><polygon fill="#000000" points="250,104.2069,254,95.2069,250,99.2069,246,95.2069,250,104.2069" style="stroke: #000000; stroke-width: 1.0;"/><path d="M250,168.5269 C250,178.3969 250,189.4769 250,200.0269 " fill="none" style="stroke: #000000; stroke-width: 1.0;"/><polygon fill="#000000" points="250,205.1569,254,196.1569,250,200.1569,246,196.1569,250,205.1569" style="stroke: #000000; stroke-width: 1.0;"/><path d="M250,283.3869 C250,300.0469 250,318.5769 250,330.9769 " fill="none" style="stroke: #000000; stroke-width: 1.0;"/><polygon fill="#000000" points="250,336.2269,254,327.2269,250,331.2269,246,327.2269,250,336.2269" style="stroke: #000000; stroke-width: 1.0;"/><text fill="#000000" font-family="sans-serif" font-size="13" lengthAdjust="spacingAndGlyphs" textLength="179" x="251" y="314.3638">Produced Events: PRVerified</text><rect fill="#FFFFFF" height="62.8906" rx="5" ry="5" style="stroke: #FFFFFF; stroke-width: 1.0;" width="615" x="8" y="389"/><text fill="#000000" font-family="sans-serif" font-size="14" lengthAdjust="spacingAndGlyphs" textLength="216" x="14" y="406.9951">State Types and Border Colors:</text><text fill="#000000" font-family="sans-serif" font-size="14" font-weight="bold" lengthAdjust="spacingAndGlyphs" textLength="44" x="19" y="425.292">Event</text><text fill="#000000" font-family="sans-serif" font-size="14" font-weight="bold" lengthAdjust="spacingAndGlyphs" textLength="78" x="73" y="425.292">Operation</text><text fill="#000000" font-family="sans-serif" font-size="14" font-weight="bold" lengthAdjust="spacingAndGlyphs" textLength="53" x="161" y="425.292">Switch</text><text fill="#000000" font-family="sans-serif" font-size="14" font-weight="bold" lengthAdjust="spacingAndGlyphs" textLength="43" x="224" y="425.292">Delay</text><text fill="#000000" font-family="sans-serif" font-size="14" font-weight="bold" lengthAdjust="spacingAndGlyphs" textLength="57" x="277" y="425.292">Parallel</text><text fill="#000000" font-family="sans-serif" font-size="14" font-weight="bold" lengthAdjust="spacingAndGlyphs" textLength="67" x="344" y="425.292">SubFlow</text><text fill="#000000" font-family="sans-serif" font-size="14" font-weight="bold" lengthAdjust="spacingAndGlyphs" textLength="43" x="421" y="425.292">Inject</text><text fill="#000000" font-family="sans-serif" font-size="14" font-weight="bold" lengthAdjust="spacingAndGlyphs" textLength="63" x="474" y="425.292">ForEach</text><text fill="#000000" font-family="sans-serif" font-size="14" font-weight="bold" lengthAdjust="spacingAndGlyphs" textLength="65" x="547" y="425.292">CallBack</text><rect fill="#7FE5F0" height="16.2969" style="stroke: none; stroke-width: 1.0;" width="54" x="14" y="428.5938"/><text fill="#000000" font-family="sans-serif" font-size="14" lengthAdjust="spacingAndGlyphs" textLength="0" x="18" y="441.5889"/><rect fill="#BADA55" height="16.2969" style="stroke: none; stroke-width: 1.0;" width="88" x="68" y="428.5938"/><text fill="#000000" font-family="sans-serif" font-size="14" lengthAdjust="spacingAndGlyphs" textLength="0" x="72" y="441.5889"/><rect fill="#92A0F2" height="16.2969" style="stroke: none; stroke-width: 1.0;" width="63" x="156" y="428.5938"/><text fill="#000000" font-family="sans-serif" font-size="14" lengthAdjust="spacingAndGlyphs" textLength="0" x="160" y="441.5889"/><rect fill="#B83B5E" height="16.2969" style="stroke: none; stroke-width: 1.0;" width="53" x="219" y="428.5938"/><text fill="#000000" font-family="sans-serif" font-size="14" lengthAdjust="spacingAndGlyphs" textLength="0" x="223" y="441.5889"/><rect fill="#6A2C70" height="16.2969" style="stroke: none; stroke-width: 1.0;" width="67" x="272" y="428.5938"/><text fill="#000000" font-family="sans-serif" font-size="14" lengthAdjust="spacingAndGlyphs" textLength="0" x="276" y="441.5889"/><rect fill="#87753C" height="16.2969" style="stroke: none; stroke-width: 1.0;" width="77" x="339" y="428.5938"/><text fill="#000000" font-family="sans-serif" font-size="14" lengthAdjust="spacingAndGlyphs" textLength="0" x="343" y="441.5889"/><rect fill="#1E5F74" height="16.2969" style="stroke: none; stroke-width: 1.0;" width="53" x="416" y="428.5938"/><text fill="#000000" font-family="sans-serif" font-size="14" lengthAdjust="spacingAndGlyphs" textLength="0" x="420" y="441.5889"/><rect fill="#931A25" height="16.2969" style="stroke: none; stroke-width: 1.0;" width="73" x="469" y="428.5938"/><text fill="#000000" font-family="sans-serif" font-size="14" lengthAdjust="spacingAndGlyphs" textLength="0" x="473" y="441.5889"/><rect fill="#FFCB8E" height="16.2969" style="stroke: none; stroke-width: 1.0;" width="75" x="542" y="428.5938"/><text fill="#000000" font-family="sans-serif" font-size="14" lengthAdjust="spacingAndGlyphs" textLength="0" x="546" y="441.5889"/><line style="stroke: #000000; stroke-width: 1.0;" x1="14" x2="617" y1="412.2969" y2="412.2969"/><line style="stroke: #000000; stroke-width: 1.0;" x1="14" x2="617" y1="428.5938" y2="428.5938"/><line style="stroke: #000000; stroke-width: 1.0;" x1="14" x2="617" y1="444.8906" y2="444.8906"/><line style="stroke: #000000; stroke-width: 1.0;" x1="14" x2="14" y1="412.2969" y2="444.8906"/><line style="stroke: #000000; stroke-width: 1.0;" x1="68" x2="68" y1="412.2969" y2="444.8906"/><line style="stroke: #000000; stroke-width: 1.0;" x1="156" x2="156" y1="412.2969" y2="444.8906"/><line style="stroke: #000000; stroke-width: 1.0;" x1="219" x2="219" y1="412.2969" y2="444.8906"/><line style="stroke: #000000; stroke-width: 1.0;" x1="272" x2="272" y1="412.2969" y2="444.8906"/><line style="stroke: #000000; stroke-width: 1.0;" x1="339" x2="339" y1="412.2969" y2="444.8906"/><line style="stroke: #000000; stroke-width: 1.0;" x1="416" x2="416" y1="412.2969" y2="444.8906"/><line style="stroke: #000000; stroke-width: 1.0;" x1="469" x2="469" y1="412.2969" y2="444.8906"/><line style="stroke: #000000; stroke-width: 1.0;" x1="542" x2="542" y1="412.2969" y2="444.8906"/><line style="stroke: #000000; stroke-width: 1.0;" x1="617" x2="617" y1="412.2969" y2="444.8906"/></g></svg>