<svg version="1.1" xmlns="http://www.w3.org/2000/svg" xmlns:xlink="http://www.w3.org/1999/xlink" width="350" height="759" viewBox="0 0 350 759"><defs/><g transform="matrix(1,0,0,1,0,0)"><g><g><g><path fill="none" stroke="#d3d3d3" paint-order="fill stroke markers" d=" M 0 0 L 1200 0" stroke-miterlimit="10" stroke-opacity="0.8" stroke-dasharray="5"/></g><g><path fill="none" stroke="#d3d3d3" paint-order="fill stroke markers" d=" M 0 0 L 0 800" stroke-miterlimit="10" stroke-opacity="0.8" stroke-dasharray="5"/></g></g><g id="_62D02693-F4D5-4161-893A-FBFE07EC478D" transform="matrix(1,0,0,1,150,50)"><g><path fill="#fff" stroke="#ccc" id="_62D02693-F4D5-4161-893A-FBFE07EC478D?shapeType=BACKGROUND" paint-order="fill stroke markers" d=" M 25 0 L 25 0 L 25 0 A 25 25 0 0 1 50 25 L 50 25 L 50 25 A 25 25 0 0 1 25 50 L 25 50 L 25 50 A 25 25 0 0 1 0 25.000000000000004 L 0 25 L 0 25.000000000000004 A 25 25 0 0 1 25 0 Z" stroke-miterlimit="10" stroke-width="2" stroke-dasharray=""/></g><g id="_62D02693-F4D5-4161-893A-FBFE07EC478D" transform="matrix(1,0,0,1,2,17)"><text fill="#929292" stroke="none" font-family="Open Sans" font-size="12pt" font-style="normal" font-weight="normal" text-decoration="normal" x="25" y="12" text-anchor="middle" dominant-baseline="alphabetic"> Start  </text></g></g><g id="_01C666B4-447A-424B-85E3-1EA1F77DD3E1" transform="matrix(1,0,0,1,152,663)"><g><path fill="#fff" stroke="#ccc" id="_01C666B4-447A-424B-85E3-1EA1F77DD3E1?shapeType=BACKGROUND" paint-order="fill stroke markers" d=" M 0 0 L 46 0 L 46 46 L 0 46 Z" stroke-miterlimit="10" stroke-width="2" stroke-dasharray=""/></g><g id="_01C666B4-447A-424B-85E3-1EA1F77DD3E1" transform="matrix(1,0,0,1,0,15.5)"><text fill="#929292" stroke="none" font-family="Open Sans" font-size="12pt" font-style="normal" font-weight="normal" text-decoration="normal" x="23" y="12" text-anchor="middle" dominant-baseline="alphabetic">  End  </text></g></g><g id="_43A9EA6C-9A7D-4C7A-AB10-BA2044AF91ED" transform="matrix(1,0,0,1,50,229)"><g><path fill="#fff" stroke="#ccc" id="_43A9EA6C-9A7D-4C7A-AB10-BA2044AF91ED?shapeType=BACKGROUND" paint-order="fill stroke markers" d=" M 0 5 L 0 5 L 0 5.000000000000001 A 5 5 0 0 1 5 0 L 245 0 L 245 0 L 245 0 A 5 5 0 0 1 250 5 L 250 85 L 250 85 L 250 85 A 5 5 0 0 1 245 90 L 5 90 L 5 90 L 5 90 A 5 5 0 0 1 0 85 Z" stroke-miterlimit="10" stroke-width="2" stroke-dasharray=""/></g><g transform="matrix(1,0,0,1,90,35)"><text fill="#383B3D" stroke="none" font-family="Open Sans" font-size="12pt" font-style="normal" font-weight="normal" text-decoration="normal" x="67.1328125" y="12" text-anchor="middle" dominant-baseline="central">printWaitMessage</text></g><g transform="matrix(1,0,0,1,45,46)"><g id="_43A9EA6C-9A7D-4C7A-AB10-BA2044AF91ED"><path fill="#0066CC" stroke="#d5d5d5" id="_43A9EA6C-9A7D-4C7A-AB10-BA2044AF91ED" paint-order="fill stroke markers" d=" M 0 -25 L 0 -25 L 1.5308084989341915e-15 -25 A 25 25 0 0 1 25 0 L 25 0 L 25 0 A 25 25 0 0 1 1.5308084989341915e-15 25 L 0 25 L 1.5308084989341915e-15 25 A 25 25 0 0 1 -25 3.061616997868383e-15 L -25 0 L -25 3.061616997868383e-15 A 25 25 0 0 1 1.5308084989341915e-15 -25 Z" stroke-miterlimit="10" stroke-dasharray=""/></g><g transform="matrix(0.35,0,0,0.35,-11.05,-11.05)"><g id="_43A9EA6C-9A7D-4C7A-AB10-BA2044AF91ED"><path fill="#fff" stroke="#fff" id="_43A9EA6C-9A7D-4C7A-AB10-BA2044AF91ED" paint-order="fill stroke markers" d=" M 0 0 M 61.99 20.83 C 62.4 21.9 62.050000000000004 23.119999999999997 61.2 23.9 L 55.790000000000006 28.83 C 55.93000000000001 29.869999999999997 56.00000000000001 30.93 56.00000000000001 32 C 56.00000000000001 33.07 55.92000000000001 34.14 55.790000000000006 35.17 L 61.2 40.09 C 62.050000000000004 40.88 62.400000000000006 42.09 61.99 43.17 C 61.440000000000005 44.660000000000004 60.78 46.09 60.03 47.46 L 59.44 48.47 C 58.61 49.85 57.69 51.15 56.68 52.379999999999995 C 55.93 53.269999999999996 54.72 53.58 53.62 53.23 L 46.66 51.01 C 44.98 52.3 43.019999999999996 53.37 41.16 54.199999999999996 L 39.599999999999994 61.339999999999996 C 39.349999999999994 62.459999999999994 38.48 63.26 37.31999999999999 63.559999999999995 C 35.599999999999994 63.849999999999994 33.81999999999999 63.99999999999999 31.89999999999999 63.99999999999999 C 30.199999999999992 63.99999999999999 28.41999999999999 63.849999999999994 26.699999999999992 63.559999999999995 C 25.549999999999994 63.26 24.679999999999993 62.459999999999994 24.429999999999993 61.339999999999996 L 22.869999999999994 54.199999999999996 C 20.889999999999993 53.37 19.039999999999992 52.3 17.369999999999994 51.01 L 10.409999999999993 53.23 C 9.309999999999993 53.58 8.089999999999993 53.269999999999996 7.3499999999999925 52.379999999999995 C 6.339999999999993 51.13999999999999 5.409999999999993 49.839999999999996 4.589999999999993 48.47 L 3.999999999999993 47.46 C 3.239999999999993 46.1 2.579999999999993 44.660000000000004 2.029999999999993 43.17 C 1.6299999999999932 42.09 1.969999999999993 40.88 2.819999999999993 40.09 L 8.229999999999993 35.17 C 8.089999999999993 34.13 8.019999999999992 33.07 8.019999999999992 32 C 8.019999999999992 30.93 8.089999999999993 29.86 8.229999999999993 28.83 L 2.819999999999993 23.9 C 1.9599999999999933 23.11 1.6199999999999932 21.91 2.029999999999993 20.83 C 2.579999999999993 19.34 3.249999999999993 17.9 3.999999999999993 16.54 L 4.579999999999993 15.53 C 5.409999999999993 14.149999999999999 6.329999999999993 12.86 7.3499999999999925 11.62 C 8.089999999999993 10.729999999999999 9.309999999999992 10.42 10.409999999999993 10.77 L 17.369999999999994 12.99 C 19.039999999999992 11.7 20.889999999999993 10.620000000000001 22.869999999999994 9.81 L 24.429999999999993 2.670000000000001 C 24.679999999999993 1.540000000000001 25.549999999999994 0.6300000000000008 26.699999999999992 0.44000000000000083 C 28.429999999999993 0.15000000000000085 30.199999999999992 8.326672684688674e-16 32.00999999999999 8.326672684688674e-16 C 33.81999999999999 8.326672684688674e-16 35.599999999999994 0.15000000000000083 37.31999999999999 0.44000000000000083 C 38.46999999999999 0.6300000000000008 39.349999999999994 1.530000000000001 39.599999999999994 2.670000000000001 L 41.16 9.81 C 43.019999999999996 10.63 44.98 11.700000000000001 46.66 12.99 L 53.62 10.77 C 54.72 10.42 55.93 10.73 56.68 11.62 C 57.69 12.85 58.62 14.149999999999999 59.44 15.53 L 60.03 16.54 C 60.78 17.9 61.44 19.34 61.99 20.83 L 61.99 20.83 Z M 0 0 M 32 42 C 37.53 42 42 37.53 42 31.89 C 42 26.25 37.53 21.89 32 21.89 C 26.47 21.89 22 26.48 22 31.89 C 22 37.3 26.48 42 32 42 Z" stroke-miterlimit="10" stroke-width="2" stroke-dasharray=""/></g></g></g></g><g id="_E5661266-8952-41E5-9D1B-29D5A3A32B56" transform="matrix(1,0,0,1,50,446)"><g><path fill="#fff" stroke="#ccc" id="_E5661266-8952-41E5-9D1B-29D5A3A32B56?shapeType=BACKGROUND" paint-order="fill stroke markers" d=" M 0 5 L 0 5 L 0 5.000000000000001 A 5 5 0 0 1 5 0 L 245 0 L 245 0 L 245 0 A 5 5 0 0 1 250 5 L 250 85 L 250 85 L 250 85 A 5 5 0 0 1 245 90 L 5 90 L 5 90 L 5 90 A 5 5 0 0 1 0 85 Z" stroke-miterlimit="10" stroke-width="2" stroke-dasharray=""/></g><g transform="matrix(1,0,0,1,90,35)"><text fill="#383B3D" stroke="none" font-family="Open Sans" font-size="12pt" font-style="normal" font-weight="normal" text-decoration="normal" x="70.0546875" y="12" text-anchor="middle" dominant-baseline="central">waitAsyncForEvent</text></g><g transform="matrix(1,0,0,1,45,46)"><g id="_E5661266-8952-41E5-9D1B-29D5A3A32B56"><path fill="#0066CC" stroke="#d5d5d5" id="_E5661266-8952-41E5-9D1B-29D5A3A32B56" paint-order="fill stroke markers" d=" M 0 -25 L 0 -25 L 1.5308084989341915e-15 -25 A 25 25 0 0 1 25 0 L 25 0 L 25 0 A 25 25 0 0 1 1.5308084989341915e-15 25 L 0 25 L 1.5308084989341915e-15 25 A 25 25 0 0 1 -25 3.061616997868383e-15 L -25 0 L -25 3.061616997868383e-15 A 25 25 0 0 1 1.5308084989341915e-15 -25 Z" stroke-miterlimit="10" stroke-dasharray=""/></g><g transform="matrix(0.35,0,0,0.35,-11.05,-11.05)"><g id="_E5661266-8952-41E5-9D1B-29D5A3A32B56"><path fill="#fff" stroke="#fff" id="_E5661266-8952-41E5-9D1B-29D5A3A32B56" paint-order="fill stroke markers" d=" M 0 0 M 61.99 20.83 C 62.4 21.9 62.050000000000004 23.119999999999997 61.2 23.9 L 55.790000000000006 28.83 C 55.93000000000001 29.869999999999997 56.00000000000001 30.93 56.00000000000001 32 C 56.00000000000001 33.07 55.92000000000001 34.14 55.790000000000006 35.17 L 61.2 40.09 C 62.050000000000004 40.88 62.400000000000006 42.09 61.99 43.17 C 61.440000000000005 44.660000000000004 60.78 46.09 60.03 47.46 L 59.44 48.47 C 58.61 49.85 57.69 51.15 56.68 52.379999999999995 C 55.93 53.269999999999996 54.72 53.58 53.62 53.23 L 46.66 51.01 C 44.98 52.3 43.019999999999996 53.37 41.16 54.199999999999996 L 39.599999999999994 61.339999999999996 C 39.349999999999994 62.459999999999994 38.48 63.26 37.31999999999999 63.559999999999995 C 35.599999999999994 63.849999999999994 33.81999999999999 63.99999999999999 31.89999999999999 63.99999999999999 C 30.199999999999992 63.99999999999999 28.41999999999999 63.849999999999994 26.699999999999992 63.559999999999995 C 25.549999999999994 63.26 24.679999999999993 62.459999999999994 24.429999999999993 61.339999999999996 L 22.869999999999994 54.199999999999996 C 20.889999999999993 53.37 19.039999999999992 52.3 17.369999999999994 51.01 L 10.409999999999993 53.23 C 9.309999999999993 53.58 8.089999999999993 53.269999999999996 7.3499999999999925 52.379999999999995 C 6.339999999999993 51.13999999999999 5.409999999999993 49.839999999999996 4.589999999999993 48.47 L 3.999999999999993 47.46 C 3.239999999999993 46.1 2.579999999999993 44.660000000000004 2.029999999999993 43.17 C 1.6299999999999932 42.09 1.969999999999993 40.88 2.819999999999993 40.09 L 8.229999999999993 35.17 C 8.089999999999993 34.13 8.019999999999992 33.07 8.019999999999992 32 C 8.019999999999992 30.93 8.089999999999993 29.86 8.229999999999993 28.83 L 2.819999999999993 23.9 C 1.9599999999999933 23.11 1.6199999999999932 21.91 2.029999999999993 20.83 C 2.579999999999993 19.34 3.249999999999993 17.9 3.999999999999993 16.54 L 4.579999999999993 15.53 C 5.409999999999993 14.149999999999999 6.329999999999993 12.86 7.3499999999999925 11.62 C 8.089999999999993 10.729999999999999 9.309999999999992 10.42 10.409999999999993 10.77 L 17.369999999999994 12.99 C 19.039999999999992 11.7 20.889999999999993 10.620000000000001 22.869999999999994 9.81 L 24.429999999999993 2.670000000000001 C 24.679999999999993 1.540000000000001 25.549999999999994 0.6300000000000008 26.699999999999992 0.44000000000000083 C 28.429999999999993 0.15000000000000085 30.199999999999992 8.326672684688674e-16 32.00999999999999 8.326672684688674e-16 C 33.81999999999999 8.326672684688674e-16 35.599999999999994 0.15000000000000083 37.31999999999999 0.44000000000000083 C 38.46999999999999 0.6300000000000008 39.349999999999994 1.530000000000001 39.599999999999994 2.670000000000001 L 41.16 9.81 C 43.019999999999996 10.63 44.98 11.700000000000001 46.66 12.99 L 53.62 10.77 C 54.72 10.42 55.93 10.73 56.68 11.62 C 57.69 12.85 58.62 14.149999999999999 59.44 15.53 L 60.03 16.54 C 60.78 17.9 61.44 19.34 61.99 20.83 L 61.99 20.83 Z M 0 0 M 32 42 C 37.53 42 42 37.53 42 31.89 C 42 26.25 37.53 21.89 32 21.89 C 26.47 21.89 22 26.48 22 31.89 C 22 37.3 26.48 42 32 42 Z" stroke-miterlimit="10" stroke-width="2" stroke-dasharray=""/></g></g></g></g><g id="startEdge"><g><path fill="none" stroke="#757575" paint-order="fill stroke markers" d=" M 175 100 L 175 217" stroke-miterlimit="10" stroke-width="2" stroke-dasharray=""/></g><g transform="matrix(1,0,0,1,175,100)"/><g transform="matrix(-1,1.2246467991473532e-16,-1.2246467991473532e-16,-1,179,229)"><path fill="#757575" stroke="#757575" paint-order="fill stroke markers" d=" M 8 12 L 0 12 L 4 0 Z" stroke-miterlimit="10" stroke-width="2" stroke-dasharray=""/></g><g/><g transform="matrix(1,0,0,1,185,164.5)"/></g><g id="_C9549E59-2051-4039-8732-0FCC13B066E8"><g><path fill="none" stroke="#757575" paint-order="fill stroke markers" d=" M 175 319 L 175 434" stroke-miterlimit="10" stroke-width="2" stroke-dasharray=""/></g><g transform="matrix(1,0,0,1,175,319)"/><g transform="matrix(-1,1.2246467991473532e-16,-1.2246467991473532e-16,-1,179,446)"><path fill="#757575" stroke="#757575" paint-order="fill stroke markers" d=" M 8 12 L 0 12 L 4 0 Z" stroke-miterlimit="10" stroke-width="2" stroke-dasharray=""/></g><g/><g transform="matrix(1,0,0,1,185,382.5)"/></g><g id="_D31BAC22-C367-4B47-B1EE-571E0DBA54DB"><g><path fill="none" stroke="#757575" paint-order="fill stroke markers" d=" M 175 536 L 175 651" stroke-miterlimit="10" stroke-width="2" stroke-dasharray=""/></g><g transform="matrix(1,0,0,1,175,536)"/><g transform="matrix(-1,1.2246467991473532e-16,-1.2246467991473532e-16,-1,179,663)"><path fill="#757575" stroke="#757575" paint-order="fill stroke markers" d=" M 8 12 L 0 12 L 4 0 Z" stroke-miterlimit="10" stroke-width="2" stroke-dasharray=""/></g><g/><g transform="matrix(1,0,0,1,185,599.5)"/></g></g></g></svg>