<?xml version="1.0" encoding="UTF-8" standalone="no"?><svg xmlns="http://www.w3.org/2000/svg" xmlns:xlink="http://www.w3.org/1999/xlink" contentScriptType="application/ecmascript" contentStyleType="text/css" height="433px" preserveAspectRatio="none" style="width:624px;height:433px;" version="1.1" viewBox="0 0 624 433" width="624px" zoomAndPan="magnify"><defs><filter height="300%" id="f80hojr" width="300%" x="-1" y="-1"><feGaussianBlur result="blurOut" stdDeviation="2.0"/><feColorMatrix in="blurOut" result="blurOut2" type="matrix" values="0 0 0 0 0 0 0 0 0 0 0 0 0 0 0 0 0 0 .4 0"/><feOffset dx="4.0" dy="4.0" in="blurOut2" result="blurOut3"/><feBlend in="SourceGraphic" in2="blurOut3" mode="normal"/></filter></defs><g><rect fill="#FFFFFF" filter="url(#f80hojr)" height="344.2969" rx="12.5" ry="12.5" style="stroke: #000000; stroke-width: 1.5;" width="207" x="206.5" y="8"/><rect fill="#FFFFFF" height="312" rx="12.5" ry="12.5" style="stroke: #FFFFFF; stroke-width: 1.0;" width="201" x="209.5" y="37.2969"/><line style="stroke: #000000; stroke-width: 1.5;" x1="206.5" x2="413.5" y1="34.2969" y2="34.2969"/><text fill="#000000" font-family="sans-serif" font-size="14" lengthAdjust="spacingAndGlyphs" textLength="138" x="241" y="25.9951">Order Workflow v1.0</text><rect fill="#F8F8FF" filter="url(#f80hojr)" height="64.2344" rx="12.5" ry="12.5" style="stroke: #7FE5F0; stroke-width: 1.5;" width="140" x="229" y="103.2969"/><line style="stroke: #7FE5F0; stroke-width: 1.5;" x1="229" x2="369" y1="129.5938" y2="129.5938"/><text fill="#000000" font-family="sans-serif" font-size="14" lengthAdjust="spacingAndGlyphs" textLength="94" x="252" y="121.292">ReceiveOrder</text><text fill="#000000" font-family="sans-serif" font-size="12" lengthAdjust="spacingAndGlyphs" textLength="110" x="234" y="145.7324">Type: Event State</text><text fill="#000000" font-family="sans-serif" font-size="12" lengthAdjust="spacingAndGlyphs" textLength="120" x="234" y="159.7012">Events: OrderEvent</text><rect fill="#F8F8FF" filter="url(#f80hojr)" height="78.2031" rx="12.5" ry="12.5" style="stroke: #6A2C70; stroke-width: 1.5;" width="163" x="217.5" y="203.2969"/><line style="stroke: #6A2C70; stroke-width: 1.5;" x1="217.5" x2="380.5" y1="229.5938" y2="229.5938"/><text fill="#000000" font-family="sans-serif" font-size="14" lengthAdjust="spacingAndGlyphs" textLength="95" x="251.5" y="221.292">ProcessOrder</text><text fill="#000000" font-family="sans-serif" font-size="12" lengthAdjust="spacingAndGlyphs" textLength="121" x="222.5" y="245.7324">Type: Parallel State</text><text fill="#000000" font-family="sans-serif" font-size="12" lengthAdjust="spacingAndGlyphs" textLength="143" x="222.5" y="259.7012">Completion type: "and"</text><text fill="#000000" font-family="sans-serif" font-size="12" lengthAdjust="spacingAndGlyphs" textLength="127" x="222.5" y="273.6699">Num. of branches: 2</text><ellipse cx="299" cy="57.2969" fill="#008000" filter="url(#f80hojr)" rx="10" ry="10" style="stroke: none; stroke-width: 1.0;"/><ellipse cx="299" cy="327.2969" fill="none" filter="url(#f80hojr)" rx="10" ry="10" style="stroke: #FFA500; stroke-width: 1.0;"/><ellipse cx="299.5" cy="327.7969" fill="#FFA500" rx="6" ry="6" style="stroke: none; stroke-width: 1.0;"/><path d="M299,67.3169 C299,75.0169 299,86.6369 299,98.0469 " fill="none" style="stroke: #000000; stroke-width: 1.0;"/><polygon fill="#000000" points="299,103.2669,303,94.2669,299,98.2669,295,94.2669,299,103.2669" style="stroke: #000000; stroke-width: 1.0;"/><path d="M299,167.5169 C299,176.9869 299,187.5769 299,197.6969 " fill="none" style="stroke: #000000; stroke-width: 1.0;"/><polygon fill="#000000" points="299,202.9469,303,193.9469,299,197.9469,295,193.9469,299,202.9469" style="stroke: #000000; stroke-width: 1.0;"/><path d="M299,281.3969 C299,292.1969 299,303.3069 299,311.7769 " fill="none" style="stroke: #000000; stroke-width: 1.0;"/><polygon fill="#000000" points="299,317.1869,303,308.1869,299,312.1869,295,308.1869,299,317.1869" style="stroke: #000000; stroke-width: 1.0;"/><rect fill="#FFFFFF" height="62.8906" rx="5" ry="5" style="stroke: #FFFFFF; stroke-width: 1.0;" width="615" x="8" y="370"/><text fill="#000000" font-family="sans-serif" font-size="14" lengthAdjust="spacingAndGlyphs" textLength="216" x="14" y="387.9951">State Types and Border Colors:</text><text fill="#000000" font-family="sans-serif" font-size="14" font-weight="bold" lengthAdjust="spacingAndGlyphs" textLength="44" x="19" y="406.292">Event</text><text fill="#000000" font-family="sans-serif" font-size="14" font-weight="bold" lengthAdjust="spacingAndGlyphs" textLength="78" x="73" y="406.292">Operation</text><text fill="#000000" font-family="sans-serif" font-size="14" font-weight="bold" lengthAdjust="spacingAndGlyphs" textLength="53" x="161" y="406.292">Switch</text><text fill="#000000" font-family="sans-serif" font-size="14" font-weight="bold" lengthAdjust="spacingAndGlyphs" textLength="43" x="224" y="406.292">Delay</text><text fill="#000000" font-family="sans-serif" font-size="14" font-weight="bold" lengthAdjust="spacingAndGlyphs" textLength="57" x="277" y="406.292">Parallel</text><text fill="#000000" font-family="sans-serif" font-size="14" font-weight="bold" lengthAdjust="spacingAndGlyphs" textLength="67" x="344" y="406.292">SubFlow</text><text fill="#000000" font-family="sans-serif" font-size="14" font-weight="bold" lengthAdjust="spacingAndGlyphs" textLength="43" x="421" y="406.292">Inject</text><text fill="#000000" font-family="sans-serif" font-size="14" font-weight="bold" lengthAdjust="spacingAndGlyphs" textLength="63" x="474" y="406.292">ForEach</text><text fill="#000000" font-family="sans-serif" font-size="14" font-weight="bold" lengthAdjust="spacingAndGlyphs" textLength="65" x="547" y="406.292">CallBack</text><rect fill="#7FE5F0" height="16.2969" style="stroke: none; stroke-width: 1.0;" width="54" x="14" y="409.5938"/><text fill="#000000" font-family="sans-serif" font-size="14" lengthAdjust="spacingAndGlyphs" textLength="0" x="18" y="422.5889"/><rect fill="#BADA55" height="16.2969" style="stroke: none; stroke-width: 1.0;" width="88" x="68" y="409.5938"/><text fill="#000000" font-family="sans-serif" font-size="14" lengthAdjust="spacingAndGlyphs" textLength="0" x="72" y="422.5889"/><rect fill="#92A0F2" height="16.2969" style="stroke: none; stroke-width: 1.0;" width="63" x="156" y="409.5938"/><text fill="#000000" font-family="sans-serif" font-size="14" lengthAdjust="spacingAndGlyphs" textLength="0" x="160" y="422.5889"/><rect fill="#B83B5E" height="16.2969" style="stroke: none; stroke-width: 1.0;" width="53" x="219" y="409.5938"/><text fill="#000000" font-family="sans-serif" font-size="14" lengthAdjust="spacingAndGlyphs" textLength="0" x="223" y="422.5889"/><rect fill="#6A2C70" height="16.2969" style="stroke: none; stroke-width: 1.0;" width="67" x="272" y="409.5938"/><text fill="#000000" font-family="sans-serif" font-size="14" lengthAdjust="spacingAndGlyphs" textLength="0" x="276" y="422.5889"/><rect fill="#87753C" height="16.2969" style="stroke: none; stroke-width: 1.0;" width="77" x="339" y="409.5938"/><text fill="#000000" font-family="sans-serif" font-size="14" lengthAdjust="spacingAndGlyphs" textLength="0" x="343" y="422.5889"/><rect fill="#1E5F74" height="16.2969" style="stroke: none; stroke-width: 1.0;" width="53" x="416" y="409.5938"/><text fill="#000000" font-family="sans-serif" font-size="14" lengthAdjust="spacingAndGlyphs" textLength="0" x="420" y="422.5889"/><rect fill="#931A25" height="16.2969" style="stroke: none; stroke-width: 1.0;" width="73" x="469" y="409.5938"/><text fill="#000000" font-family="sans-serif" font-size="14" lengthAdjust="spacingAndGlyphs" textLength="0" x="473" y="422.5889"/><rect fill="#FFCB8E" height="16.2969" style="stroke: none; stroke-width: 1.0;" width="75" x="542" y="409.5938"/><text fill="#000000" font-family="sans-serif" font-size="14" lengthAdjust="spacingAndGlyphs" textLength="0" x="546" y="422.5889"/><line style="stroke: #000000; stroke-width: 1.0;" x1="14" x2="617" y1="393.2969" y2="393.2969"/><line style="stroke: #000000; stroke-width: 1.0;" x1="14" x2="617" y1="409.5938" y2="409.5938"/><line style="stroke: #000000; stroke-width: 1.0;" x1="14" x2="617" y1="425.8906" y2="425.8906"/><line style="stroke: #000000; stroke-width: 1.0;" x1="14" x2="14" y1="393.2969" y2="425.8906"/><line style="stroke: #000000; stroke-width: 1.0;" x1="68" x2="68" y1="393.2969" y2="425.8906"/><line style="stroke: #000000; stroke-width: 1.0;" x1="156" x2="156" y1="393.2969" y2="425.8906"/><line style="stroke: #000000; stroke-width: 1.0;" x1="219" x2="219" y1="393.2969" y2="425.8906"/><line style="stroke: #000000; stroke-width: 1.0;" x1="272" x2="272" y1="393.2969" y2="425.8906"/><line style="stroke: #000000; stroke-width: 1.0;" x1="339" x2="339" y1="393.2969" y2="425.8906"/><line style="stroke: #000000; stroke-width: 1.0;" x1="416" x2="416" y1="393.2969" y2="425.8906"/><line style="stroke: #000000; stroke-width: 1.0;" x1="469" x2="469" y1="393.2969" y2="425.8906"/><line style="stroke: #000000; stroke-width: 1.0;" x1="542" x2="542" y1="393.2969" y2="425.8906"/><line style="stroke: #000000; stroke-width: 1.0;" x1="617" x2="617" y1="393.2969" y2="425.8906"/></g></svg>