<svg version="1.1" xmlns="http://www.w3.org/2000/svg" xmlns:xlink="http://www.w3.org/1999/xlink" width="451" height="635" viewBox="0 0 451 635"><defs/><g transform="matrix(1,0,0,1,0,0)"><g><g><g><path fill="none" stroke="#d3d3d3" paint-order="fill stroke markers" d=" M 0 0 L 1200 0" stroke-miterlimit="10" stroke-opacity="0.8" stroke-dasharray="5"/></g><g><path fill="none" stroke="#d3d3d3" paint-order="fill stroke markers" d=" M 0 0 L 0 800" stroke-miterlimit="10" stroke-opacity="0.8" stroke-dasharray="5"/></g></g><g id="_A7DDC327-D1D9-424B-83EE-E2CA81E5A610" transform="matrix(1,0,0,1,172.00000000000003,50)"><g transform="matrix(1,0,0,1,23,0)"><path fill="#ffffff" stroke="#d5d5d5" id="_A7DDC327-D1D9-424B-83EE-E2CA81E5A610?shapeType=BORDER" paint-order="fill stroke markers" d=" M 0 0 L 0 0 L 1.5308084989341915e-15 0 A 25 25 0 0 1 25 25 L 25 25 L 25 25 A 25 25 0 0 1 1.5308084989341915e-15 50 L 0 50 L 1.5308084989341915e-15 50 A 25 25 0 0 1 -25 25.000000000000004 L -25 25 L -25 25.000000000000004 A 25 25 0 0 1 1.5308084989341915e-15 0 Z" stroke-miterlimit="10" stroke-width="2" stroke-dasharray=""/></g><g><g id="_A7DDC327-D1D9-424B-83EE-E2CA81E5A610" transform="matrix(1,0,0,1,23,25)"><text fill="#929292" stroke="none" font-family="Open Sans" font-size="12pt" font-style="normal" font-weight="normal" text-decoration="normal" x="0" y="0" text-anchor="middle" dominant-baseline="central">Start</text></g></g></g><g id="_273D19D6-D8DF-41A9-9A6E-6BA2E156648E" transform="matrix(1,0,0,1,172.50000000000006,539)"><g transform="matrix(1,0,0,1,0,0)"><path fill="#ffffff" stroke="#d5d5d5" id="_273D19D6-D8DF-41A9-9A6E-6BA2E156648E?shapeType=BORDER" paint-order="fill stroke markers" d=" M 0 0 L 46 0 L 46 46 L 0 46 Z" stroke-miterlimit="10" stroke-width="2" stroke-dasharray=""/></g><g><g id="_273D19D6-D8DF-41A9-9A6E-6BA2E156648E" transform="matrix(1,0,0,1,23,23)"><text fill="#929292" stroke="none" font-family="Open Sans" font-size="12pt" font-style="normal" font-weight="normal" text-decoration="normal" x="0" y="0" text-anchor="middle" dominant-baseline="central">End</text></g></g></g><g id="_B388EA34-F662-477E-9763-46EDCB48B043" transform="matrix(1,0,0,1,70.00000000000004,185)"><g transform="matrix(1,0,0,1,0,0)"><path fill="none" stroke="none"/></g><g transform="matrix(1,0,0,1,0,0)"><path fill="#fff" stroke="#d5d5d5" id="_B388EA34-F662-477E-9763-46EDCB48B043_BC236806-53AC-46B2-B362-32F6680E21E7" paint-order="fill stroke markers" d=" M 5 0 L 245 0 L 245 0 A 5 5 0 0 1 250 5 L 250 85 L 250 85 A 5 5 0 0 1 245 90 L 5 90 L 5 90 A 5 5 0 0 1 0 85 L 0 5 L 0 5.000000000000001 A 5 5 0 0 1 4.999999999999999 0 Z" stroke-miterlimit="10" stroke-width="2" stroke-dasharray=""/></g><g transform="matrix(1,0,0,1,90,35)"><text fill="#383B3D" stroke="none" font-family="Open Sans" font-size="12pt" font-style="normal" font-weight="normal" text-decoration="normal" x="48.42578125" y="12" text-anchor="middle" dominant-baseline="central">waitForEvent</text></g><g><g id="_B388EA34-F662-477E-9763-46EDCB48B043" transform="matrix(1,0,0,1,45,46)"><path fill="#EC7A08" stroke="#d5d5d5" id="_B388EA34-F662-477E-9763-46EDCB48B043" paint-order="fill stroke markers" d=" M 25 0 A 25 25 0 1 0 24.99998750000104 0.02499999583334189 Z" stroke-miterlimit="10" stroke-dasharray=""/></g><g transform="matrix(0.35,0,0,0.35,33.8,34.45)"><g id="_B388EA34-F662-477E-9763-46EDCB48B043" transform="matrix(1,0,0,1,0,0)"><path fill="#ffffff" stroke="#ffffff" id="_B388EA34-F662-477E-9763-46EDCB48B043" paint-order="fill stroke markers" d=" M 0 0 M 63.97 36.13 C 63.97 34 62.33 32.18 60.21 32.06 C 57.9 31.930000000000003 55.980000000000004 33.760000000000005 55.980000000000004 36.050000000000004 C 55.980000000000004 42.660000000000004 50.61000000000001 48.03 44 48.03 L 24.03 48.03 L 24.03 43.04 C 24.03 41.86 23.330000000000002 40.79 22.25 40.3 C 21.17 39.83 19.91 40.019999999999996 19.02 40.82 L 9.04 49.8 C 8.409999999999998 50.36 8.049999999999999 51.169999999999995 8.049999999999999 52.019999999999996 C 8.049999999999999 52.87 8.409999999999998 53.67999999999999 9.04 54.24999999999999 L 19.02 63.22999999999999 C 19.58 63.73999999999999 20.3 63.99999999999999 21.02 63.99999999999999 C 21.43 63.99999999999999 21.849999999999998 63.90999999999999 22.24 63.739999999999995 C 23.32 63.26 24.02 62.19 24.02 60.99999999999999 L 24.02 56.00999999999999 L 43.989999999999995 56.00999999999999 C 54.97 56.00999999999999 63.91 47.099999999999994 63.959999999999994 36.11999999999999 Z M 0 0 M 20 16.08 L 39.85 16.08 L 39.96 21.07 C 39.96 22.25 40.660000000000004 23.32 41.74 23.810000000000002 C 42.14 23.980000000000004 42.550000000000004 24.070000000000004 42.85 24.070000000000004 C 43.58 24.070000000000004 44.29 23.800000000000004 44.86 23.300000000000004 L 54.84 14.320000000000004 C 55.580000000000005 13.750000000000004 55.940000000000005 12.940000000000005 55.940000000000005 11.980000000000004 C 55.940000000000005 11.020000000000003 55.580000000000005 10.320000000000004 54.95 9.750000000000004 L 44.97 0.76 C 44.089999999999996 -0.030000000000000027 42.82 -0.21999999999999997 41.75 0.25 C 40.67 0.85 39.86 1.92 39.86 3.1 L 39.97 8.09 L 20 8.09 C 8.99 8.09 0.03 17.05 0.03 28.06 C 0.03 30.27 1.82 32.05 4.0200000000000005 32.05 C 6.220000000000001 32.05 8.010000000000002 30.259999999999998 8.010000000000002 28.059999999999995 C 8.010000000000002 21.459999999999994 13.39 16.079999999999995 19.990000000000002 16.079999999999995 Z" stroke-miterlimit="10" stroke-width="2" stroke-dasharray=""/></g></g></g></g><g id="_AA4D7DAC-D79B-46A1-B9C0-A16A0C4E78A9" transform="matrix(1,0,0,1,151.00000000000006,362)"><g transform="matrix(1,0,0,1,0,0)"><path fill="none" stroke="none"/></g><g transform="matrix(1,0,0,1,0,0)"><path fill="#fff" stroke="#d5d5d5" id="_AA4D7DAC-D79B-46A1-B9C0-A16A0C4E78A9_B3FD5D27-FBDD-45BA-8DA9-66BD8EFBFEBC" paint-order="fill stroke markers" d=" M 5 0 L 245 0 L 245 0 A 5 5 0 0 1 250 5 L 250 85 L 250 85 A 5 5 0 0 1 245 90 L 5 90 L 5 90 A 5 5 0 0 1 0 85 L 0 5 L 0 5.000000000000001 A 5 5 0 0 1 4.999999999999999 0 Z" stroke-miterlimit="10" stroke-width="2" stroke-dasharray=""/></g><g transform="matrix(1,0,0,1,90,35)"><text fill="#383B3D" stroke="none" font-family="Open Sans" font-size="12pt" font-style="normal" font-weight="normal" text-decoration="normal" x="20.39453125" y="12" text-anchor="middle" dominant-baseline="central">finish</text></g><g><g id="_AA4D7DAC-D79B-46A1-B9C0-A16A0C4E78A9" transform="matrix(1,0,0,1,45,46)"><path fill="#0066CC" stroke="#d5d5d5" id="_AA4D7DAC-D79B-46A1-B9C0-A16A0C4E78A9" paint-order="fill stroke markers" d=" M 25 0 A 25 25 0 1 0 24.99998750000104 0.02499999583334189 Z" stroke-miterlimit="10" stroke-dasharray=""/></g><g transform="matrix(0.35,0,0,0.35,33.8,34.45)"><g id="_AA4D7DAC-D79B-46A1-B9C0-A16A0C4E78A9" transform="matrix(1,0,0,1,0,0)"><path fill="#ffffff" stroke="#ffffff" id="_AA4D7DAC-D79B-46A1-B9C0-A16A0C4E78A9" paint-order="fill stroke markers" d=" M 0 0 M 61.99 20.83 C 62.4 21.9 62.050000000000004 23.119999999999997 61.2 23.9 L 55.790000000000006 28.83 C 55.93000000000001 29.869999999999997 56.00000000000001 30.93 56.00000000000001 32 C 56.00000000000001 33.07 55.92000000000001 34.14 55.790000000000006 35.17 L 61.2 40.09 C 62.050000000000004 40.88 62.400000000000006 42.09 61.99 43.17 C 61.440000000000005 44.660000000000004 60.78 46.09 60.03 47.46 L 59.44 48.47 C 58.61 49.85 57.69 51.15 56.68 52.379999999999995 C 55.93 53.269999999999996 54.72 53.58 53.62 53.23 L 46.66 51.01 C 44.98 52.3 43.019999999999996 53.37 41.16 54.199999999999996 L 39.599999999999994 61.339999999999996 C 39.349999999999994 62.459999999999994 38.48 63.26 37.31999999999999 63.559999999999995 C 35.599999999999994 63.849999999999994 33.81999999999999 63.99999999999999 31.89999999999999 63.99999999999999 C 30.199999999999992 63.99999999999999 28.41999999999999 63.849999999999994 26.699999999999992 63.559999999999995 C 25.549999999999994 63.26 24.679999999999993 62.459999999999994 24.429999999999993 61.339999999999996 L 22.869999999999994 54.199999999999996 C 20.889999999999993 53.37 19.039999999999992 52.3 17.369999999999994 51.01 L 10.409999999999993 53.23 C 9.309999999999993 53.58 8.089999999999993 53.269999999999996 7.3499999999999925 52.379999999999995 C 6.339999999999993 51.13999999999999 5.409999999999993 49.839999999999996 4.589999999999993 48.47 L 3.999999999999993 47.46 C 3.239999999999993 46.1 2.579999999999993 44.660000000000004 2.029999999999993 43.17 C 1.6299999999999932 42.09 1.969999999999993 40.88 2.819999999999993 40.09 L 8.229999999999993 35.17 C 8.089999999999993 34.13 8.019999999999992 33.07 8.019999999999992 32 C 8.019999999999992 30.93 8.089999999999993 29.86 8.229999999999993 28.83 L 2.819999999999993 23.9 C 1.9599999999999933 23.11 1.6199999999999932 21.91 2.029999999999993 20.83 C 2.579999999999993 19.34 3.249999999999993 17.9 3.999999999999993 16.54 L 4.579999999999993 15.53 C 5.409999999999993 14.149999999999999 6.329999999999993 12.86 7.3499999999999925 11.62 C 8.089999999999993 10.729999999999999 9.309999999999992 10.42 10.409999999999993 10.77 L 17.369999999999994 12.99 C 19.039999999999992 11.7 20.889999999999993 10.620000000000001 22.869999999999994 9.81 L 24.429999999999993 2.670000000000001 C 24.679999999999993 1.540000000000001 25.549999999999994 0.6300000000000008 26.699999999999992 0.44000000000000083 C 28.429999999999993 0.15000000000000085 30.199999999999992 8.326672684688674e-16 32.00999999999999 8.326672684688674e-16 C 33.81999999999999 8.326672684688674e-16 35.599999999999994 0.15000000000000083 37.31999999999999 0.44000000000000083 C 38.46999999999999 0.6300000000000008 39.349999999999994 1.530000000000001 39.599999999999994 2.670000000000001 L 41.16 9.81 C 43.019999999999996 10.63 44.98 11.700000000000001 46.66 12.99 L 53.62 10.77 C 54.72 10.42 55.93 10.73 56.68 11.62 C 57.69 12.85 58.62 14.149999999999999 59.44 15.53 L 60.03 16.54 C 60.78 17.9 61.44 19.34 61.99 20.83 L 61.99 20.83 Z M 0 0 M 32 42 C 37.53 42 42 37.53 42 31.89 C 42 26.25 37.53 21.89 32 21.89 C 26.47 21.89 22 26.48 22 31.89 C 22 37.3 26.48 42 32 42 Z" stroke-miterlimit="10" stroke-width="2" stroke-dasharray=""/></g></g></g></g><g id="startEdge"><g><path fill="none" stroke="#757575" paint-order="fill stroke markers" d=" M 195.00000000000003 100 L 195.00000000000006 170" stroke-miterlimit="10" stroke-width="1.5" stroke-dasharray=""/></g><g transform="matrix(1,0,0,1,195.00000000000003,100)"/><g transform="matrix(-1,1.2246467991473532e-16,-1.2246467991473532e-16,-1,200.00000000000006,185)"><path fill="#757575" stroke="#757575" paint-order="fill stroke markers" d=" M 10 15 L 0 15 L 5 0 Z" stroke-miterlimit="10" stroke-width="1.5" stroke-dasharray=""/></g><g transform="matrix(1,0,0,1,205.00000000000006,142.5)"/></g><g id="_D9756155-400B-463E-BFC6-743952C25A53"><g><path fill="none" stroke="#757575" paint-order="fill stroke markers" d=" M 219.32926829268303 275 L 239.3333333333334 312 L 278.00000000000006 312 L 277.2630879369439 347.003322995167" stroke-miterlimit="10" stroke-width="1.5" stroke-dasharray=""/></g><g transform="matrix(1,0,0,1,219.32926829268303,275)"/><g transform="matrix(-0.9997784669888634,-0.021047967726080034,0.021047967726080034,-0.9997784669888634,281.94626075599706,362.1052398386304)"><path fill="#757575" stroke="#757575" paint-order="fill stroke markers" d=" M 10 15 L 0 15 L 5 0 Z" stroke-miterlimit="10" stroke-width="1.5" stroke-dasharray=""/></g><g transform="matrix(1,0,0,1,228.12592911418758,288.7440817509752)"/></g><g id="_C803D8D8-F3E4-4981-B5BC-9C2B289F375A"><g><path fill="none" stroke="#757575" paint-order="fill stroke markers" d=" M 277.0975609756098 452 L 278.00000000000006 489 L 205.1666666666667 489 L 200.51477422663655 524.1298084264347" stroke-miterlimit="10" stroke-width="1.5" stroke-dasharray=""/></g><g transform="matrix(1,0,0,1,277.0975609756098,452)"/><g transform="matrix(-0.9913461049043509,-0.13127414174532523,0.13127414174532523,-0.9913461049043509,203.50239262497843,539.6563707087266)"><path fill="#757575" stroke="#757575" paint-order="fill stroke markers" d=" M 10 15 L 0 15 L 5 0 Z" stroke-miterlimit="10" stroke-width="1.5" stroke-dasharray=""/></g><g transform="matrix(1,0,0,1,287.09458788204034,470.2561700754529)"/></g><g id="_8FA8DB37-197A-4D99-A72A-80076DE4651C"><g><path fill="none" stroke="#c9190b" paint-order="fill stroke markers" d=" M 172.86585365853665 275 L 154.6666666666667 312 L 116.00000000000006 312 L 116.00000000000006 489 L 188.8333333333334 489 L 192.03535728416475 524.0621622616032" stroke-miterlimit="10" stroke-width="1.5" stroke-dasharray="8,8"/></g><g transform="matrix(1,0,0,1,172.86585365853665,275)"/><g transform="matrix(-0.9958558492264507,0.09094573965538362,-0.09094573965538362,-0.9958558492264507,198.37882262512775,538.5452713017231)"><path fill="#c9190b" stroke="#c9190b" paint-order="fill stroke markers" d=" M 10 15 L 0 15 L 5 0 Z" stroke-miterlimit="10" stroke-width="1.5" stroke-dasharray=""/></g><g transform="matrix(1,0,0,1,163.6399295046644,289.0863219374076)"/></g><g transform="matrix(1,0,0,1,151.00000000000006,362)"/></g></g></svg>